%TF.GenerationSoftware,KiCad,Pcbnew,8.0.8*%
%TF.CreationDate,2025-03-01T18:28:42-05:00*%
%TF.ProjectId,NEW1,4e455731-2e6b-4696-9361-645f70636258,rev?*%
%TF.SameCoordinates,Original*%
%TF.FileFunction,Copper,L2,Bot*%
%TF.FilePolarity,Positive*%
%FSLAX46Y46*%
G04 Gerber Fmt 4.6, Leading zero omitted, Abs format (unit mm)*
G04 Created by KiCad (PCBNEW 8.0.8) date 2025-03-01 18:28:42*
%MOMM*%
%LPD*%
G01*
G04 APERTURE LIST*
%TA.AperFunction,ComponentPad*%
%ADD10C,10.160000*%
%TD*%
%TA.AperFunction,ComponentPad*%
%ADD11R,1.600000X1.600000*%
%TD*%
%TA.AperFunction,ComponentPad*%
%ADD12O,1.600000X1.600000*%
%TD*%
%TA.AperFunction,ComponentPad*%
%ADD13R,1.270000X1.270000*%
%TD*%
%TA.AperFunction,ComponentPad*%
%ADD14C,1.270000*%
%TD*%
%TA.AperFunction,ComponentPad*%
%ADD15R,2.400000X2.400000*%
%TD*%
%TA.AperFunction,ComponentPad*%
%ADD16C,2.400000*%
%TD*%
%TA.AperFunction,ComponentPad*%
%ADD17R,1.905000X2.000000*%
%TD*%
%TA.AperFunction,ComponentPad*%
%ADD18O,1.905000X2.000000*%
%TD*%
%TA.AperFunction,ComponentPad*%
%ADD19R,1.879600X1.879600*%
%TD*%
%TA.AperFunction,ComponentPad*%
%ADD20C,1.879600*%
%TD*%
%TA.AperFunction,ComponentPad*%
%ADD21R,1.524000X1.524000*%
%TD*%
%TA.AperFunction,ComponentPad*%
%ADD22C,1.524000*%
%TD*%
%TA.AperFunction,ComponentPad*%
%ADD23R,1.500000X1.500000*%
%TD*%
%TA.AperFunction,ComponentPad*%
%ADD24C,1.500000*%
%TD*%
%TA.AperFunction,ComponentPad*%
%ADD25O,2.400000X2.400000*%
%TD*%
%TA.AperFunction,ViaPad*%
%ADD26C,0.600000*%
%TD*%
%TA.AperFunction,Conductor*%
%ADD27C,0.500000*%
%TD*%
%TA.AperFunction,Conductor*%
%ADD28C,0.200000*%
%TD*%
%TA.AperFunction,Conductor*%
%ADD29C,1.000000*%
%TD*%
G04 APERTURE END LIST*
D10*
%TO.P,J5,1,Pin_1*%
%TO.N,/VSW*%
X94000000Y-33000000D03*
%TD*%
D11*
%TO.P,U1,1*%
%TO.N,/VFILT*%
X125800000Y-87800000D03*
D12*
%TO.P,U1,2,-*%
%TO.N,Net-(U1A--)*%
X125800000Y-85260000D03*
%TO.P,U1,3,+*%
%TO.N,Net-(U1A-+)*%
X125800000Y-82720000D03*
%TO.P,U1,4,V-*%
%TO.N,GND*%
X125800000Y-80180000D03*
%TO.P,U1,5,+*%
%TO.N,unconnected-(U1B-+-Pad5)*%
X118180000Y-80180000D03*
%TO.P,U1,6,-*%
%TO.N,unconnected-(U1B---Pad6)*%
X118180000Y-82720000D03*
%TO.P,U1,7*%
%TO.N,unconnected-(U1-Pad7)*%
X118180000Y-85260000D03*
%TO.P,U1,8,V+*%
%TO.N,+3.3V*%
X118180000Y-87800000D03*
%TD*%
D10*
%TO.P,J4,1,Pin_1*%
%TO.N,GND*%
X50000000Y-53000000D03*
%TD*%
D13*
%TO.P,U4,1,+VIN(VCC)*%
%TO.N,+5V*%
X46965200Y-90175000D03*
D14*
%TO.P,U4,2,-VIN(GGND)*%
%TO.N,GND*%
X49505200Y-90175000D03*
%TO.P,U4,5,-VOUT*%
%TO.N,/VSW*%
X57125200Y-90175000D03*
%TO.P,U4,7,+VOUT*%
%TO.N,/GD/ISO_12*%
X62205200Y-90175000D03*
%TD*%
D10*
%TO.P,J1,1,Pin_1*%
%TO.N,/PowerStage/VIN*%
X50000000Y-33000000D03*
%TD*%
D15*
%TO.P,C3,1*%
%TO.N,/PowerStage/VIN*%
X90000000Y-81750000D03*
D16*
%TO.P,C3,2*%
%TO.N,GND*%
X97500000Y-81750000D03*
%TD*%
D17*
%TO.P,Q1,1,G*%
%TO.N,/VG*%
X87460000Y-66195000D03*
D18*
%TO.P,Q1,2,D*%
%TO.N,/PowerStage/VIN*%
X90000000Y-66195000D03*
%TO.P,Q1,3,S*%
%TO.N,/VSW*%
X92540000Y-66195000D03*
%TD*%
D19*
%TO.P,U2,J1_1,3.3V_J1*%
%TO.N,+3.3V*%
X126147000Y-103890000D03*
D20*
%TO.P,U2,J1_2,GPIO32*%
%TO.N,unconnected-(U2A-GPIO32-PadJ1_2)*%
X123607000Y-103890000D03*
%TO.P,U2,J1_3,GPIO19/SCIRXDB*%
%TO.N,unconnected-(U2A-GPIO19{slash}SCIRXDB-PadJ1_3)*%
X121067000Y-103890000D03*
%TO.P,U2,J1_4,GPIO18/SCITXDB*%
%TO.N,unconnected-(U2A-GPIO18{slash}SCITXDB-PadJ1_4)*%
X118527000Y-103890000D03*
%TO.P,U2,J1_5,GPIO67*%
%TO.N,unconnected-(U2A-GPIO67-PadJ1_5)*%
X115987000Y-103890000D03*
%TO.P,U2,J1_6,GPIO111*%
%TO.N,unconnected-(U2A-GPIO111-PadJ1_6)*%
X113447000Y-103890000D03*
%TO.P,U2,J1_7,GPIO60/SPICLKA*%
%TO.N,unconnected-(U2A-GPIO60{slash}SPICLKA-PadJ1_7)*%
X110907000Y-103890000D03*
%TO.P,U2,J1_8,GPIO22*%
%TO.N,unconnected-(U2A-GPIO22-PadJ1_8)*%
X108367000Y-103890000D03*
%TO.P,U2,J1_9,GPIO105/I2CSCLA*%
%TO.N,unconnected-(U2A-GPIO105{slash}I2CSCLA-PadJ1_9)*%
X105827000Y-103890000D03*
%TO.P,U2,J1_10,GPIO104/I2CSDAA*%
%TO.N,unconnected-(U2A-GPIO104{slash}I2CSDAA-PadJ1_10)*%
X103287000Y-103890000D03*
D19*
%TO.P,U2,J2_1,GPIO29/OPXBAR6*%
%TO.N,unconnected-(U2B-GPIO29{slash}OPXBAR6-PadJ2_1)*%
X103287000Y-149610000D03*
D20*
%TO.P,U2,J2_2,GPIO125/SD1CLK2*%
%TO.N,unconnected-(U2B-GPIO125{slash}SD1CLK2-PadJ2_2)*%
X105827000Y-149610000D03*
%TO.P,U2,J2_3,GPIO124/SD1D2*%
%TO.N,unconnected-(U2B-GPIO124{slash}SD1D2-PadJ2_3)*%
X108367000Y-149610000D03*
%TO.P,U2,J2_4,GPIO59/SPIAMISO*%
%TO.N,unconnected-(U2B-GPIO59{slash}SPIAMISO-PadJ2_4)*%
X110907000Y-149610000D03*
%TO.P,U2,J2_5,GPIO58/SPIAMOSI*%
%TO.N,unconnected-(U2B-GPIO58{slash}SPIAMOSI-PadJ2_5)*%
X113447000Y-149610000D03*
%TO.P,U2,J2_6,~{RESET_J2}*%
%TO.N,unconnected-(U2B-~{RESET_J2}-PadJ2_6)*%
X115987000Y-149610000D03*
%TO.P,U2,J2_7,GPIO122/SD1D1*%
%TO.N,unconnected-(U2B-GPIO122{slash}SD1D1-PadJ2_7)*%
X118527000Y-149610000D03*
%TO.P,U2,J2_8,GPIO123/SD1CLK1*%
%TO.N,unconnected-(U2B-GPIO123{slash}SD1CLK1-PadJ2_8)*%
X121067000Y-149610000D03*
%TO.P,U2,J2_9,GPIO61/SPIACS*%
%TO.N,unconnected-(U2B-GPIO61{slash}SPIACS-PadJ2_9)*%
X123607000Y-149610000D03*
%TO.P,U2,J2_10,GND_J2*%
%TO.N,GND*%
X126147000Y-149610000D03*
D19*
%TO.P,U2,J3_1,+5V_J3*%
%TO.N,unconnected-(U2C-+5V_J3-PadJ3_1)*%
X126147000Y-106430000D03*
D20*
%TO.P,U2,J3_2,GND_J3*%
%TO.N,GND*%
X123607000Y-106430000D03*
%TO.P,U2,J3_3,ADCIN14/ANALOGIN*%
%TO.N,/VFILT*%
X121067000Y-106430000D03*
%TO.P,U2,J3_4,ADCINC3/ANALOGIN*%
%TO.N,unconnected-(U2C-ADCINC3{slash}ANALOGIN-PadJ3_4)*%
X118527000Y-106430000D03*
%TO.P,U2,J3_5,ADCINB3/ANALOGIN*%
%TO.N,unconnected-(U2C-ADCINB3{slash}ANALOGIN-PadJ3_5)*%
X115987000Y-106430000D03*
%TO.P,U2,J3_6,ADCINA3/ANALOGIN*%
%TO.N,unconnected-(U2C-ADCINA3{slash}ANALOGIN-PadJ3_6)*%
X113447000Y-106430000D03*
%TO.P,U2,J3_7,ADCINC2/ANALOGIN*%
%TO.N,unconnected-(U2C-ADCINC2{slash}ANALOGIN-PadJ3_7)*%
X110907000Y-106430000D03*
%TO.P,U2,J3_8,ADCINB2/ANALOGIN*%
%TO.N,unconnected-(U2C-ADCINB2{slash}ANALOGIN-PadJ3_8)*%
X108367000Y-106430000D03*
%TO.P,U2,J3_9,ADCINA2/ANALOGIN*%
%TO.N,unconnected-(U2C-ADCINA2{slash}ANALOGIN-PadJ3_9)*%
X105827000Y-106430000D03*
%TO.P,U2,J3_10,ADCINA0/ANALOGIN(DACA)*%
%TO.N,unconnected-(U2C-ADCINA0{slash}ANALOGIN(DACA)-PadJ3_10)*%
X103287000Y-106430000D03*
D19*
%TO.P,U2,J4_1,PWM/BASED/DAC2*%
%TO.N,unconnected-(U2D-PWM{slash}BASED{slash}DAC2-PadJ4_1)*%
X103287000Y-147070000D03*
D20*
%TO.P,U2,J4_2,PWM/BASED/DAC1*%
%TO.N,unconnected-(U2D-PWM{slash}BASED{slash}DAC1-PadJ4_2)*%
X105827000Y-147070000D03*
%TO.P,U2,J4_3,GPIO16/OPXBAR7*%
%TO.N,unconnected-(U2D-GPIO16{slash}OPXBAR7-PadJ4_3)*%
X108367000Y-147070000D03*
%TO.P,U2,J4_4,GPIO24/OPXBAR1*%
%TO.N,unconnected-(U2D-GPIO24{slash}OPXBAR1-PadJ4_4)*%
X110907000Y-147070000D03*
%TO.P,U2,J4_5,GPIO5/PWMOUT3B*%
%TO.N,unconnected-(U2D-GPIO5{slash}PWMOUT3B-PadJ4_5)*%
X113447000Y-147070000D03*
%TO.P,U2,J4_6,GPIO4/PWMOUT3A*%
%TO.N,unconnected-(U2D-GPIO4{slash}PWMOUT3A-PadJ4_6)*%
X115987000Y-147070000D03*
%TO.P,U2,J4_7,GPIO3/PWMOUT2B*%
%TO.N,unconnected-(U2D-GPIO3{slash}PWMOUT2B-PadJ4_7)*%
X118527000Y-147070000D03*
%TO.P,U2,J4_8,GPIO2//PWMOUT2A*%
%TO.N,unconnected-(U2D-GPIO2{slash}{slash}PWMOUT2A-PadJ4_8)*%
X121067000Y-147070000D03*
%TO.P,U2,J4_9,GPIO1/PWMOUT1B*%
%TO.N,unconnected-(U2D-GPIO1{slash}PWMOUT1B-PadJ4_9)*%
X123607000Y-147070000D03*
%TO.P,U2,J4_10,GPIO0/PWMOUT1A*%
%TO.N,unconnected-(U2D-GPIO0{slash}PWMOUT1A-PadJ4_10)*%
X126147000Y-147070000D03*
D19*
%TO.P,U2,J5_1,3.3V_J5*%
%TO.N,unconnected-(U2E-3.3V_J5-PadJ5_1)*%
X62647000Y-103890000D03*
D20*
%TO.P,U2,J5_2,GPIO95*%
%TO.N,unconnected-(U2E-GPIO95-PadJ5_2)*%
X60107000Y-103890000D03*
%TO.P,U2,J5_3,GPIO139/SCICRX*%
%TO.N,unconnected-(U2E-GPIO139{slash}SCICRX-PadJ5_3)*%
X57567000Y-103890000D03*
%TO.P,U2,J5_4,GPIO56/SCICIX*%
%TO.N,unconnected-(U2E-GPIO56{slash}SCICIX-PadJ5_4)*%
X55027000Y-103890000D03*
%TO.P,U2,J5_5,GPIO97*%
%TO.N,unconnected-(U2E-GPIO97-PadJ5_5)*%
X52487000Y-103890000D03*
%TO.P,U2,J5_6,GPIO94*%
%TO.N,unconnected-(U2E-GPIO94-PadJ5_6)*%
X49947000Y-103890000D03*
%TO.P,U2,J5_7,GPIO65/SPIBCLK*%
%TO.N,unconnected-(U2E-GPIO65{slash}SPIBCLK-PadJ5_7)*%
X47407000Y-103890000D03*
%TO.P,U2,J5_8,GPIO52*%
%TO.N,unconnected-(U2E-GPIO52-PadJ5_8)*%
X44867000Y-103890000D03*
%TO.P,U2,J5_9,GPIO41/I2CSCLB/J5*%
%TO.N,unconnected-(U2E-GPIO41{slash}I2CSCLB{slash}J5-PadJ5_9)*%
X42327000Y-103890000D03*
%TO.P,U2,J5_10,GPIO40/I2CSDAB/J5*%
%TO.N,unconnected-(U2E-GPIO40{slash}I2CSDAB{slash}J5-PadJ5_10)*%
X39787000Y-103890000D03*
D19*
%TO.P,U2,J6_1,GPIO25/OPXBAR2*%
%TO.N,unconnected-(U2F-GPIO25{slash}OPXBAR2-PadJ6_1)*%
X39787000Y-149610000D03*
D20*
%TO.P,U2,J6_2,GPIO27/SD2CLK2*%
%TO.N,unconnected-(U2F-GPIO27{slash}SD2CLK2-PadJ6_2)*%
X42327000Y-149610000D03*
%TO.P,U2,J6_3,GPIO26/SD2D2*%
%TO.N,unconnected-(U2F-GPIO26{slash}SD2D2-PadJ6_3)*%
X44867000Y-149610000D03*
%TO.P,U2,J6_4,GPIO64/SPIBMISO*%
%TO.N,unconnected-(U2F-GPIO64{slash}SPIBMISO-PadJ6_4)*%
X47407000Y-149610000D03*
%TO.P,U2,J6_5,GPIO63/SPIBMOSI*%
%TO.N,unconnected-(U2F-GPIO63{slash}SPIBMOSI-PadJ6_5)*%
X49947000Y-149610000D03*
%TO.P,U2,J6_6,~{RESET_J6}*%
%TO.N,unconnected-(U2F-~{RESET_J6}-PadJ6_6)*%
X52487000Y-149610000D03*
%TO.P,U2,J6_7,GPIO130/SD2D1*%
%TO.N,unconnected-(U2F-GPIO130{slash}SD2D1-PadJ6_7)*%
X55027000Y-149610000D03*
%TO.P,U2,J6_8,GPIO131/SD2CLK1*%
%TO.N,unconnected-(U2F-GPIO131{slash}SD2CLK1-PadJ6_8)*%
X57567000Y-149610000D03*
%TO.P,U2,J6_9,GPIO66/SPIBCS*%
%TO.N,unconnected-(U2F-GPIO66{slash}SPIBCS-PadJ6_9)*%
X60107000Y-149610000D03*
%TO.P,U2,J6_10,GND_J6*%
%TO.N,GND*%
X62647000Y-149610000D03*
D19*
%TO.P,U2,J7_1,+5V_J7*%
%TO.N,+5V*%
X62647000Y-106430000D03*
D20*
%TO.P,U2,J7_2,GND_J7*%
%TO.N,GND*%
X60107000Y-106430000D03*
%TO.P,U2,J7_3,ADCIN15/ANALOGIN*%
%TO.N,unconnected-(U2G-ADCIN15{slash}ANALOGIN-PadJ7_3)*%
X57567000Y-106430000D03*
%TO.P,U2,J7_4,ADCINC5/ANALOGIN*%
%TO.N,unconnected-(U2G-ADCINC5{slash}ANALOGIN-PadJ7_4)*%
X55027000Y-106430000D03*
%TO.P,U2,J7_5,ADCINB5/ANALOGIN*%
%TO.N,unconnected-(U2G-ADCINB5{slash}ANALOGIN-PadJ7_5)*%
X52487000Y-106430000D03*
%TO.P,U2,J7_6,ADCINA5/ANALOGIN*%
%TO.N,unconnected-(U2G-ADCINA5{slash}ANALOGIN-PadJ7_6)*%
X49947000Y-106430000D03*
%TO.P,U2,J7_7,ADCINC4/ANALOGIN*%
%TO.N,unconnected-(U2G-ADCINC4{slash}ANALOGIN-PadJ7_7)*%
X47407000Y-106430000D03*
%TO.P,U2,J7_8,ADCINB4/ANALOGIN*%
%TO.N,unconnected-(U2G-ADCINB4{slash}ANALOGIN-PadJ7_8)*%
X44867000Y-106430000D03*
%TO.P,U2,J7_9,ADCINA4/ANALOGIN*%
%TO.N,unconnected-(U2G-ADCINA4{slash}ANALOGIN-PadJ7_9)*%
X42327000Y-106430000D03*
%TO.P,U2,J7_10,ADCINA1/ANALOGIN(DACB)*%
%TO.N,unconnected-(U2G-ADCINA1{slash}ANALOGIN(DACB)-PadJ7_10)*%
X39787000Y-106430000D03*
D19*
%TO.P,U2,J8_1,PWM/BASED/DAC4*%
%TO.N,unconnected-(U2H-PWM{slash}BASED{slash}DAC4-PadJ8_1)*%
X39787000Y-147070000D03*
D20*
%TO.P,U2,J8_2,PWM/BASED/DAC3*%
%TO.N,unconnected-(U2H-PWM{slash}BASED{slash}DAC3-PadJ8_2)*%
X42327000Y-147070000D03*
%TO.P,U2,J8_3,GPIO15/OPXBAR4*%
%TO.N,unconnected-(U2H-GPIO15{slash}OPXBAR4-PadJ8_3)*%
X44867000Y-147070000D03*
%TO.P,U2,J8_4,GPIO14/OPXBAR3*%
%TO.N,unconnected-(U2H-GPIO14{slash}OPXBAR3-PadJ8_4)*%
X47407000Y-147070000D03*
%TO.P,U2,J8_5,GPIO11/PWMOUT6B*%
%TO.N,/PWM*%
X49947000Y-147070000D03*
%TO.P,U2,J8_6,GPIO10/PWMOUT6A*%
%TO.N,unconnected-(U2H-GPIO10{slash}PWMOUT6A-PadJ8_6)*%
X52487000Y-147070000D03*
%TO.P,U2,J8_7,GPIO9/PWMOUT5B*%
%TO.N,unconnected-(U2H-GPIO9{slash}PWMOUT5B-PadJ8_7)*%
X55027000Y-147070000D03*
%TO.P,U2,J8_8,GPIO8/PWMOUT5A*%
%TO.N,unconnected-(U2H-GPIO8{slash}PWMOUT5A-PadJ8_8)*%
X57567000Y-147070000D03*
%TO.P,U2,J8_9,GPIO7/PWMOUT4B*%
%TO.N,unconnected-(U2H-GPIO7{slash}PWMOUT4B-PadJ8_9)*%
X60107000Y-147070000D03*
%TO.P,U2,J8_10,GPIO6/PWMOUT4A*%
%TO.N,unconnected-(U2H-GPIO6{slash}PWMOUT4A-PadJ8_10)*%
X62647000Y-147070000D03*
D21*
%TO.P,U2,J10_1,+3V_J10*%
%TO.N,unconnected-(U2I-+3V_J10-PadJ10_1)*%
X29627000Y-149610000D03*
D22*
%TO.P,U2,J10_2,GND_J10*%
%TO.N,GND*%
X32167000Y-149610000D03*
%TO.P,U2,J10_3,GND_J10__1*%
X34707000Y-149610000D03*
D21*
%TO.P,U2,J12_1,CANH*%
%TO.N,unconnected-(U2J-CANH-PadJ12_1)*%
X29627000Y-114050000D03*
D22*
%TO.P,U2,J12_2,CANL*%
%TO.N,unconnected-(U2J-CANL-PadJ12_2)*%
X29627000Y-111510000D03*
%TO.P,U2,J12_3,GND_J12*%
%TO.N,GND*%
X29627000Y-108970000D03*
D21*
%TO.P,U2,J14_1,EQEP1A*%
%TO.N,unconnected-(U2K-EQEP1A-PadJ14_1)*%
X29627000Y-144530000D03*
D22*
%TO.P,U2,J14_2,EQEP1B*%
%TO.N,unconnected-(U2K-EQEP1B-PadJ14_2)*%
X29627000Y-141990000D03*
%TO.P,U2,J14_3,EQEP1I*%
%TO.N,unconnected-(U2K-EQEP1I-PadJ14_3)*%
X29627000Y-139450000D03*
%TO.P,U2,J14_4,+5V_J14*%
%TO.N,unconnected-(U2K-+5V_J14-PadJ14_4)*%
X29627000Y-136910000D03*
%TO.P,U2,J14_5,GND_J14*%
%TO.N,GND*%
X29627000Y-134370000D03*
D21*
%TO.P,U2,J15_1,EQEP2A*%
%TO.N,unconnected-(U2L-EQEP2A-PadJ15_1)*%
X29627000Y-129290000D03*
D22*
%TO.P,U2,J15_2,EQEP2B*%
%TO.N,unconnected-(U2L-EQEP2B-PadJ15_2)*%
X29627000Y-126750000D03*
%TO.P,U2,J15_3,EQEP2I*%
%TO.N,unconnected-(U2L-EQEP2I-PadJ15_3)*%
X29627000Y-124210000D03*
%TO.P,U2,J15_4,+5V_J15*%
%TO.N,unconnected-(U2L-+5V_J15-PadJ15_4)*%
X29627000Y-121670000D03*
%TO.P,U2,J15_5,GND_J15*%
%TO.N,unconnected-(U2L-GND_J15-PadJ15_5)*%
X29627000Y-119130000D03*
D21*
%TO.P,U2,J16_1,+5V_J16*%
%TO.N,unconnected-(U2N-+5V_J16-PadJ16_1)*%
X29627000Y-103890000D03*
D22*
%TO.P,U2,J16_2,GND_J16*%
%TO.N,GND*%
X32167000Y-103890000D03*
%TO.P,U2,J16_3,GND_J16__1*%
X34707000Y-103890000D03*
D23*
%TO.P,U2,J21_1,ADCIND0*%
%TO.N,unconnected-(U2M-ADCIND0-PadJ21_1)*%
X99803000Y-106664000D03*
D24*
%TO.P,U2,J21_2,TP21/GND*%
%TO.N,GND*%
X99803000Y-104124000D03*
%TO.P,U2,J21_3,ADCIND1*%
%TO.N,unconnected-(U2M-ADCIND1-PadJ21_3)*%
X97263000Y-106664000D03*
%TO.P,U2,J21_4,TP22/GND*%
%TO.N,GND*%
X97263000Y-104124000D03*
%TO.P,U2,J21_5,ADCIND2*%
%TO.N,unconnected-(U2M-ADCIND2-PadJ21_5)*%
X94723000Y-106664000D03*
%TO.P,U2,J21_6,TP23/GND*%
%TO.N,GND*%
X94723000Y-104124000D03*
%TO.P,U2,J21_7,ADCIND3*%
%TO.N,unconnected-(U2M-ADCIND3-PadJ21_7)*%
X92183000Y-106664000D03*
%TO.P,U2,J21_8,TP24/GND*%
%TO.N,GND*%
X92183000Y-104124000D03*
%TD*%
D16*
%TO.P,L1,1,1*%
%TO.N,/VSW*%
X104950000Y-66250000D03*
D25*
%TO.P,L1,2,2*%
%TO.N,/VOUT*%
X136950000Y-66250000D03*
%TD*%
D10*
%TO.P,J2,1,Pin_1*%
%TO.N,GND*%
X143500000Y-53000000D03*
%TD*%
%TO.P,J3,1,Pin_1*%
%TO.N,/VOUT*%
X131000000Y-33000000D03*
%TD*%
D26*
%TO.N,GND*%
X46000000Y-95250000D03*
X50000000Y-78750000D03*
X45000000Y-100750000D03*
X39000000Y-90250000D03*
X47500000Y-81750000D03*
%TO.N,/VFILT*%
X134125000Y-91125000D03*
%TO.N,/VSW*%
X86000000Y-72750000D03*
%TD*%
D27*
%TO.N,/VFILT*%
X121067000Y-106430000D02*
X123637000Y-109000000D01*
X132000000Y-93250000D02*
X132000000Y-109000000D01*
X134125000Y-91125000D02*
X132000000Y-93250000D01*
D28*
X121067000Y-106317000D02*
X121000000Y-106250000D01*
X121067000Y-106430000D02*
X121067000Y-106317000D01*
D27*
X123637000Y-109000000D02*
X132000000Y-109000000D01*
D29*
%TO.N,/VSW*%
X92540000Y-66195000D02*
X92540000Y-68195000D01*
X91985000Y-68750000D02*
X88500000Y-68750000D01*
X92540000Y-65926248D02*
X92540000Y-66710000D01*
X88500000Y-68750000D02*
X86000000Y-71250000D01*
X86000000Y-71250000D02*
X86000000Y-72750000D01*
X92540000Y-66195000D02*
X92540000Y-65926248D01*
X92540000Y-68195000D02*
X91985000Y-68750000D01*
%TD*%
%TA.AperFunction,Conductor*%
%TO.N,GND*%
G36*
X61458904Y-147893071D02*
G01*
X61480809Y-147918350D01*
X61506506Y-147957682D01*
X61668168Y-148133295D01*
X61808021Y-148242146D01*
X61808427Y-148242462D01*
X61849240Y-148299173D01*
X61852915Y-148368946D01*
X61820006Y-148426610D01*
X61819840Y-148429287D01*
X62511058Y-149120504D01*
X62450919Y-149136619D01*
X62335080Y-149203498D01*
X62240498Y-149298080D01*
X62173619Y-149413919D01*
X62157504Y-149474057D01*
X61467057Y-148783609D01*
X61454366Y-148784925D01*
X61427955Y-148807464D01*
X61358723Y-148816885D01*
X61295388Y-148787381D01*
X61273488Y-148762105D01*
X61247495Y-148722320D01*
X61247494Y-148722318D01*
X61085832Y-148546705D01*
X60945978Y-148437853D01*
X60905166Y-148381143D01*
X60901491Y-148311370D01*
X60936122Y-148250687D01*
X60945979Y-148242146D01*
X61085832Y-148133295D01*
X61247494Y-147957682D01*
X61273191Y-147918350D01*
X61326337Y-147872993D01*
X61395568Y-147863569D01*
X61458904Y-147893071D01*
G37*
%TD.AperFunction*%
%TA.AperFunction,Conductor*%
G36*
X124958904Y-147893071D02*
G01*
X124980809Y-147918350D01*
X125006506Y-147957682D01*
X125168168Y-148133295D01*
X125308021Y-148242146D01*
X125308427Y-148242462D01*
X125349240Y-148299173D01*
X125352915Y-148368946D01*
X125320006Y-148426610D01*
X125319840Y-148429287D01*
X126011058Y-149120504D01*
X125950919Y-149136619D01*
X125835080Y-149203498D01*
X125740498Y-149298080D01*
X125673619Y-149413919D01*
X125657504Y-149474057D01*
X124967057Y-148783609D01*
X124954366Y-148784925D01*
X124927955Y-148807464D01*
X124858723Y-148816885D01*
X124795388Y-148787381D01*
X124773488Y-148762105D01*
X124747495Y-148722320D01*
X124747494Y-148722318D01*
X124585832Y-148546705D01*
X124445978Y-148437853D01*
X124405166Y-148381143D01*
X124401491Y-148311370D01*
X124436122Y-148250687D01*
X124445979Y-148242146D01*
X124585832Y-148133295D01*
X124747494Y-147957682D01*
X124773191Y-147918350D01*
X124826337Y-147872993D01*
X124895568Y-147863569D01*
X124958904Y-147893071D01*
G37*
%TD.AperFunction*%
%TA.AperFunction,Conductor*%
G36*
X122418904Y-104713071D02*
G01*
X122440809Y-104738350D01*
X122466506Y-104777682D01*
X122628168Y-104953295D01*
X122704965Y-105013068D01*
X122768427Y-105062462D01*
X122809240Y-105119173D01*
X122812915Y-105188946D01*
X122780006Y-105246610D01*
X122779840Y-105249287D01*
X123471058Y-105940504D01*
X123410919Y-105956619D01*
X123295080Y-106023498D01*
X123200498Y-106118080D01*
X123133619Y-106233919D01*
X123117504Y-106294058D01*
X122427057Y-105603609D01*
X122414366Y-105604925D01*
X122387955Y-105627464D01*
X122318723Y-105636885D01*
X122255388Y-105607381D01*
X122233488Y-105582105D01*
X122233192Y-105581652D01*
X122207494Y-105542318D01*
X122045832Y-105366705D01*
X121905978Y-105257853D01*
X121865166Y-105201143D01*
X121861491Y-105131370D01*
X121896122Y-105070687D01*
X121905979Y-105062146D01*
X122045832Y-104953295D01*
X122207494Y-104777682D01*
X122233191Y-104738350D01*
X122286337Y-104692993D01*
X122355568Y-104683569D01*
X122418904Y-104713071D01*
G37*
%TD.AperFunction*%
%TA.AperFunction,Conductor*%
G36*
X124689326Y-104964600D02*
G01*
X124739651Y-105013068D01*
X124748136Y-105031196D01*
X124763402Y-105072128D01*
X124763405Y-105072134D01*
X124773554Y-105085691D01*
X124797970Y-105151155D01*
X124783117Y-105219428D01*
X124773554Y-105234309D01*
X124763405Y-105247865D01*
X124763402Y-105247871D01*
X124713108Y-105382717D01*
X124706701Y-105442316D01*
X124706701Y-105442323D01*
X124706700Y-105442335D01*
X124706700Y-105632491D01*
X124687015Y-105699530D01*
X124670381Y-105720172D01*
X124096495Y-106294057D01*
X124080381Y-106233919D01*
X124013502Y-106118080D01*
X123918920Y-106023498D01*
X123803081Y-105956619D01*
X123742941Y-105940504D01*
X124434159Y-105249287D01*
X124433685Y-105241653D01*
X124404757Y-105201456D01*
X124401085Y-105131683D01*
X124435718Y-105071000D01*
X124445559Y-105062473D01*
X124555794Y-104976674D01*
X124620786Y-104951033D01*
X124689326Y-104964600D01*
G37*
%TD.AperFunction*%
%TA.AperFunction,Conductor*%
G36*
X94257075Y-104316993D02*
G01*
X94322901Y-104431007D01*
X94415993Y-104524099D01*
X94530007Y-104589925D01*
X94593590Y-104606962D01*
X94033427Y-105167124D01*
X94095613Y-105210667D01*
X94095615Y-105210668D01*
X94247174Y-105281341D01*
X94299614Y-105327513D01*
X94318766Y-105394706D01*
X94298551Y-105461588D01*
X94247176Y-105506105D01*
X94095358Y-105576900D01*
X94095357Y-105576900D01*
X93916121Y-105702402D01*
X93761402Y-105857121D01*
X93635900Y-106036357D01*
X93635898Y-106036361D01*
X93565382Y-106187583D01*
X93519209Y-106240022D01*
X93452016Y-106259174D01*
X93385135Y-106238958D01*
X93340618Y-106187583D01*
X93308208Y-106118080D01*
X93270102Y-106036362D01*
X93270100Y-106036359D01*
X93270099Y-106036357D01*
X93144599Y-105857124D01*
X93093991Y-105806516D01*
X92989877Y-105702402D01*
X92848786Y-105603609D01*
X92810638Y-105576897D01*
X92658824Y-105506105D01*
X92606385Y-105459932D01*
X92587233Y-105392739D01*
X92607449Y-105325858D01*
X92658825Y-105281340D01*
X92810388Y-105210666D01*
X92872571Y-105167124D01*
X92312410Y-104606962D01*
X92375993Y-104589925D01*
X92490007Y-104524099D01*
X92583099Y-104431007D01*
X92648925Y-104316993D01*
X92665962Y-104253409D01*
X93226124Y-104813570D01*
X93269668Y-104751385D01*
X93269669Y-104751383D01*
X93340618Y-104599233D01*
X93386790Y-104546793D01*
X93453983Y-104527641D01*
X93520865Y-104547856D01*
X93565382Y-104599232D01*
X93636333Y-104751387D01*
X93679874Y-104813571D01*
X94240037Y-104253408D01*
X94257075Y-104316993D01*
G37*
%TD.AperFunction*%
%TA.AperFunction,Conductor*%
G36*
X96797075Y-104316993D02*
G01*
X96862901Y-104431007D01*
X96955993Y-104524099D01*
X97070007Y-104589925D01*
X97133590Y-104606962D01*
X96573427Y-105167124D01*
X96635613Y-105210667D01*
X96635615Y-105210668D01*
X96787174Y-105281341D01*
X96839614Y-105327513D01*
X96858766Y-105394706D01*
X96838551Y-105461588D01*
X96787176Y-105506105D01*
X96635358Y-105576900D01*
X96635357Y-105576900D01*
X96456121Y-105702402D01*
X96301402Y-105857121D01*
X96175900Y-106036357D01*
X96175898Y-106036361D01*
X96105382Y-106187583D01*
X96059209Y-106240022D01*
X95992016Y-106259174D01*
X95925135Y-106238958D01*
X95880618Y-106187583D01*
X95848208Y-106118080D01*
X95810102Y-106036362D01*
X95810100Y-106036359D01*
X95810099Y-106036357D01*
X95684599Y-105857124D01*
X95633991Y-105806516D01*
X95529877Y-105702402D01*
X95388786Y-105603609D01*
X95350638Y-105576897D01*
X95198824Y-105506105D01*
X95146385Y-105459932D01*
X95127233Y-105392739D01*
X95147449Y-105325858D01*
X95198825Y-105281340D01*
X95350388Y-105210666D01*
X95412571Y-105167124D01*
X94852410Y-104606962D01*
X94915993Y-104589925D01*
X95030007Y-104524099D01*
X95123099Y-104431007D01*
X95188925Y-104316993D01*
X95205962Y-104253409D01*
X95766124Y-104813570D01*
X95809668Y-104751385D01*
X95809669Y-104751383D01*
X95880618Y-104599233D01*
X95926790Y-104546793D01*
X95993983Y-104527641D01*
X96060865Y-104547856D01*
X96105382Y-104599232D01*
X96176333Y-104751387D01*
X96219874Y-104813571D01*
X96780037Y-104253408D01*
X96797075Y-104316993D01*
G37*
%TD.AperFunction*%
%TA.AperFunction,Conductor*%
G36*
X99337075Y-104316993D02*
G01*
X99402901Y-104431007D01*
X99495993Y-104524099D01*
X99610007Y-104589925D01*
X99673590Y-104606962D01*
X99113427Y-105167124D01*
X99143134Y-105187925D01*
X99186759Y-105242502D01*
X99193953Y-105312000D01*
X99162430Y-105374355D01*
X99102201Y-105409769D01*
X99072013Y-105413500D01*
X99005130Y-105413500D01*
X99005123Y-105413501D01*
X98945516Y-105419908D01*
X98810671Y-105470202D01*
X98810664Y-105470206D01*
X98695455Y-105556452D01*
X98695452Y-105556455D01*
X98609206Y-105671664D01*
X98609202Y-105671671D01*
X98558908Y-105806517D01*
X98553468Y-105857121D01*
X98552501Y-105866123D01*
X98552500Y-105866135D01*
X98552500Y-105932138D01*
X98532815Y-105999177D01*
X98480011Y-106044932D01*
X98410853Y-106054876D01*
X98347297Y-106025851D01*
X98326925Y-106003261D01*
X98224599Y-105857124D01*
X98173991Y-105806516D01*
X98069877Y-105702402D01*
X97928786Y-105603609D01*
X97890638Y-105576897D01*
X97738824Y-105506105D01*
X97686385Y-105459932D01*
X97667233Y-105392739D01*
X97687449Y-105325858D01*
X97738825Y-105281340D01*
X97890388Y-105210666D01*
X97952571Y-105167124D01*
X97392410Y-104606962D01*
X97455993Y-104589925D01*
X97570007Y-104524099D01*
X97663099Y-104431007D01*
X97728925Y-104316993D01*
X97745962Y-104253409D01*
X98306124Y-104813570D01*
X98349668Y-104751385D01*
X98349669Y-104751383D01*
X98420618Y-104599233D01*
X98466790Y-104546793D01*
X98533983Y-104527641D01*
X98600865Y-104547856D01*
X98645382Y-104599232D01*
X98716333Y-104751387D01*
X98759874Y-104813571D01*
X99320037Y-104253408D01*
X99337075Y-104316993D01*
G37*
%TD.AperFunction*%
%TA.AperFunction,Conductor*%
G36*
X58918904Y-104713071D02*
G01*
X58940809Y-104738350D01*
X58966506Y-104777682D01*
X59128168Y-104953295D01*
X59204965Y-105013068D01*
X59268427Y-105062462D01*
X59309240Y-105119173D01*
X59312915Y-105188946D01*
X59280006Y-105246610D01*
X59279840Y-105249287D01*
X59971058Y-105940504D01*
X59910919Y-105956619D01*
X59795080Y-106023498D01*
X59700498Y-106118080D01*
X59633619Y-106233919D01*
X59617504Y-106294057D01*
X58927057Y-105603609D01*
X58914366Y-105604925D01*
X58887955Y-105627464D01*
X58818723Y-105636885D01*
X58755388Y-105607381D01*
X58733488Y-105582105D01*
X58733192Y-105581652D01*
X58707494Y-105542318D01*
X58545832Y-105366705D01*
X58405978Y-105257853D01*
X58365166Y-105201143D01*
X58361491Y-105131370D01*
X58396122Y-105070687D01*
X58405979Y-105062146D01*
X58545832Y-104953295D01*
X58707494Y-104777682D01*
X58733191Y-104738350D01*
X58786337Y-104692993D01*
X58855568Y-104683569D01*
X58918904Y-104713071D01*
G37*
%TD.AperFunction*%
%TA.AperFunction,Conductor*%
G36*
X61189326Y-104964600D02*
G01*
X61239651Y-105013068D01*
X61248136Y-105031196D01*
X61263402Y-105072128D01*
X61263405Y-105072134D01*
X61273554Y-105085691D01*
X61297970Y-105151155D01*
X61283117Y-105219428D01*
X61273554Y-105234309D01*
X61263405Y-105247865D01*
X61263402Y-105247871D01*
X61213108Y-105382717D01*
X61206701Y-105442316D01*
X61206701Y-105442323D01*
X61206700Y-105442335D01*
X61206700Y-105632491D01*
X61187015Y-105699530D01*
X61170381Y-105720172D01*
X60596495Y-106294057D01*
X60580381Y-106233919D01*
X60513502Y-106118080D01*
X60418920Y-106023498D01*
X60303081Y-105956619D01*
X60242941Y-105940504D01*
X60934159Y-105249287D01*
X60933685Y-105241653D01*
X60904757Y-105201456D01*
X60901085Y-105131683D01*
X60935718Y-105071000D01*
X60945559Y-105062473D01*
X61055794Y-104976674D01*
X61120786Y-104951033D01*
X61189326Y-104964600D01*
G37*
%TD.AperFunction*%
%TA.AperFunction,Conductor*%
G36*
X157016177Y-23520185D02*
G01*
X157036819Y-23536819D01*
X160963181Y-27463181D01*
X160996666Y-27524504D01*
X160999500Y-27550862D01*
X160999500Y-168949138D01*
X160979815Y-169016177D01*
X160963181Y-169036819D01*
X157036819Y-172963181D01*
X156975496Y-172996666D01*
X156949138Y-172999500D01*
X30550862Y-172999500D01*
X30483823Y-172979815D01*
X30463181Y-172963181D01*
X26536819Y-169036819D01*
X26503334Y-168975496D01*
X26500500Y-168949138D01*
X26500500Y-162852486D01*
X30249500Y-162852486D01*
X30249500Y-163147513D01*
X30281571Y-163391113D01*
X30288007Y-163439993D01*
X30288008Y-163439995D01*
X30364361Y-163724951D01*
X30364364Y-163724961D01*
X30477254Y-163997500D01*
X30477258Y-163997510D01*
X30624761Y-164252993D01*
X30804352Y-164487040D01*
X30804358Y-164487047D01*
X31012952Y-164695641D01*
X31012959Y-164695647D01*
X31247006Y-164875238D01*
X31502489Y-165022741D01*
X31502490Y-165022741D01*
X31502493Y-165022743D01*
X31775048Y-165135639D01*
X32060007Y-165211993D01*
X32352494Y-165250500D01*
X32352501Y-165250500D01*
X32647499Y-165250500D01*
X32647506Y-165250500D01*
X32939993Y-165211993D01*
X33224952Y-165135639D01*
X33497507Y-165022743D01*
X33752994Y-164875238D01*
X33987042Y-164695646D01*
X34195646Y-164487042D01*
X34375238Y-164252994D01*
X34522743Y-163997507D01*
X34635639Y-163724952D01*
X34711993Y-163439993D01*
X34750500Y-163147506D01*
X34750500Y-162852494D01*
X34750499Y-162852486D01*
X152749500Y-162852486D01*
X152749500Y-163147513D01*
X152781571Y-163391113D01*
X152788007Y-163439993D01*
X152788008Y-163439995D01*
X152864361Y-163724951D01*
X152864364Y-163724961D01*
X152977254Y-163997500D01*
X152977258Y-163997510D01*
X153124761Y-164252993D01*
X153304352Y-164487040D01*
X153304358Y-164487047D01*
X153512952Y-164695641D01*
X153512959Y-164695647D01*
X153747006Y-164875238D01*
X154002489Y-165022741D01*
X154002490Y-165022741D01*
X154002493Y-165022743D01*
X154275048Y-165135639D01*
X154560007Y-165211993D01*
X154852494Y-165250500D01*
X154852501Y-165250500D01*
X155147499Y-165250500D01*
X155147506Y-165250500D01*
X155439993Y-165211993D01*
X155724952Y-165135639D01*
X155997507Y-165022743D01*
X156252994Y-164875238D01*
X156487042Y-164695646D01*
X156695646Y-164487042D01*
X156875238Y-164252994D01*
X157022743Y-163997507D01*
X157135639Y-163724952D01*
X157211993Y-163439993D01*
X157250500Y-163147506D01*
X157250500Y-162852494D01*
X157211993Y-162560007D01*
X157135639Y-162275048D01*
X157022743Y-162002493D01*
X156875238Y-161747006D01*
X156695646Y-161512958D01*
X156695641Y-161512952D01*
X156487047Y-161304358D01*
X156487040Y-161304352D01*
X156252993Y-161124761D01*
X155997510Y-160977258D01*
X155997500Y-160977254D01*
X155724961Y-160864364D01*
X155724954Y-160864362D01*
X155724952Y-160864361D01*
X155439993Y-160788007D01*
X155391113Y-160781571D01*
X155147513Y-160749500D01*
X155147506Y-160749500D01*
X154852494Y-160749500D01*
X154852486Y-160749500D01*
X154574085Y-160786153D01*
X154560007Y-160788007D01*
X154275048Y-160864361D01*
X154275038Y-160864364D01*
X154002499Y-160977254D01*
X154002489Y-160977258D01*
X153747006Y-161124761D01*
X153512959Y-161304352D01*
X153512952Y-161304358D01*
X153304358Y-161512952D01*
X153304352Y-161512959D01*
X153124761Y-161747006D01*
X152977258Y-162002489D01*
X152977254Y-162002499D01*
X152864364Y-162275038D01*
X152864361Y-162275048D01*
X152788008Y-162560004D01*
X152788006Y-162560015D01*
X152749500Y-162852486D01*
X34750499Y-162852486D01*
X34711993Y-162560007D01*
X34635639Y-162275048D01*
X34522743Y-162002493D01*
X34375238Y-161747006D01*
X34195646Y-161512958D01*
X34195641Y-161512952D01*
X33987047Y-161304358D01*
X33987040Y-161304352D01*
X33752993Y-161124761D01*
X33497510Y-160977258D01*
X33497500Y-160977254D01*
X33224961Y-160864364D01*
X33224954Y-160864362D01*
X33224952Y-160864361D01*
X32939993Y-160788007D01*
X32891113Y-160781571D01*
X32647513Y-160749500D01*
X32647506Y-160749500D01*
X32352494Y-160749500D01*
X32352486Y-160749500D01*
X32074085Y-160786153D01*
X32060007Y-160788007D01*
X31775048Y-160864361D01*
X31775038Y-160864364D01*
X31502499Y-160977254D01*
X31502489Y-160977258D01*
X31247006Y-161124761D01*
X31012959Y-161304352D01*
X31012952Y-161304358D01*
X30804358Y-161512952D01*
X30804352Y-161512959D01*
X30624761Y-161747006D01*
X30477258Y-162002489D01*
X30477254Y-162002499D01*
X30364364Y-162275038D01*
X30364361Y-162275048D01*
X30288008Y-162560004D01*
X30288006Y-162560015D01*
X30249500Y-162852486D01*
X26500500Y-162852486D01*
X26500500Y-153299530D01*
X29059000Y-153299530D01*
X29059000Y-153540469D01*
X29090447Y-153779341D01*
X29152808Y-154012073D01*
X29245006Y-154234662D01*
X29245011Y-154234671D01*
X29365480Y-154443329D01*
X29365483Y-154443334D01*
X29365485Y-154443336D01*
X29512151Y-154634476D01*
X29512157Y-154634483D01*
X29682516Y-154804842D01*
X29682522Y-154804847D01*
X29873671Y-154951520D01*
X30082329Y-155071989D01*
X30082332Y-155071990D01*
X30082337Y-155071993D01*
X30202424Y-155121734D01*
X30304927Y-155164192D01*
X30537655Y-155226552D01*
X30716812Y-155250138D01*
X30776530Y-155258000D01*
X30776531Y-155258000D01*
X31017470Y-155258000D01*
X31065244Y-155251710D01*
X31256345Y-155226552D01*
X31489073Y-155164192D01*
X31664053Y-155091712D01*
X31711662Y-155071993D01*
X31711663Y-155071991D01*
X31711671Y-155071989D01*
X31920329Y-154951520D01*
X32111478Y-154804847D01*
X32281847Y-154634478D01*
X32428520Y-154443329D01*
X32548989Y-154234671D01*
X32641192Y-154012073D01*
X32703552Y-153779345D01*
X32735000Y-153540469D01*
X32735000Y-153299531D01*
X32735000Y-153299530D01*
X153519000Y-153299530D01*
X153519000Y-153540469D01*
X153550447Y-153779341D01*
X153612808Y-154012073D01*
X153705006Y-154234662D01*
X153705011Y-154234671D01*
X153825480Y-154443329D01*
X153825483Y-154443334D01*
X153825485Y-154443336D01*
X153972151Y-154634476D01*
X153972157Y-154634483D01*
X154142516Y-154804842D01*
X154142522Y-154804847D01*
X154333671Y-154951520D01*
X154542329Y-155071989D01*
X154542332Y-155071990D01*
X154542337Y-155071993D01*
X154662424Y-155121734D01*
X154764927Y-155164192D01*
X154997655Y-155226552D01*
X155176812Y-155250138D01*
X155236530Y-155258000D01*
X155236531Y-155258000D01*
X155477470Y-155258000D01*
X155525244Y-155251710D01*
X155716345Y-155226552D01*
X155949073Y-155164192D01*
X156124053Y-155091712D01*
X156171662Y-155071993D01*
X156171663Y-155071991D01*
X156171671Y-155071989D01*
X156380329Y-154951520D01*
X156571478Y-154804847D01*
X156741847Y-154634478D01*
X156888520Y-154443329D01*
X157008989Y-154234671D01*
X157101192Y-154012073D01*
X157163552Y-153779345D01*
X157195000Y-153540469D01*
X157195000Y-153299531D01*
X157163552Y-153060655D01*
X157101192Y-152827927D01*
X157058734Y-152725424D01*
X157008993Y-152605337D01*
X157008988Y-152605328D01*
X156888520Y-152396671D01*
X156741847Y-152205522D01*
X156741842Y-152205516D01*
X156571483Y-152035157D01*
X156571476Y-152035151D01*
X156380336Y-151888485D01*
X156380334Y-151888483D01*
X156380329Y-151888480D01*
X156171671Y-151768011D01*
X156171662Y-151768006D01*
X155949073Y-151675808D01*
X155716341Y-151613447D01*
X155477470Y-151582000D01*
X155477469Y-151582000D01*
X155236531Y-151582000D01*
X155236530Y-151582000D01*
X154997658Y-151613447D01*
X154764926Y-151675808D01*
X154542337Y-151768006D01*
X154542328Y-151768011D01*
X154416644Y-151840575D01*
X154333671Y-151888480D01*
X154333668Y-151888481D01*
X154333663Y-151888485D01*
X154142523Y-152035151D01*
X154142516Y-152035157D01*
X153972157Y-152205516D01*
X153972151Y-152205523D01*
X153825485Y-152396663D01*
X153705011Y-152605328D01*
X153705006Y-152605337D01*
X153612808Y-152827926D01*
X153550447Y-153060658D01*
X153519000Y-153299530D01*
X32735000Y-153299530D01*
X32703552Y-153060655D01*
X32641192Y-152827927D01*
X32598734Y-152725424D01*
X32548993Y-152605337D01*
X32548988Y-152605328D01*
X32428520Y-152396671D01*
X32281847Y-152205522D01*
X32281842Y-152205516D01*
X32111483Y-152035157D01*
X32111476Y-152035151D01*
X31920336Y-151888485D01*
X31920334Y-151888483D01*
X31920329Y-151888480D01*
X31711671Y-151768011D01*
X31711662Y-151768006D01*
X31489073Y-151675808D01*
X31256341Y-151613447D01*
X31017470Y-151582000D01*
X31017469Y-151582000D01*
X30776531Y-151582000D01*
X30776530Y-151582000D01*
X30537658Y-151613447D01*
X30304926Y-151675808D01*
X30082337Y-151768006D01*
X30082328Y-151768011D01*
X29956644Y-151840575D01*
X29873671Y-151888480D01*
X29873668Y-151888481D01*
X29873663Y-151888485D01*
X29682523Y-152035151D01*
X29682516Y-152035157D01*
X29512157Y-152205516D01*
X29512151Y-152205523D01*
X29365485Y-152396663D01*
X29245011Y-152605328D01*
X29245006Y-152605337D01*
X29152808Y-152827926D01*
X29090447Y-153060658D01*
X29059000Y-153299530D01*
X26500500Y-153299530D01*
X26500500Y-148800135D01*
X28364500Y-148800135D01*
X28364500Y-150419870D01*
X28364501Y-150419876D01*
X28370908Y-150479483D01*
X28421202Y-150614328D01*
X28421206Y-150614335D01*
X28507452Y-150729544D01*
X28507455Y-150729547D01*
X28622664Y-150815793D01*
X28622671Y-150815797D01*
X28757517Y-150866091D01*
X28757516Y-150866091D01*
X28764444Y-150866835D01*
X28817127Y-150872500D01*
X30436872Y-150872499D01*
X30496483Y-150866091D01*
X30631331Y-150815796D01*
X30746546Y-150729546D01*
X30832796Y-150614331D01*
X30883091Y-150479483D01*
X30889500Y-150419873D01*
X30889499Y-150379048D01*
X30909182Y-150312012D01*
X30961985Y-150266256D01*
X31031143Y-150256311D01*
X31094700Y-150285334D01*
X31115074Y-150307925D01*
X31115258Y-150308187D01*
X31115258Y-150308188D01*
X31677504Y-149745941D01*
X31693619Y-149806081D01*
X31760498Y-149921920D01*
X31855080Y-150016502D01*
X31970919Y-150083381D01*
X32031057Y-150099494D01*
X31468810Y-150661740D01*
X31533590Y-150707099D01*
X31533592Y-150707100D01*
X31733715Y-150800419D01*
X31733729Y-150800424D01*
X31947013Y-150857573D01*
X31947023Y-150857575D01*
X32166999Y-150876821D01*
X32167001Y-150876821D01*
X32386976Y-150857575D01*
X32386986Y-150857573D01*
X32600270Y-150800424D01*
X32600284Y-150800419D01*
X32800407Y-150707100D01*
X32800417Y-150707094D01*
X32865188Y-150661741D01*
X32302942Y-150099494D01*
X32363081Y-150083381D01*
X32478920Y-150016502D01*
X32573502Y-149921920D01*
X32640381Y-149806081D01*
X32656495Y-149745942D01*
X33218741Y-150308188D01*
X33264094Y-150243417D01*
X33264100Y-150243407D01*
X33324618Y-150113627D01*
X33370790Y-150061187D01*
X33437983Y-150042035D01*
X33504865Y-150062251D01*
X33549382Y-150113627D01*
X33609898Y-150243405D01*
X33609901Y-150243411D01*
X33655258Y-150308187D01*
X33655258Y-150308188D01*
X34217504Y-149745941D01*
X34233619Y-149806081D01*
X34300498Y-149921920D01*
X34395080Y-150016502D01*
X34510919Y-150083381D01*
X34571057Y-150099494D01*
X34008810Y-150661740D01*
X34073590Y-150707099D01*
X34073592Y-150707100D01*
X34273715Y-150800419D01*
X34273729Y-150800424D01*
X34487013Y-150857573D01*
X34487023Y-150857575D01*
X34706999Y-150876821D01*
X34707001Y-150876821D01*
X34926976Y-150857575D01*
X34926986Y-150857573D01*
X35140270Y-150800424D01*
X35140284Y-150800419D01*
X35340407Y-150707100D01*
X35340417Y-150707094D01*
X35405188Y-150661741D01*
X34842942Y-150099494D01*
X34903081Y-150083381D01*
X35018920Y-150016502D01*
X35113502Y-149921920D01*
X35180381Y-149806081D01*
X35196495Y-149745942D01*
X35758741Y-150308188D01*
X35804094Y-150243417D01*
X35804100Y-150243407D01*
X35897419Y-150043284D01*
X35897424Y-150043270D01*
X35954573Y-149829986D01*
X35954575Y-149829976D01*
X35973821Y-149610000D01*
X35973821Y-149609999D01*
X35954575Y-149390023D01*
X35954573Y-149390013D01*
X35897424Y-149176729D01*
X35897420Y-149176720D01*
X35804096Y-148976586D01*
X35758741Y-148911811D01*
X35758740Y-148911810D01*
X35196494Y-149474056D01*
X35180381Y-149413919D01*
X35113502Y-149298080D01*
X35018920Y-149203498D01*
X34903081Y-149136619D01*
X34842941Y-149120504D01*
X35405188Y-148558258D01*
X35340411Y-148512901D01*
X35340405Y-148512898D01*
X35140284Y-148419580D01*
X35140270Y-148419575D01*
X34926986Y-148362426D01*
X34926976Y-148362424D01*
X34707001Y-148343179D01*
X34706999Y-148343179D01*
X34487023Y-148362424D01*
X34487013Y-148362426D01*
X34273729Y-148419575D01*
X34273720Y-148419579D01*
X34073590Y-148512901D01*
X34008811Y-148558258D01*
X34571058Y-149120504D01*
X34510919Y-149136619D01*
X34395080Y-149203498D01*
X34300498Y-149298080D01*
X34233619Y-149413919D01*
X34217504Y-149474057D01*
X33655258Y-148911811D01*
X33609901Y-148976590D01*
X33549382Y-149106373D01*
X33503209Y-149158812D01*
X33436016Y-149177964D01*
X33369135Y-149157748D01*
X33324618Y-149106373D01*
X33264096Y-148976586D01*
X33218741Y-148911811D01*
X33218740Y-148911810D01*
X32656494Y-149474056D01*
X32640381Y-149413919D01*
X32573502Y-149298080D01*
X32478920Y-149203498D01*
X32363081Y-149136619D01*
X32302941Y-149120504D01*
X32865188Y-148558258D01*
X32800411Y-148512901D01*
X32800405Y-148512898D01*
X32600284Y-148419580D01*
X32600270Y-148419575D01*
X32386986Y-148362426D01*
X32386976Y-148362424D01*
X32167001Y-148343179D01*
X32166999Y-148343179D01*
X31947023Y-148362424D01*
X31947013Y-148362426D01*
X31733729Y-148419575D01*
X31733720Y-148419579D01*
X31533590Y-148512901D01*
X31468811Y-148558258D01*
X32031058Y-149120504D01*
X31970919Y-149136619D01*
X31855080Y-149203498D01*
X31760498Y-149298080D01*
X31693619Y-149413919D01*
X31677504Y-149474057D01*
X31115257Y-148911810D01*
X31115075Y-148912072D01*
X31060498Y-148955698D01*
X30991000Y-148962892D01*
X30928645Y-148931370D01*
X30893230Y-148871141D01*
X30889499Y-148840950D01*
X30889499Y-148800129D01*
X30889498Y-148800123D01*
X30889497Y-148800116D01*
X30883091Y-148740517D01*
X30876303Y-148722318D01*
X30832797Y-148605671D01*
X30832793Y-148605664D01*
X30746547Y-148490455D01*
X30746544Y-148490452D01*
X30631335Y-148404206D01*
X30631328Y-148404202D01*
X30496482Y-148353908D01*
X30496483Y-148353908D01*
X30436883Y-148347501D01*
X30436881Y-148347500D01*
X30436873Y-148347500D01*
X30436864Y-148347500D01*
X28817129Y-148347500D01*
X28817123Y-148347501D01*
X28757516Y-148353908D01*
X28622671Y-148404202D01*
X28622664Y-148404206D01*
X28507455Y-148490452D01*
X28507452Y-148490455D01*
X28421206Y-148605664D01*
X28421202Y-148605671D01*
X28370908Y-148740517D01*
X28366276Y-148783609D01*
X28364501Y-148800123D01*
X28364500Y-148800135D01*
X26500500Y-148800135D01*
X26500500Y-146082335D01*
X38346700Y-146082335D01*
X38346700Y-148057670D01*
X38346701Y-148057676D01*
X38353108Y-148117283D01*
X38403402Y-148252128D01*
X38403405Y-148252134D01*
X38413554Y-148265691D01*
X38437970Y-148331155D01*
X38423117Y-148399428D01*
X38413554Y-148414309D01*
X38403405Y-148427865D01*
X38403402Y-148427871D01*
X38353108Y-148562717D01*
X38346701Y-148622316D01*
X38346700Y-148622335D01*
X38346700Y-150597670D01*
X38346701Y-150597676D01*
X38353108Y-150657283D01*
X38403402Y-150792128D01*
X38403406Y-150792135D01*
X38489652Y-150907344D01*
X38489655Y-150907347D01*
X38604864Y-150993593D01*
X38604871Y-150993597D01*
X38739717Y-151043891D01*
X38739716Y-151043891D01*
X38746644Y-151044635D01*
X38799327Y-151050300D01*
X40774672Y-151050299D01*
X40834283Y-151043891D01*
X40969131Y-150993596D01*
X41084346Y-150907346D01*
X41170596Y-150792131D01*
X41185864Y-150751196D01*
X41227735Y-150695262D01*
X41293199Y-150670845D01*
X41361472Y-150685696D01*
X41378203Y-150696672D01*
X41448256Y-150751196D01*
X41535988Y-150819481D01*
X41536531Y-150819903D01*
X41746455Y-150933509D01*
X41972216Y-151011012D01*
X42207653Y-151050300D01*
X42207654Y-151050300D01*
X42446346Y-151050300D01*
X42446347Y-151050300D01*
X42681784Y-151011012D01*
X42907545Y-150933509D01*
X43117469Y-150819903D01*
X43305832Y-150673295D01*
X43467494Y-150497682D01*
X43493191Y-150458350D01*
X43546337Y-150412993D01*
X43615568Y-150403569D01*
X43678904Y-150433071D01*
X43700809Y-150458350D01*
X43726506Y-150497682D01*
X43888168Y-150673295D01*
X44076531Y-150819903D01*
X44286455Y-150933509D01*
X44512216Y-151011012D01*
X44747653Y-151050300D01*
X44747654Y-151050300D01*
X44986346Y-151050300D01*
X44986347Y-151050300D01*
X45221784Y-151011012D01*
X45447545Y-150933509D01*
X45657469Y-150819903D01*
X45845832Y-150673295D01*
X46007494Y-150497682D01*
X46033191Y-150458350D01*
X46086337Y-150412993D01*
X46155568Y-150403569D01*
X46218904Y-150433071D01*
X46240809Y-150458350D01*
X46266506Y-150497682D01*
X46428168Y-150673295D01*
X46616531Y-150819903D01*
X46826455Y-150933509D01*
X47052216Y-151011012D01*
X47287653Y-151050300D01*
X47287654Y-151050300D01*
X47526346Y-151050300D01*
X47526347Y-151050300D01*
X47761784Y-151011012D01*
X47987545Y-150933509D01*
X48197469Y-150819903D01*
X48385832Y-150673295D01*
X48547494Y-150497682D01*
X48573191Y-150458350D01*
X48626337Y-150412993D01*
X48695568Y-150403569D01*
X48758904Y-150433071D01*
X48780809Y-150458350D01*
X48806506Y-150497682D01*
X48968168Y-150673295D01*
X49156531Y-150819903D01*
X49366455Y-150933509D01*
X49592216Y-151011012D01*
X49827653Y-151050300D01*
X49827654Y-151050300D01*
X50066346Y-151050300D01*
X50066347Y-151050300D01*
X50301784Y-151011012D01*
X50527545Y-150933509D01*
X50737469Y-150819903D01*
X50925832Y-150673295D01*
X51087494Y-150497682D01*
X51113191Y-150458350D01*
X51166337Y-150412993D01*
X51235568Y-150403569D01*
X51298904Y-150433071D01*
X51320809Y-150458350D01*
X51346506Y-150497682D01*
X51508168Y-150673295D01*
X51696531Y-150819903D01*
X51906455Y-150933509D01*
X52132216Y-151011012D01*
X52367653Y-151050300D01*
X52367654Y-151050300D01*
X52606346Y-151050300D01*
X52606347Y-151050300D01*
X52841784Y-151011012D01*
X53067545Y-150933509D01*
X53277469Y-150819903D01*
X53465832Y-150673295D01*
X53627494Y-150497682D01*
X53653191Y-150458350D01*
X53706337Y-150412993D01*
X53775568Y-150403569D01*
X53838904Y-150433071D01*
X53860809Y-150458350D01*
X53886506Y-150497682D01*
X54048168Y-150673295D01*
X54236531Y-150819903D01*
X54446455Y-150933509D01*
X54672216Y-151011012D01*
X54907653Y-151050300D01*
X54907654Y-151050300D01*
X55146346Y-151050300D01*
X55146347Y-151050300D01*
X55381784Y-151011012D01*
X55607545Y-150933509D01*
X55817469Y-150819903D01*
X56005832Y-150673295D01*
X56167494Y-150497682D01*
X56193191Y-150458350D01*
X56246337Y-150412993D01*
X56315568Y-150403569D01*
X56378904Y-150433071D01*
X56400809Y-150458350D01*
X56426506Y-150497682D01*
X56588168Y-150673295D01*
X56776531Y-150819903D01*
X56986455Y-150933509D01*
X57212216Y-151011012D01*
X57447653Y-151050300D01*
X57447654Y-151050300D01*
X57686346Y-151050300D01*
X57686347Y-151050300D01*
X57921784Y-151011012D01*
X58147545Y-150933509D01*
X58357469Y-150819903D01*
X58545832Y-150673295D01*
X58707494Y-150497682D01*
X58733191Y-150458350D01*
X58786337Y-150412993D01*
X58855568Y-150403569D01*
X58918904Y-150433071D01*
X58940809Y-150458350D01*
X58966506Y-150497682D01*
X59128168Y-150673295D01*
X59316531Y-150819903D01*
X59526455Y-150933509D01*
X59752216Y-151011012D01*
X59987653Y-151050300D01*
X59987654Y-151050300D01*
X60226346Y-151050300D01*
X60226347Y-151050300D01*
X60461784Y-151011012D01*
X60687545Y-150933509D01*
X60897469Y-150819903D01*
X61085832Y-150673295D01*
X61247494Y-150497682D01*
X61273489Y-150457892D01*
X61326634Y-150412536D01*
X61395865Y-150403112D01*
X61459201Y-150432613D01*
X61462020Y-150435867D01*
X61467057Y-150436389D01*
X62157504Y-149745941D01*
X62173619Y-149806081D01*
X62240498Y-149921920D01*
X62335080Y-150016502D01*
X62450919Y-150083381D01*
X62511057Y-150099494D01*
X61819839Y-150790711D01*
X61819840Y-150790712D01*
X61856802Y-150819481D01*
X61856808Y-150819486D01*
X62066650Y-150933046D01*
X62066660Y-150933051D01*
X62292335Y-151010525D01*
X62527696Y-151049800D01*
X62766304Y-151049800D01*
X63001664Y-151010525D01*
X63227339Y-150933051D01*
X63227344Y-150933049D01*
X63437197Y-150819481D01*
X63437200Y-150819480D01*
X63474158Y-150790712D01*
X63474158Y-150790711D01*
X62782942Y-150099495D01*
X62843081Y-150083381D01*
X62958920Y-150016502D01*
X63053502Y-149921920D01*
X63120381Y-149806081D01*
X63136495Y-149745942D01*
X63826941Y-150436389D01*
X63917604Y-150297621D01*
X63917609Y-150297613D01*
X64013454Y-150079104D01*
X64072030Y-149847796D01*
X64072032Y-149847788D01*
X64091735Y-149610006D01*
X64091735Y-149609993D01*
X64072032Y-149372211D01*
X64072030Y-149372203D01*
X64013454Y-149140895D01*
X63917606Y-148922380D01*
X63826941Y-148783609D01*
X63136494Y-149474056D01*
X63120381Y-149413919D01*
X63053502Y-149298080D01*
X62958920Y-149203498D01*
X62843081Y-149136619D01*
X62782941Y-149120504D01*
X63474159Y-148429287D01*
X63473685Y-148421653D01*
X63444757Y-148381456D01*
X63441085Y-148311683D01*
X63475718Y-148251000D01*
X63485559Y-148242473D01*
X63625832Y-148133295D01*
X63787494Y-147957682D01*
X63918047Y-147757856D01*
X64013929Y-147539267D01*
X64072525Y-147307878D01*
X64092236Y-147070000D01*
X64072525Y-146832122D01*
X64013929Y-146600733D01*
X63918047Y-146382144D01*
X63787494Y-146182318D01*
X63695454Y-146082335D01*
X101846700Y-146082335D01*
X101846700Y-148057670D01*
X101846701Y-148057676D01*
X101853108Y-148117283D01*
X101903402Y-148252128D01*
X101903405Y-148252134D01*
X101913554Y-148265691D01*
X101937970Y-148331155D01*
X101923117Y-148399428D01*
X101913554Y-148414309D01*
X101903405Y-148427865D01*
X101903402Y-148427871D01*
X101853108Y-148562717D01*
X101846701Y-148622316D01*
X101846700Y-148622335D01*
X101846700Y-150597670D01*
X101846701Y-150597676D01*
X101853108Y-150657283D01*
X101903402Y-150792128D01*
X101903406Y-150792135D01*
X101989652Y-150907344D01*
X101989655Y-150907347D01*
X102104864Y-150993593D01*
X102104871Y-150993597D01*
X102239717Y-151043891D01*
X102239716Y-151043891D01*
X102246644Y-151044635D01*
X102299327Y-151050300D01*
X104274672Y-151050299D01*
X104334283Y-151043891D01*
X104469131Y-150993596D01*
X104584346Y-150907346D01*
X104670596Y-150792131D01*
X104685864Y-150751196D01*
X104727735Y-150695262D01*
X104793199Y-150670845D01*
X104861472Y-150685696D01*
X104878203Y-150696672D01*
X104948256Y-150751196D01*
X105035988Y-150819481D01*
X105036531Y-150819903D01*
X105246455Y-150933509D01*
X105472216Y-151011012D01*
X105707653Y-151050300D01*
X105707654Y-151050300D01*
X105946346Y-151050300D01*
X105946347Y-151050300D01*
X106181784Y-151011012D01*
X106407545Y-150933509D01*
X106617469Y-150819903D01*
X106805832Y-150673295D01*
X106967494Y-150497682D01*
X106993191Y-150458350D01*
X107046337Y-150412993D01*
X107115568Y-150403569D01*
X107178904Y-150433071D01*
X107200809Y-150458350D01*
X107226506Y-150497682D01*
X107388168Y-150673295D01*
X107576531Y-150819903D01*
X107786455Y-150933509D01*
X108012216Y-151011012D01*
X108247653Y-151050300D01*
X108247654Y-151050300D01*
X108486346Y-151050300D01*
X108486347Y-151050300D01*
X108721784Y-151011012D01*
X108947545Y-150933509D01*
X109157469Y-150819903D01*
X109345832Y-150673295D01*
X109507494Y-150497682D01*
X109533191Y-150458350D01*
X109586337Y-150412993D01*
X109655568Y-150403569D01*
X109718904Y-150433071D01*
X109740809Y-150458350D01*
X109766506Y-150497682D01*
X109928168Y-150673295D01*
X110116531Y-150819903D01*
X110326455Y-150933509D01*
X110552216Y-151011012D01*
X110787653Y-151050300D01*
X110787654Y-151050300D01*
X111026346Y-151050300D01*
X111026347Y-151050300D01*
X111261784Y-151011012D01*
X111487545Y-150933509D01*
X111697469Y-150819903D01*
X111885832Y-150673295D01*
X112047494Y-150497682D01*
X112073191Y-150458350D01*
X112126337Y-150412993D01*
X112195568Y-150403569D01*
X112258904Y-150433071D01*
X112280809Y-150458350D01*
X112306506Y-150497682D01*
X112468168Y-150673295D01*
X112656531Y-150819903D01*
X112866455Y-150933509D01*
X113092216Y-151011012D01*
X113327653Y-151050300D01*
X113327654Y-151050300D01*
X113566346Y-151050300D01*
X113566347Y-151050300D01*
X113801784Y-151011012D01*
X114027545Y-150933509D01*
X114237469Y-150819903D01*
X114425832Y-150673295D01*
X114587494Y-150497682D01*
X114613191Y-150458350D01*
X114666337Y-150412993D01*
X114735568Y-150403569D01*
X114798904Y-150433071D01*
X114820809Y-150458350D01*
X114846506Y-150497682D01*
X115008168Y-150673295D01*
X115196531Y-150819903D01*
X115406455Y-150933509D01*
X115632216Y-151011012D01*
X115867653Y-151050300D01*
X115867654Y-151050300D01*
X116106346Y-151050300D01*
X116106347Y-151050300D01*
X116341784Y-151011012D01*
X116567545Y-150933509D01*
X116777469Y-150819903D01*
X116965832Y-150673295D01*
X117127494Y-150497682D01*
X117153191Y-150458350D01*
X117206337Y-150412993D01*
X117275568Y-150403569D01*
X117338904Y-150433071D01*
X117360809Y-150458350D01*
X117386506Y-150497682D01*
X117548168Y-150673295D01*
X117736531Y-150819903D01*
X117946455Y-150933509D01*
X118172216Y-151011012D01*
X118407653Y-151050300D01*
X118407654Y-151050300D01*
X118646346Y-151050300D01*
X118646347Y-151050300D01*
X118881784Y-151011012D01*
X119107545Y-150933509D01*
X119317469Y-150819903D01*
X119505832Y-150673295D01*
X119667494Y-150497682D01*
X119693191Y-150458350D01*
X119746337Y-150412993D01*
X119815568Y-150403569D01*
X119878904Y-150433071D01*
X119900809Y-150458350D01*
X119926506Y-150497682D01*
X120088168Y-150673295D01*
X120276531Y-150819903D01*
X120486455Y-150933509D01*
X120712216Y-151011012D01*
X120947653Y-151050300D01*
X120947654Y-151050300D01*
X121186346Y-151050300D01*
X121186347Y-151050300D01*
X121421784Y-151011012D01*
X121647545Y-150933509D01*
X121857469Y-150819903D01*
X122045832Y-150673295D01*
X122207494Y-150497682D01*
X122233191Y-150458350D01*
X122286337Y-150412993D01*
X122355568Y-150403569D01*
X122418904Y-150433071D01*
X122440809Y-150458350D01*
X122466506Y-150497682D01*
X122628168Y-150673295D01*
X122816531Y-150819903D01*
X123026455Y-150933509D01*
X123252216Y-151011012D01*
X123487653Y-151050300D01*
X123487654Y-151050300D01*
X123726346Y-151050300D01*
X123726347Y-151050300D01*
X123961784Y-151011012D01*
X124187545Y-150933509D01*
X124397469Y-150819903D01*
X124585832Y-150673295D01*
X124747494Y-150497682D01*
X124773489Y-150457892D01*
X124826634Y-150412536D01*
X124895865Y-150403112D01*
X124959201Y-150432613D01*
X124962020Y-150435867D01*
X124967057Y-150436389D01*
X125657504Y-149745941D01*
X125673619Y-149806081D01*
X125740498Y-149921920D01*
X125835080Y-150016502D01*
X125950919Y-150083381D01*
X126011057Y-150099494D01*
X125319839Y-150790711D01*
X125319840Y-150790712D01*
X125356802Y-150819481D01*
X125356808Y-150819486D01*
X125566650Y-150933046D01*
X125566660Y-150933051D01*
X125792335Y-151010525D01*
X126027696Y-151049800D01*
X126266304Y-151049800D01*
X126501664Y-151010525D01*
X126727339Y-150933051D01*
X126727344Y-150933049D01*
X126937197Y-150819481D01*
X126937200Y-150819480D01*
X126974158Y-150790712D01*
X126974158Y-150790711D01*
X126282942Y-150099495D01*
X126343081Y-150083381D01*
X126458920Y-150016502D01*
X126553502Y-149921920D01*
X126620381Y-149806081D01*
X126636494Y-149745942D01*
X127326941Y-150436389D01*
X127417604Y-150297621D01*
X127417609Y-150297613D01*
X127513454Y-150079104D01*
X127572030Y-149847796D01*
X127572032Y-149847788D01*
X127591735Y-149610006D01*
X127591735Y-149609993D01*
X127572032Y-149372211D01*
X127572030Y-149372203D01*
X127513454Y-149140895D01*
X127417606Y-148922380D01*
X127326941Y-148783609D01*
X126636494Y-149474056D01*
X126620381Y-149413919D01*
X126553502Y-149298080D01*
X126458920Y-149203498D01*
X126343081Y-149136619D01*
X126282941Y-149120504D01*
X126974159Y-148429287D01*
X126973685Y-148421653D01*
X126944757Y-148381456D01*
X126941085Y-148311683D01*
X126975718Y-148251000D01*
X126985559Y-148242473D01*
X127125832Y-148133295D01*
X127287494Y-147957682D01*
X127418047Y-147757856D01*
X127513929Y-147539267D01*
X127572525Y-147307878D01*
X127592236Y-147070000D01*
X127572525Y-146832122D01*
X127513929Y-146600733D01*
X127418047Y-146382144D01*
X127287494Y-146182318D01*
X127125832Y-146006705D01*
X126937469Y-145860097D01*
X126800719Y-145786091D01*
X126727546Y-145746491D01*
X126727541Y-145746489D01*
X126501786Y-145668988D01*
X126344826Y-145642796D01*
X126266347Y-145629700D01*
X126027653Y-145629700D01*
X125968793Y-145639522D01*
X125792213Y-145668988D01*
X125566458Y-145746489D01*
X125566453Y-145746491D01*
X125356529Y-145860098D01*
X125168169Y-146006704D01*
X125006508Y-146182315D01*
X124980808Y-146221652D01*
X124927661Y-146267008D01*
X124858430Y-146276431D01*
X124795094Y-146246928D01*
X124773192Y-146221652D01*
X124747494Y-146182318D01*
X124585832Y-146006705D01*
X124397469Y-145860097D01*
X124260719Y-145786091D01*
X124187546Y-145746491D01*
X124187541Y-145746489D01*
X123961786Y-145668988D01*
X123804826Y-145642796D01*
X123726347Y-145629700D01*
X123487653Y-145629700D01*
X123428793Y-145639522D01*
X123252213Y-145668988D01*
X123026458Y-145746489D01*
X123026453Y-145746491D01*
X122816529Y-145860098D01*
X122628169Y-146006704D01*
X122466508Y-146182315D01*
X122440808Y-146221652D01*
X122387661Y-146267008D01*
X122318430Y-146276431D01*
X122255094Y-146246928D01*
X122233192Y-146221652D01*
X122207494Y-146182318D01*
X122045832Y-146006705D01*
X121857469Y-145860097D01*
X121720719Y-145786091D01*
X121647546Y-145746491D01*
X121647541Y-145746489D01*
X121421786Y-145668988D01*
X121264826Y-145642796D01*
X121186347Y-145629700D01*
X120947653Y-145629700D01*
X120888793Y-145639522D01*
X120712213Y-145668988D01*
X120486458Y-145746489D01*
X120486453Y-145746491D01*
X120276529Y-145860098D01*
X120088169Y-146006704D01*
X119926508Y-146182315D01*
X119900808Y-146221652D01*
X119847661Y-146267008D01*
X119778430Y-146276431D01*
X119715094Y-146246928D01*
X119693192Y-146221652D01*
X119667494Y-146182318D01*
X119505832Y-146006705D01*
X119317469Y-145860097D01*
X119180719Y-145786091D01*
X119107546Y-145746491D01*
X119107541Y-145746489D01*
X118881786Y-145668988D01*
X118724826Y-145642796D01*
X118646347Y-145629700D01*
X118407653Y-145629700D01*
X118348793Y-145639522D01*
X118172213Y-145668988D01*
X117946458Y-145746489D01*
X117946453Y-145746491D01*
X117736529Y-145860098D01*
X117548169Y-146006704D01*
X117386508Y-146182315D01*
X117360808Y-146221652D01*
X117307661Y-146267008D01*
X117238430Y-146276431D01*
X117175094Y-146246928D01*
X117153192Y-146221652D01*
X117127494Y-146182318D01*
X116965832Y-146006705D01*
X116777469Y-145860097D01*
X116640719Y-145786091D01*
X116567546Y-145746491D01*
X116567541Y-145746489D01*
X116341786Y-145668988D01*
X116184826Y-145642796D01*
X116106347Y-145629700D01*
X115867653Y-145629700D01*
X115808793Y-145639522D01*
X115632213Y-145668988D01*
X115406458Y-145746489D01*
X115406453Y-145746491D01*
X115196529Y-145860098D01*
X115008169Y-146006704D01*
X114846508Y-146182315D01*
X114820808Y-146221652D01*
X114767661Y-146267008D01*
X114698430Y-146276431D01*
X114635094Y-146246928D01*
X114613192Y-146221652D01*
X114587494Y-146182318D01*
X114425832Y-146006705D01*
X114237469Y-145860097D01*
X114100719Y-145786091D01*
X114027546Y-145746491D01*
X114027541Y-145746489D01*
X113801786Y-145668988D01*
X113644826Y-145642796D01*
X113566347Y-145629700D01*
X113327653Y-145629700D01*
X113268793Y-145639522D01*
X113092213Y-145668988D01*
X112866458Y-145746489D01*
X112866453Y-145746491D01*
X112656529Y-145860098D01*
X112468169Y-146006704D01*
X112306508Y-146182315D01*
X112280808Y-146221652D01*
X112227661Y-146267008D01*
X112158430Y-146276431D01*
X112095094Y-146246928D01*
X112073192Y-146221652D01*
X112047494Y-146182318D01*
X111885832Y-146006705D01*
X111697469Y-145860097D01*
X111560719Y-145786091D01*
X111487546Y-145746491D01*
X111487541Y-145746489D01*
X111261786Y-145668988D01*
X111104826Y-145642796D01*
X111026347Y-145629700D01*
X110787653Y-145629700D01*
X110728793Y-145639522D01*
X110552213Y-145668988D01*
X110326458Y-145746489D01*
X110326453Y-145746491D01*
X110116529Y-145860098D01*
X109928169Y-146006704D01*
X109766508Y-146182315D01*
X109740808Y-146221652D01*
X109687661Y-146267008D01*
X109618430Y-146276431D01*
X109555094Y-146246928D01*
X109533192Y-146221652D01*
X109507494Y-146182318D01*
X109345832Y-146006705D01*
X109157469Y-145860097D01*
X109020719Y-145786091D01*
X108947546Y-145746491D01*
X108947541Y-145746489D01*
X108721786Y-145668988D01*
X108564826Y-145642796D01*
X108486347Y-145629700D01*
X108247653Y-145629700D01*
X108188793Y-145639522D01*
X108012213Y-145668988D01*
X107786458Y-145746489D01*
X107786453Y-145746491D01*
X107576529Y-145860098D01*
X107388169Y-146006704D01*
X107226508Y-146182315D01*
X107200808Y-146221652D01*
X107147661Y-146267008D01*
X107078430Y-146276431D01*
X107015094Y-146246928D01*
X106993192Y-146221652D01*
X106967494Y-146182318D01*
X106805832Y-146006705D01*
X106617469Y-145860097D01*
X106480719Y-145786091D01*
X106407546Y-145746491D01*
X106407541Y-145746489D01*
X106181786Y-145668988D01*
X106024826Y-145642796D01*
X105946347Y-145629700D01*
X105707653Y-145629700D01*
X105648793Y-145639522D01*
X105472213Y-145668988D01*
X105246458Y-145746489D01*
X105246453Y-145746491D01*
X105036529Y-145860098D01*
X104878208Y-145983324D01*
X104813214Y-146008966D01*
X104744674Y-145995399D01*
X104694349Y-145946931D01*
X104685864Y-145928803D01*
X104670597Y-145887871D01*
X104670593Y-145887864D01*
X104584347Y-145772655D01*
X104584344Y-145772652D01*
X104469135Y-145686406D01*
X104469128Y-145686402D01*
X104334282Y-145636108D01*
X104334283Y-145636108D01*
X104274683Y-145629701D01*
X104274681Y-145629700D01*
X104274673Y-145629700D01*
X104274664Y-145629700D01*
X102299329Y-145629700D01*
X102299323Y-145629701D01*
X102239716Y-145636108D01*
X102104871Y-145686402D01*
X102104864Y-145686406D01*
X101989655Y-145772652D01*
X101989652Y-145772655D01*
X101903406Y-145887864D01*
X101903402Y-145887871D01*
X101853108Y-146022717D01*
X101846701Y-146082316D01*
X101846700Y-146082335D01*
X63695454Y-146082335D01*
X63625832Y-146006705D01*
X63437469Y-145860097D01*
X63300719Y-145786091D01*
X63227546Y-145746491D01*
X63227541Y-145746489D01*
X63001786Y-145668988D01*
X62844826Y-145642796D01*
X62766347Y-145629700D01*
X62527653Y-145629700D01*
X62468793Y-145639522D01*
X62292213Y-145668988D01*
X62066458Y-145746489D01*
X62066453Y-145746491D01*
X61856529Y-145860098D01*
X61668169Y-146006704D01*
X61506508Y-146182315D01*
X61480808Y-146221652D01*
X61427661Y-146267008D01*
X61358430Y-146276431D01*
X61295094Y-146246928D01*
X61273192Y-146221652D01*
X61247494Y-146182318D01*
X61085832Y-146006705D01*
X60897469Y-145860097D01*
X60760719Y-145786091D01*
X60687546Y-145746491D01*
X60687541Y-145746489D01*
X60461786Y-145668988D01*
X60304826Y-145642796D01*
X60226347Y-145629700D01*
X59987653Y-145629700D01*
X59928793Y-145639522D01*
X59752213Y-145668988D01*
X59526458Y-145746489D01*
X59526453Y-145746491D01*
X59316529Y-145860098D01*
X59128169Y-146006704D01*
X58966508Y-146182315D01*
X58940808Y-146221652D01*
X58887661Y-146267008D01*
X58818430Y-146276431D01*
X58755094Y-146246928D01*
X58733192Y-146221652D01*
X58707494Y-146182318D01*
X58545832Y-146006705D01*
X58357469Y-145860097D01*
X58220719Y-145786091D01*
X58147546Y-145746491D01*
X58147541Y-145746489D01*
X57921786Y-145668988D01*
X57764826Y-145642796D01*
X57686347Y-145629700D01*
X57447653Y-145629700D01*
X57388793Y-145639522D01*
X57212213Y-145668988D01*
X56986458Y-145746489D01*
X56986453Y-145746491D01*
X56776529Y-145860098D01*
X56588169Y-146006704D01*
X56426508Y-146182315D01*
X56400808Y-146221652D01*
X56347661Y-146267008D01*
X56278430Y-146276431D01*
X56215094Y-146246928D01*
X56193192Y-146221652D01*
X56167494Y-146182318D01*
X56005832Y-146006705D01*
X55817469Y-145860097D01*
X55680719Y-145786091D01*
X55607546Y-145746491D01*
X55607541Y-145746489D01*
X55381786Y-145668988D01*
X55224826Y-145642796D01*
X55146347Y-145629700D01*
X54907653Y-145629700D01*
X54848793Y-145639522D01*
X54672213Y-145668988D01*
X54446458Y-145746489D01*
X54446453Y-145746491D01*
X54236529Y-145860098D01*
X54048169Y-146006704D01*
X53886508Y-146182315D01*
X53860808Y-146221652D01*
X53807661Y-146267008D01*
X53738430Y-146276431D01*
X53675094Y-146246928D01*
X53653192Y-146221652D01*
X53627494Y-146182318D01*
X53465832Y-146006705D01*
X53277469Y-145860097D01*
X53140719Y-145786091D01*
X53067546Y-145746491D01*
X53067541Y-145746489D01*
X52841786Y-145668988D01*
X52684826Y-145642796D01*
X52606347Y-145629700D01*
X52367653Y-145629700D01*
X52308793Y-145639522D01*
X52132213Y-145668988D01*
X51906458Y-145746489D01*
X51906453Y-145746491D01*
X51696529Y-145860098D01*
X51508169Y-146006704D01*
X51346508Y-146182315D01*
X51320808Y-146221652D01*
X51267661Y-146267008D01*
X51198430Y-146276431D01*
X51135094Y-146246928D01*
X51113192Y-146221652D01*
X51087494Y-146182318D01*
X50925832Y-146006705D01*
X50737469Y-145860097D01*
X50600719Y-145786091D01*
X50527546Y-145746491D01*
X50527541Y-145746489D01*
X50301786Y-145668988D01*
X50144826Y-145642796D01*
X50066347Y-145629700D01*
X49827653Y-145629700D01*
X49768793Y-145639522D01*
X49592213Y-145668988D01*
X49366458Y-145746489D01*
X49366453Y-145746491D01*
X49156529Y-145860098D01*
X48968169Y-146006704D01*
X48806508Y-146182315D01*
X48780808Y-146221652D01*
X48727661Y-146267008D01*
X48658430Y-146276431D01*
X48595094Y-146246928D01*
X48573192Y-146221652D01*
X48547494Y-146182318D01*
X48385832Y-146006705D01*
X48197469Y-145860097D01*
X48060719Y-145786091D01*
X47987546Y-145746491D01*
X47987541Y-145746489D01*
X47761786Y-145668988D01*
X47604826Y-145642796D01*
X47526347Y-145629700D01*
X47287653Y-145629700D01*
X47228793Y-145639522D01*
X47052213Y-145668988D01*
X46826458Y-145746489D01*
X46826453Y-145746491D01*
X46616529Y-145860098D01*
X46428169Y-146006704D01*
X46266508Y-146182315D01*
X46240808Y-146221652D01*
X46187661Y-146267008D01*
X46118430Y-146276431D01*
X46055094Y-146246928D01*
X46033192Y-146221652D01*
X46007494Y-146182318D01*
X45845832Y-146006705D01*
X45657469Y-145860097D01*
X45520719Y-145786091D01*
X45447546Y-145746491D01*
X45447541Y-145746489D01*
X45221786Y-145668988D01*
X45064826Y-145642796D01*
X44986347Y-145629700D01*
X44747653Y-145629700D01*
X44688793Y-145639522D01*
X44512213Y-145668988D01*
X44286458Y-145746489D01*
X44286453Y-145746491D01*
X44076529Y-145860098D01*
X43888169Y-146006704D01*
X43726508Y-146182315D01*
X43700808Y-146221652D01*
X43647661Y-146267008D01*
X43578430Y-146276431D01*
X43515094Y-146246928D01*
X43493192Y-146221652D01*
X43467494Y-146182318D01*
X43305832Y-146006705D01*
X43117469Y-145860097D01*
X42980719Y-145786091D01*
X42907546Y-145746491D01*
X42907541Y-145746489D01*
X42681786Y-145668988D01*
X42524826Y-145642796D01*
X42446347Y-145629700D01*
X42207653Y-145629700D01*
X42148793Y-145639522D01*
X41972213Y-145668988D01*
X41746458Y-145746489D01*
X41746453Y-145746491D01*
X41536529Y-145860098D01*
X41378208Y-145983324D01*
X41313214Y-146008966D01*
X41244674Y-145995399D01*
X41194349Y-145946931D01*
X41185864Y-145928803D01*
X41170597Y-145887871D01*
X41170593Y-145887864D01*
X41084347Y-145772655D01*
X41084344Y-145772652D01*
X40969135Y-145686406D01*
X40969128Y-145686402D01*
X40834282Y-145636108D01*
X40834283Y-145636108D01*
X40774683Y-145629701D01*
X40774681Y-145629700D01*
X40774673Y-145629700D01*
X40774664Y-145629700D01*
X38799329Y-145629700D01*
X38799323Y-145629701D01*
X38739716Y-145636108D01*
X38604871Y-145686402D01*
X38604864Y-145686406D01*
X38489655Y-145772652D01*
X38489652Y-145772655D01*
X38403406Y-145887864D01*
X38403402Y-145887871D01*
X38353108Y-146022717D01*
X38346701Y-146082316D01*
X38346700Y-146082335D01*
X26500500Y-146082335D01*
X26500500Y-136909997D01*
X28359677Y-136909997D01*
X28359677Y-136910002D01*
X28378929Y-137130062D01*
X28378930Y-137130070D01*
X28436104Y-137343445D01*
X28436105Y-137343447D01*
X28436106Y-137343450D01*
X28529466Y-137543662D01*
X28529468Y-137543666D01*
X28656170Y-137724615D01*
X28656175Y-137724621D01*
X28812378Y-137880824D01*
X28812384Y-137880829D01*
X28993333Y-138007531D01*
X28993335Y-138007532D01*
X28993338Y-138007534D01*
X29112748Y-138063215D01*
X29122189Y-138067618D01*
X29174628Y-138113790D01*
X29193780Y-138180984D01*
X29173564Y-138247865D01*
X29122189Y-138292382D01*
X28993340Y-138352465D01*
X28993338Y-138352466D01*
X28812377Y-138479175D01*
X28656175Y-138635377D01*
X28529466Y-138816338D01*
X28529465Y-138816340D01*
X28436107Y-139016548D01*
X28436104Y-139016554D01*
X28378930Y-139229929D01*
X28378929Y-139229937D01*
X28359677Y-139449997D01*
X28359677Y-139450002D01*
X28378929Y-139670062D01*
X28378930Y-139670070D01*
X28436104Y-139883445D01*
X28436105Y-139883447D01*
X28436106Y-139883450D01*
X28529466Y-140083662D01*
X28529468Y-140083666D01*
X28656170Y-140264615D01*
X28656175Y-140264621D01*
X28812378Y-140420824D01*
X28812384Y-140420829D01*
X28993333Y-140547531D01*
X28993335Y-140547532D01*
X28993338Y-140547534D01*
X29112748Y-140603215D01*
X29122189Y-140607618D01*
X29174628Y-140653790D01*
X29193780Y-140720984D01*
X29173564Y-140787865D01*
X29122189Y-140832382D01*
X28993340Y-140892465D01*
X28993338Y-140892466D01*
X28812377Y-141019175D01*
X28656175Y-141175377D01*
X28529466Y-141356338D01*
X28529465Y-141356340D01*
X28436107Y-141556548D01*
X28436104Y-141556554D01*
X28378930Y-141769929D01*
X28378929Y-141769937D01*
X28359677Y-141989997D01*
X28359677Y-141990002D01*
X28378929Y-142210062D01*
X28378930Y-142210070D01*
X28436104Y-142423445D01*
X28436105Y-142423447D01*
X28436106Y-142423450D01*
X28529466Y-142623662D01*
X28529468Y-142623666D01*
X28656170Y-142804615D01*
X28656175Y-142804621D01*
X28812378Y-142960824D01*
X28812384Y-142960829D01*
X28928202Y-143041925D01*
X28971827Y-143096502D01*
X28979021Y-143166000D01*
X28947498Y-143228355D01*
X28887269Y-143263769D01*
X28857082Y-143267500D01*
X28817131Y-143267500D01*
X28817123Y-143267501D01*
X28757516Y-143273908D01*
X28622671Y-143324202D01*
X28622664Y-143324206D01*
X28507455Y-143410452D01*
X28507452Y-143410455D01*
X28421206Y-143525664D01*
X28421202Y-143525671D01*
X28370908Y-143660517D01*
X28364501Y-143720116D01*
X28364501Y-143720123D01*
X28364500Y-143720135D01*
X28364500Y-145339870D01*
X28364501Y-145339876D01*
X28370908Y-145399483D01*
X28421202Y-145534328D01*
X28421206Y-145534335D01*
X28507452Y-145649544D01*
X28507455Y-145649547D01*
X28622664Y-145735793D01*
X28622671Y-145735797D01*
X28757517Y-145786091D01*
X28757516Y-145786091D01*
X28764444Y-145786835D01*
X28817127Y-145792500D01*
X30436872Y-145792499D01*
X30496483Y-145786091D01*
X30631331Y-145735796D01*
X30746546Y-145649546D01*
X30832796Y-145534331D01*
X30883091Y-145399483D01*
X30889500Y-145339873D01*
X30889499Y-143720128D01*
X30883091Y-143660517D01*
X30832796Y-143525669D01*
X30832795Y-143525668D01*
X30832793Y-143525664D01*
X30746547Y-143410455D01*
X30746544Y-143410452D01*
X30631335Y-143324206D01*
X30631328Y-143324202D01*
X30496482Y-143273908D01*
X30496483Y-143273908D01*
X30436883Y-143267501D01*
X30436881Y-143267500D01*
X30436873Y-143267500D01*
X30436865Y-143267500D01*
X30396921Y-143267500D01*
X30329882Y-143247815D01*
X30284127Y-143195011D01*
X30274183Y-143125853D01*
X30303208Y-143062297D01*
X30325798Y-143041925D01*
X30441620Y-142960826D01*
X30597826Y-142804620D01*
X30724534Y-142623662D01*
X30817894Y-142423450D01*
X30875070Y-142210068D01*
X30894323Y-141990000D01*
X30875070Y-141769932D01*
X30817894Y-141556550D01*
X30724534Y-141356339D01*
X30597826Y-141175380D01*
X30441620Y-141019174D01*
X30441616Y-141019171D01*
X30441615Y-141019170D01*
X30260666Y-140892468D01*
X30260658Y-140892464D01*
X30131811Y-140832382D01*
X30079371Y-140786210D01*
X30060219Y-140719017D01*
X30080435Y-140652135D01*
X30131811Y-140607618D01*
X30137802Y-140604824D01*
X30260662Y-140547534D01*
X30441620Y-140420826D01*
X30597826Y-140264620D01*
X30724534Y-140083662D01*
X30817894Y-139883450D01*
X30875070Y-139670068D01*
X30894323Y-139450000D01*
X30875070Y-139229932D01*
X30817894Y-139016550D01*
X30724534Y-138816339D01*
X30597826Y-138635380D01*
X30441620Y-138479174D01*
X30441616Y-138479171D01*
X30441615Y-138479170D01*
X30260666Y-138352468D01*
X30260658Y-138352464D01*
X30131811Y-138292382D01*
X30079371Y-138246210D01*
X30060219Y-138179017D01*
X30080435Y-138112135D01*
X30131811Y-138067618D01*
X30137802Y-138064824D01*
X30260662Y-138007534D01*
X30441620Y-137880826D01*
X30597826Y-137724620D01*
X30724534Y-137543662D01*
X30817894Y-137343450D01*
X30875070Y-137130068D01*
X30894323Y-136910000D01*
X30875070Y-136689932D01*
X30817894Y-136476550D01*
X30724534Y-136276339D01*
X30597826Y-136095380D01*
X30441620Y-135939174D01*
X30441616Y-135939171D01*
X30441615Y-135939170D01*
X30260666Y-135812468D01*
X30260662Y-135812466D01*
X30131218Y-135752105D01*
X30078779Y-135705932D01*
X30059627Y-135638739D01*
X30079843Y-135571858D01*
X30131219Y-135527340D01*
X30260416Y-135467095D01*
X30260417Y-135467094D01*
X30325188Y-135421741D01*
X29762942Y-134859494D01*
X29823081Y-134843381D01*
X29938920Y-134776502D01*
X30033502Y-134681920D01*
X30100381Y-134566081D01*
X30116495Y-134505942D01*
X30678741Y-135068188D01*
X30724094Y-135003417D01*
X30724100Y-135003407D01*
X30817419Y-134803284D01*
X30817424Y-134803270D01*
X30874573Y-134589986D01*
X30874575Y-134589976D01*
X30893821Y-134370000D01*
X30893821Y-134369999D01*
X30874575Y-134150023D01*
X30874573Y-134150013D01*
X30817424Y-133936729D01*
X30817420Y-133936720D01*
X30724096Y-133736586D01*
X30678741Y-133671811D01*
X30678740Y-133671810D01*
X30116494Y-134234056D01*
X30100381Y-134173919D01*
X30033502Y-134058080D01*
X29938920Y-133963498D01*
X29823081Y-133896619D01*
X29762941Y-133880504D01*
X30325188Y-133318258D01*
X30260411Y-133272901D01*
X30260405Y-133272898D01*
X30060284Y-133179580D01*
X30060270Y-133179575D01*
X29846986Y-133122426D01*
X29846976Y-133122424D01*
X29627001Y-133103179D01*
X29626999Y-133103179D01*
X29407023Y-133122424D01*
X29407013Y-133122426D01*
X29193729Y-133179575D01*
X29193720Y-133179579D01*
X28993590Y-133272901D01*
X28928811Y-133318258D01*
X29491058Y-133880504D01*
X29430919Y-133896619D01*
X29315080Y-133963498D01*
X29220498Y-134058080D01*
X29153619Y-134173919D01*
X29137504Y-134234057D01*
X28575258Y-133671811D01*
X28529901Y-133736590D01*
X28436579Y-133936720D01*
X28436575Y-133936729D01*
X28379426Y-134150013D01*
X28379424Y-134150023D01*
X28360179Y-134369999D01*
X28360179Y-134370000D01*
X28379424Y-134589976D01*
X28379426Y-134589986D01*
X28436575Y-134803270D01*
X28436580Y-134803284D01*
X28529898Y-135003405D01*
X28529901Y-135003411D01*
X28575258Y-135068187D01*
X28575258Y-135068188D01*
X29137504Y-134505941D01*
X29153619Y-134566081D01*
X29220498Y-134681920D01*
X29315080Y-134776502D01*
X29430919Y-134843381D01*
X29491057Y-134859494D01*
X28928810Y-135421740D01*
X28993589Y-135467098D01*
X29122781Y-135527342D01*
X29175220Y-135573514D01*
X29194372Y-135640708D01*
X29174156Y-135707589D01*
X29122781Y-135752106D01*
X28993340Y-135812465D01*
X28993338Y-135812466D01*
X28812377Y-135939175D01*
X28656175Y-136095377D01*
X28529466Y-136276338D01*
X28529465Y-136276340D01*
X28436107Y-136476548D01*
X28436104Y-136476554D01*
X28378930Y-136689929D01*
X28378929Y-136689937D01*
X28359677Y-136909997D01*
X26500500Y-136909997D01*
X26500500Y-119129997D01*
X28359677Y-119129997D01*
X28359677Y-119130002D01*
X28378929Y-119350062D01*
X28378930Y-119350070D01*
X28436104Y-119563445D01*
X28436105Y-119563447D01*
X28436106Y-119563450D01*
X28529466Y-119763662D01*
X28529468Y-119763666D01*
X28656170Y-119944615D01*
X28656175Y-119944621D01*
X28812378Y-120100824D01*
X28812384Y-120100829D01*
X28993333Y-120227531D01*
X28993335Y-120227532D01*
X28993338Y-120227534D01*
X29112748Y-120283215D01*
X29122189Y-120287618D01*
X29174628Y-120333790D01*
X29193780Y-120400984D01*
X29173564Y-120467865D01*
X29122189Y-120512382D01*
X28993340Y-120572465D01*
X28993338Y-120572466D01*
X28812377Y-120699175D01*
X28656175Y-120855377D01*
X28529466Y-121036338D01*
X28529465Y-121036340D01*
X28436107Y-121236548D01*
X28436104Y-121236554D01*
X28378930Y-121449929D01*
X28378929Y-121449937D01*
X28359677Y-121669997D01*
X28359677Y-121670002D01*
X28378929Y-121890062D01*
X28378930Y-121890070D01*
X28436104Y-122103445D01*
X28436105Y-122103447D01*
X28436106Y-122103450D01*
X28529466Y-122303662D01*
X28529468Y-122303666D01*
X28656170Y-122484615D01*
X28656175Y-122484621D01*
X28812378Y-122640824D01*
X28812384Y-122640829D01*
X28993333Y-122767531D01*
X28993335Y-122767532D01*
X28993338Y-122767534D01*
X29112748Y-122823215D01*
X29122189Y-122827618D01*
X29174628Y-122873790D01*
X29193780Y-122940984D01*
X29173564Y-123007865D01*
X29122189Y-123052382D01*
X28993340Y-123112465D01*
X28993338Y-123112466D01*
X28812377Y-123239175D01*
X28656175Y-123395377D01*
X28529466Y-123576338D01*
X28529465Y-123576340D01*
X28436107Y-123776548D01*
X28436104Y-123776554D01*
X28378930Y-123989929D01*
X28378929Y-123989937D01*
X28359677Y-124209997D01*
X28359677Y-124210002D01*
X28378929Y-124430062D01*
X28378930Y-124430070D01*
X28436104Y-124643445D01*
X28436105Y-124643447D01*
X28436106Y-124643450D01*
X28529466Y-124843662D01*
X28529468Y-124843666D01*
X28656170Y-125024615D01*
X28656175Y-125024621D01*
X28812378Y-125180824D01*
X28812384Y-125180829D01*
X28993333Y-125307531D01*
X28993335Y-125307532D01*
X28993338Y-125307534D01*
X29112748Y-125363215D01*
X29122189Y-125367618D01*
X29174628Y-125413790D01*
X29193780Y-125480984D01*
X29173564Y-125547865D01*
X29122189Y-125592382D01*
X28993340Y-125652465D01*
X28993338Y-125652466D01*
X28812377Y-125779175D01*
X28656175Y-125935377D01*
X28529466Y-126116338D01*
X28529465Y-126116340D01*
X28436107Y-126316548D01*
X28436104Y-126316554D01*
X28378930Y-126529929D01*
X28378929Y-126529937D01*
X28359677Y-126749997D01*
X28359677Y-126750002D01*
X28378929Y-126970062D01*
X28378930Y-126970070D01*
X28436104Y-127183445D01*
X28436105Y-127183447D01*
X28436106Y-127183450D01*
X28529466Y-127383662D01*
X28529468Y-127383666D01*
X28656170Y-127564615D01*
X28656175Y-127564621D01*
X28812378Y-127720824D01*
X28812384Y-127720829D01*
X28928202Y-127801925D01*
X28971827Y-127856502D01*
X28979021Y-127926000D01*
X28947498Y-127988355D01*
X28887269Y-128023769D01*
X28857082Y-128027500D01*
X28817131Y-128027500D01*
X28817123Y-128027501D01*
X28757516Y-128033908D01*
X28622671Y-128084202D01*
X28622664Y-128084206D01*
X28507455Y-128170452D01*
X28507452Y-128170455D01*
X28421206Y-128285664D01*
X28421202Y-128285671D01*
X28370908Y-128420517D01*
X28364501Y-128480116D01*
X28364501Y-128480123D01*
X28364500Y-128480135D01*
X28364500Y-130099870D01*
X28364501Y-130099876D01*
X28370908Y-130159483D01*
X28421202Y-130294328D01*
X28421206Y-130294335D01*
X28507452Y-130409544D01*
X28507455Y-130409547D01*
X28622664Y-130495793D01*
X28622671Y-130495797D01*
X28757517Y-130546091D01*
X28757516Y-130546091D01*
X28764444Y-130546835D01*
X28817127Y-130552500D01*
X30436872Y-130552499D01*
X30496483Y-130546091D01*
X30631331Y-130495796D01*
X30746546Y-130409546D01*
X30832796Y-130294331D01*
X30883091Y-130159483D01*
X30889500Y-130099873D01*
X30889499Y-128480128D01*
X30883091Y-128420517D01*
X30832796Y-128285669D01*
X30832795Y-128285668D01*
X30832793Y-128285664D01*
X30746547Y-128170455D01*
X30746544Y-128170452D01*
X30631335Y-128084206D01*
X30631328Y-128084202D01*
X30496482Y-128033908D01*
X30496483Y-128033908D01*
X30436883Y-128027501D01*
X30436881Y-128027500D01*
X30436873Y-128027500D01*
X30436865Y-128027500D01*
X30396921Y-128027500D01*
X30329882Y-128007815D01*
X30284127Y-127955011D01*
X30274183Y-127885853D01*
X30303208Y-127822297D01*
X30325798Y-127801925D01*
X30441620Y-127720826D01*
X30597826Y-127564620D01*
X30724534Y-127383662D01*
X30817894Y-127183450D01*
X30875070Y-126970068D01*
X30894323Y-126750000D01*
X30875070Y-126529932D01*
X30817894Y-126316550D01*
X30724534Y-126116339D01*
X30597826Y-125935380D01*
X30441620Y-125779174D01*
X30441616Y-125779171D01*
X30441615Y-125779170D01*
X30260666Y-125652468D01*
X30260658Y-125652464D01*
X30131811Y-125592382D01*
X30079371Y-125546210D01*
X30060219Y-125479017D01*
X30080435Y-125412135D01*
X30131811Y-125367618D01*
X30137802Y-125364824D01*
X30260662Y-125307534D01*
X30441620Y-125180826D01*
X30597826Y-125024620D01*
X30724534Y-124843662D01*
X30817894Y-124643450D01*
X30875070Y-124430068D01*
X30894323Y-124210000D01*
X30875070Y-123989932D01*
X30817894Y-123776550D01*
X30724534Y-123576339D01*
X30597826Y-123395380D01*
X30441620Y-123239174D01*
X30441616Y-123239171D01*
X30441615Y-123239170D01*
X30260666Y-123112468D01*
X30260658Y-123112464D01*
X30131811Y-123052382D01*
X30079371Y-123006210D01*
X30060219Y-122939017D01*
X30080435Y-122872135D01*
X30131811Y-122827618D01*
X30137802Y-122824824D01*
X30260662Y-122767534D01*
X30441620Y-122640826D01*
X30597826Y-122484620D01*
X30724534Y-122303662D01*
X30817894Y-122103450D01*
X30875070Y-121890068D01*
X30894323Y-121670000D01*
X30875070Y-121449932D01*
X30817894Y-121236550D01*
X30724534Y-121036339D01*
X30597826Y-120855380D01*
X30441620Y-120699174D01*
X30441616Y-120699171D01*
X30441615Y-120699170D01*
X30260666Y-120572468D01*
X30260658Y-120572464D01*
X30131811Y-120512382D01*
X30079371Y-120466210D01*
X30060219Y-120399017D01*
X30080435Y-120332135D01*
X30131811Y-120287618D01*
X30137802Y-120284824D01*
X30260662Y-120227534D01*
X30441620Y-120100826D01*
X30597826Y-119944620D01*
X30724534Y-119763662D01*
X30817894Y-119563450D01*
X30875070Y-119350068D01*
X30894323Y-119130000D01*
X30875070Y-118909932D01*
X30817894Y-118696550D01*
X30724534Y-118496339D01*
X30597826Y-118315380D01*
X30441620Y-118159174D01*
X30441616Y-118159171D01*
X30441615Y-118159170D01*
X30260666Y-118032468D01*
X30260662Y-118032466D01*
X30260660Y-118032465D01*
X30060450Y-117939106D01*
X30060447Y-117939105D01*
X30060445Y-117939104D01*
X29847070Y-117881930D01*
X29847062Y-117881929D01*
X29627002Y-117862677D01*
X29626998Y-117862677D01*
X29406937Y-117881929D01*
X29406929Y-117881930D01*
X29193554Y-117939104D01*
X29193548Y-117939107D01*
X28993340Y-118032465D01*
X28993338Y-118032466D01*
X28812377Y-118159175D01*
X28656175Y-118315377D01*
X28529466Y-118496338D01*
X28529465Y-118496340D01*
X28436107Y-118696548D01*
X28436104Y-118696554D01*
X28378930Y-118909929D01*
X28378929Y-118909937D01*
X28359677Y-119129997D01*
X26500500Y-119129997D01*
X26500500Y-111509997D01*
X28359677Y-111509997D01*
X28359677Y-111510002D01*
X28378929Y-111730062D01*
X28378930Y-111730070D01*
X28436104Y-111943445D01*
X28436105Y-111943447D01*
X28436106Y-111943450D01*
X28529466Y-112143662D01*
X28529468Y-112143666D01*
X28656170Y-112324615D01*
X28656175Y-112324621D01*
X28812378Y-112480824D01*
X28812384Y-112480829D01*
X28928202Y-112561925D01*
X28971827Y-112616502D01*
X28979021Y-112686000D01*
X28947498Y-112748355D01*
X28887269Y-112783769D01*
X28857082Y-112787500D01*
X28817131Y-112787500D01*
X28817123Y-112787501D01*
X28757516Y-112793908D01*
X28622671Y-112844202D01*
X28622664Y-112844206D01*
X28507455Y-112930452D01*
X28507452Y-112930455D01*
X28421206Y-113045664D01*
X28421202Y-113045671D01*
X28370908Y-113180517D01*
X28364501Y-113240116D01*
X28364501Y-113240123D01*
X28364500Y-113240135D01*
X28364500Y-114859870D01*
X28364501Y-114859876D01*
X28370908Y-114919483D01*
X28421202Y-115054328D01*
X28421206Y-115054335D01*
X28507452Y-115169544D01*
X28507455Y-115169547D01*
X28622664Y-115255793D01*
X28622671Y-115255797D01*
X28757517Y-115306091D01*
X28757516Y-115306091D01*
X28764444Y-115306835D01*
X28817127Y-115312500D01*
X30436872Y-115312499D01*
X30496483Y-115306091D01*
X30631331Y-115255796D01*
X30746546Y-115169546D01*
X30832796Y-115054331D01*
X30883091Y-114919483D01*
X30889500Y-114859873D01*
X30889499Y-113240128D01*
X30883091Y-113180517D01*
X30832796Y-113045669D01*
X30832795Y-113045668D01*
X30832793Y-113045664D01*
X30746547Y-112930455D01*
X30746544Y-112930452D01*
X30631335Y-112844206D01*
X30631328Y-112844202D01*
X30496482Y-112793908D01*
X30496483Y-112793908D01*
X30436883Y-112787501D01*
X30436881Y-112787500D01*
X30436873Y-112787500D01*
X30436865Y-112787500D01*
X30396921Y-112787500D01*
X30329882Y-112767815D01*
X30284127Y-112715011D01*
X30274183Y-112645853D01*
X30303208Y-112582297D01*
X30325798Y-112561925D01*
X30441620Y-112480826D01*
X30597826Y-112324620D01*
X30724534Y-112143662D01*
X30817894Y-111943450D01*
X30875070Y-111730068D01*
X30894323Y-111510000D01*
X30875070Y-111289932D01*
X30817894Y-111076550D01*
X30724534Y-110876339D01*
X30597826Y-110695380D01*
X30441620Y-110539174D01*
X30441616Y-110539171D01*
X30441615Y-110539170D01*
X30260666Y-110412468D01*
X30260662Y-110412466D01*
X30131218Y-110352105D01*
X30078779Y-110305932D01*
X30059627Y-110238739D01*
X30079843Y-110171858D01*
X30131219Y-110127340D01*
X30260416Y-110067095D01*
X30260417Y-110067094D01*
X30325188Y-110021741D01*
X29762942Y-109459494D01*
X29823081Y-109443381D01*
X29938920Y-109376502D01*
X30033502Y-109281920D01*
X30100381Y-109166081D01*
X30116495Y-109105942D01*
X30678741Y-109668188D01*
X30724094Y-109603417D01*
X30724100Y-109603407D01*
X30817419Y-109403284D01*
X30817424Y-109403270D01*
X30874573Y-109189986D01*
X30874575Y-109189976D01*
X30893821Y-108970000D01*
X30893821Y-108969999D01*
X30874575Y-108750023D01*
X30874573Y-108750013D01*
X30817424Y-108536729D01*
X30817420Y-108536720D01*
X30724096Y-108336586D01*
X30678741Y-108271811D01*
X30678740Y-108271810D01*
X30116494Y-108834056D01*
X30100381Y-108773919D01*
X30033502Y-108658080D01*
X29938920Y-108563498D01*
X29823081Y-108496619D01*
X29762941Y-108480504D01*
X30325188Y-107918258D01*
X30260411Y-107872901D01*
X30260405Y-107872898D01*
X30060284Y-107779580D01*
X30060270Y-107779575D01*
X29846986Y-107722426D01*
X29846976Y-107722424D01*
X29627001Y-107703179D01*
X29626999Y-107703179D01*
X29407023Y-107722424D01*
X29407013Y-107722426D01*
X29193729Y-107779575D01*
X29193720Y-107779579D01*
X28993590Y-107872901D01*
X28928811Y-107918258D01*
X29491058Y-108480504D01*
X29430919Y-108496619D01*
X29315080Y-108563498D01*
X29220498Y-108658080D01*
X29153619Y-108773919D01*
X29137504Y-108834057D01*
X28575258Y-108271811D01*
X28529901Y-108336590D01*
X28436579Y-108536720D01*
X28436575Y-108536729D01*
X28379426Y-108750013D01*
X28379424Y-108750023D01*
X28360179Y-108969999D01*
X28360179Y-108970000D01*
X28379424Y-109189976D01*
X28379426Y-109189986D01*
X28436575Y-109403270D01*
X28436580Y-109403284D01*
X28529898Y-109603405D01*
X28529901Y-109603411D01*
X28575258Y-109668187D01*
X28575258Y-109668188D01*
X29137504Y-109105941D01*
X29153619Y-109166081D01*
X29220498Y-109281920D01*
X29315080Y-109376502D01*
X29430919Y-109443381D01*
X29491057Y-109459494D01*
X28928810Y-110021740D01*
X28993589Y-110067098D01*
X29122781Y-110127342D01*
X29175220Y-110173514D01*
X29194372Y-110240708D01*
X29174156Y-110307589D01*
X29122781Y-110352106D01*
X28993340Y-110412465D01*
X28993338Y-110412466D01*
X28812377Y-110539175D01*
X28656175Y-110695377D01*
X28529466Y-110876338D01*
X28529465Y-110876340D01*
X28436107Y-111076548D01*
X28436104Y-111076554D01*
X28378930Y-111289929D01*
X28378929Y-111289937D01*
X28359677Y-111509997D01*
X26500500Y-111509997D01*
X26500500Y-103080135D01*
X28364500Y-103080135D01*
X28364500Y-104699870D01*
X28364501Y-104699876D01*
X28370908Y-104759483D01*
X28421202Y-104894328D01*
X28421206Y-104894335D01*
X28507452Y-105009544D01*
X28507455Y-105009547D01*
X28622664Y-105095793D01*
X28622671Y-105095797D01*
X28757517Y-105146091D01*
X28757516Y-105146091D01*
X28764444Y-105146835D01*
X28817127Y-105152500D01*
X30436872Y-105152499D01*
X30496483Y-105146091D01*
X30631331Y-105095796D01*
X30746546Y-105009546D01*
X30832796Y-104894331D01*
X30883091Y-104759483D01*
X30889500Y-104699873D01*
X30889499Y-104659048D01*
X30909182Y-104592012D01*
X30961985Y-104546256D01*
X31031143Y-104536311D01*
X31094700Y-104565334D01*
X31115074Y-104587925D01*
X31115258Y-104588187D01*
X31115258Y-104588188D01*
X31677504Y-104025941D01*
X31693619Y-104086081D01*
X31760498Y-104201920D01*
X31855080Y-104296502D01*
X31970919Y-104363381D01*
X32031057Y-104379494D01*
X31468810Y-104941740D01*
X31533590Y-104987099D01*
X31533592Y-104987100D01*
X31733715Y-105080419D01*
X31733729Y-105080424D01*
X31947013Y-105137573D01*
X31947023Y-105137575D01*
X32166999Y-105156821D01*
X32167001Y-105156821D01*
X32386976Y-105137575D01*
X32386986Y-105137573D01*
X32600270Y-105080424D01*
X32600284Y-105080419D01*
X32800407Y-104987100D01*
X32800417Y-104987094D01*
X32865188Y-104941741D01*
X32302942Y-104379494D01*
X32363081Y-104363381D01*
X32478920Y-104296502D01*
X32573502Y-104201920D01*
X32640381Y-104086081D01*
X32656495Y-104025942D01*
X33218741Y-104588188D01*
X33264094Y-104523417D01*
X33264100Y-104523407D01*
X33324618Y-104393627D01*
X33370790Y-104341187D01*
X33437983Y-104322035D01*
X33504865Y-104342251D01*
X33549382Y-104393627D01*
X33609898Y-104523405D01*
X33609901Y-104523411D01*
X33655258Y-104588187D01*
X33655258Y-104588188D01*
X34217504Y-104025941D01*
X34233619Y-104086081D01*
X34300498Y-104201920D01*
X34395080Y-104296502D01*
X34510919Y-104363381D01*
X34571057Y-104379494D01*
X34008810Y-104941740D01*
X34073590Y-104987099D01*
X34073592Y-104987100D01*
X34273715Y-105080419D01*
X34273729Y-105080424D01*
X34487013Y-105137573D01*
X34487023Y-105137575D01*
X34706999Y-105156821D01*
X34707001Y-105156821D01*
X34926976Y-105137575D01*
X34926986Y-105137573D01*
X35140270Y-105080424D01*
X35140284Y-105080419D01*
X35340407Y-104987100D01*
X35340417Y-104987094D01*
X35405188Y-104941741D01*
X34842942Y-104379494D01*
X34903081Y-104363381D01*
X35018920Y-104296502D01*
X35113502Y-104201920D01*
X35180381Y-104086081D01*
X35196495Y-104025942D01*
X35758741Y-104588188D01*
X35804094Y-104523417D01*
X35804100Y-104523407D01*
X35897419Y-104323284D01*
X35897424Y-104323270D01*
X35954573Y-104109986D01*
X35954575Y-104109976D01*
X35973821Y-103890000D01*
X35973821Y-103889999D01*
X35973821Y-103889994D01*
X38341764Y-103889994D01*
X38341764Y-103890005D01*
X38361473Y-104127869D01*
X38361475Y-104127881D01*
X38420070Y-104359267D01*
X38505116Y-104553150D01*
X38515953Y-104577856D01*
X38646506Y-104777682D01*
X38808168Y-104953295D01*
X38808171Y-104953297D01*
X38808174Y-104953300D01*
X38948020Y-105062147D01*
X38988833Y-105118857D01*
X38992508Y-105188630D01*
X38957876Y-105249313D01*
X38948020Y-105257853D01*
X38808174Y-105366699D01*
X38808171Y-105366702D01*
X38808168Y-105366704D01*
X38808168Y-105366705D01*
X38774924Y-105402817D01*
X38646506Y-105542317D01*
X38515951Y-105742147D01*
X38420070Y-105960732D01*
X38361475Y-106192118D01*
X38361473Y-106192130D01*
X38341764Y-106429994D01*
X38341764Y-106430005D01*
X38361473Y-106667869D01*
X38361475Y-106667881D01*
X38420070Y-106899267D01*
X38505191Y-107093322D01*
X38515953Y-107117856D01*
X38646506Y-107317682D01*
X38808168Y-107493295D01*
X38996531Y-107639903D01*
X39206455Y-107753509D01*
X39432216Y-107831012D01*
X39667653Y-107870300D01*
X39667654Y-107870300D01*
X39906346Y-107870300D01*
X39906347Y-107870300D01*
X40141784Y-107831012D01*
X40367545Y-107753509D01*
X40577469Y-107639903D01*
X40765832Y-107493295D01*
X40927494Y-107317682D01*
X40953191Y-107278350D01*
X41006337Y-107232993D01*
X41075568Y-107223569D01*
X41138904Y-107253071D01*
X41160809Y-107278350D01*
X41186504Y-107317679D01*
X41186506Y-107317682D01*
X41348168Y-107493295D01*
X41536531Y-107639903D01*
X41746455Y-107753509D01*
X41972216Y-107831012D01*
X42207653Y-107870300D01*
X42207654Y-107870300D01*
X42446346Y-107870300D01*
X42446347Y-107870300D01*
X42681784Y-107831012D01*
X42907545Y-107753509D01*
X43117469Y-107639903D01*
X43305832Y-107493295D01*
X43467494Y-107317682D01*
X43493191Y-107278350D01*
X43546337Y-107232993D01*
X43615568Y-107223569D01*
X43678904Y-107253071D01*
X43700809Y-107278350D01*
X43726504Y-107317679D01*
X43726506Y-107317682D01*
X43888168Y-107493295D01*
X44076531Y-107639903D01*
X44286455Y-107753509D01*
X44512216Y-107831012D01*
X44747653Y-107870300D01*
X44747654Y-107870300D01*
X44986346Y-107870300D01*
X44986347Y-107870300D01*
X45221784Y-107831012D01*
X45447545Y-107753509D01*
X45657469Y-107639903D01*
X45845832Y-107493295D01*
X46007494Y-107317682D01*
X46033191Y-107278350D01*
X46086337Y-107232993D01*
X46155568Y-107223569D01*
X46218904Y-107253071D01*
X46240809Y-107278350D01*
X46266504Y-107317679D01*
X46266506Y-107317682D01*
X46428168Y-107493295D01*
X46616531Y-107639903D01*
X46826455Y-107753509D01*
X47052216Y-107831012D01*
X47287653Y-107870300D01*
X47287654Y-107870300D01*
X47526346Y-107870300D01*
X47526347Y-107870300D01*
X47761784Y-107831012D01*
X47987545Y-107753509D01*
X48197469Y-107639903D01*
X48385832Y-107493295D01*
X48547494Y-107317682D01*
X48573191Y-107278350D01*
X48626337Y-107232993D01*
X48695568Y-107223569D01*
X48758904Y-107253071D01*
X48780809Y-107278350D01*
X48806504Y-107317679D01*
X48806506Y-107317682D01*
X48968168Y-107493295D01*
X49156531Y-107639903D01*
X49366455Y-107753509D01*
X49592216Y-107831012D01*
X49827653Y-107870300D01*
X49827654Y-107870300D01*
X50066346Y-107870300D01*
X50066347Y-107870300D01*
X50301784Y-107831012D01*
X50527545Y-107753509D01*
X50737469Y-107639903D01*
X50925832Y-107493295D01*
X51087494Y-107317682D01*
X51113191Y-107278350D01*
X51166337Y-107232993D01*
X51235568Y-107223569D01*
X51298904Y-107253071D01*
X51320809Y-107278350D01*
X51346504Y-107317679D01*
X51346506Y-107317682D01*
X51508168Y-107493295D01*
X51696531Y-107639903D01*
X51906455Y-107753509D01*
X52132216Y-107831012D01*
X52367653Y-107870300D01*
X52367654Y-107870300D01*
X52606346Y-107870300D01*
X52606347Y-107870300D01*
X52841784Y-107831012D01*
X53067545Y-107753509D01*
X53277469Y-107639903D01*
X53465832Y-107493295D01*
X53627494Y-107317682D01*
X53653191Y-107278350D01*
X53706337Y-107232993D01*
X53775568Y-107223569D01*
X53838904Y-107253071D01*
X53860809Y-107278350D01*
X53886504Y-107317679D01*
X53886506Y-107317682D01*
X54048168Y-107493295D01*
X54236531Y-107639903D01*
X54446455Y-107753509D01*
X54672216Y-107831012D01*
X54907653Y-107870300D01*
X54907654Y-107870300D01*
X55146346Y-107870300D01*
X55146347Y-107870300D01*
X55381784Y-107831012D01*
X55607545Y-107753509D01*
X55817469Y-107639903D01*
X56005832Y-107493295D01*
X56167494Y-107317682D01*
X56193191Y-107278350D01*
X56246337Y-107232993D01*
X56315568Y-107223569D01*
X56378904Y-107253071D01*
X56400809Y-107278350D01*
X56426504Y-107317679D01*
X56426506Y-107317682D01*
X56588168Y-107493295D01*
X56776531Y-107639903D01*
X56986455Y-107753509D01*
X57212216Y-107831012D01*
X57447653Y-107870300D01*
X57447654Y-107870300D01*
X57686346Y-107870300D01*
X57686347Y-107870300D01*
X57921784Y-107831012D01*
X58147545Y-107753509D01*
X58357469Y-107639903D01*
X58545832Y-107493295D01*
X58707494Y-107317682D01*
X58733489Y-107277892D01*
X58786634Y-107232536D01*
X58855865Y-107223112D01*
X58919201Y-107252613D01*
X58922020Y-107255867D01*
X58927057Y-107256389D01*
X59617504Y-106565941D01*
X59633619Y-106626081D01*
X59700498Y-106741920D01*
X59795080Y-106836502D01*
X59910919Y-106903381D01*
X59971057Y-106919494D01*
X59279839Y-107610711D01*
X59279840Y-107610712D01*
X59316802Y-107639481D01*
X59316808Y-107639486D01*
X59526650Y-107753046D01*
X59526660Y-107753051D01*
X59752335Y-107830525D01*
X59987696Y-107869800D01*
X60226304Y-107869800D01*
X60461664Y-107830525D01*
X60687339Y-107753051D01*
X60687344Y-107753049D01*
X60897197Y-107639481D01*
X60897200Y-107639480D01*
X60934158Y-107610712D01*
X60934158Y-107610711D01*
X60242942Y-106919495D01*
X60303081Y-106903381D01*
X60418920Y-106836502D01*
X60513502Y-106741920D01*
X60580381Y-106626081D01*
X60596495Y-106565942D01*
X61170381Y-107139828D01*
X61203866Y-107201151D01*
X61206700Y-107227508D01*
X61206700Y-107417669D01*
X61206701Y-107417676D01*
X61213108Y-107477283D01*
X61263402Y-107612128D01*
X61263406Y-107612135D01*
X61349652Y-107727344D01*
X61349655Y-107727347D01*
X61464864Y-107813593D01*
X61464871Y-107813597D01*
X61599717Y-107863891D01*
X61599716Y-107863891D01*
X61606644Y-107864635D01*
X61659327Y-107870300D01*
X63634672Y-107870299D01*
X63694283Y-107863891D01*
X63829131Y-107813596D01*
X63944346Y-107727346D01*
X64030596Y-107612131D01*
X64080891Y-107477283D01*
X64087300Y-107417673D01*
X64087300Y-106663997D01*
X90927723Y-106663997D01*
X90927723Y-106664002D01*
X90946793Y-106881975D01*
X90946793Y-106881979D01*
X91003422Y-107093322D01*
X91003424Y-107093326D01*
X91003425Y-107093330D01*
X91025382Y-107140416D01*
X91095897Y-107291638D01*
X91120998Y-107327486D01*
X91221402Y-107470877D01*
X91376123Y-107625598D01*
X91555361Y-107751102D01*
X91753670Y-107843575D01*
X91965023Y-107900207D01*
X92147926Y-107916208D01*
X92182998Y-107919277D01*
X92183000Y-107919277D01*
X92183002Y-107919277D01*
X92211254Y-107916805D01*
X92400977Y-107900207D01*
X92612330Y-107843575D01*
X92810639Y-107751102D01*
X92989877Y-107625598D01*
X93144598Y-107470877D01*
X93270102Y-107291639D01*
X93340618Y-107140414D01*
X93386790Y-107087977D01*
X93453984Y-107068825D01*
X93520865Y-107089041D01*
X93565381Y-107140414D01*
X93635898Y-107291639D01*
X93761402Y-107470877D01*
X93916123Y-107625598D01*
X94095361Y-107751102D01*
X94293670Y-107843575D01*
X94505023Y-107900207D01*
X94687926Y-107916208D01*
X94722998Y-107919277D01*
X94723000Y-107919277D01*
X94723002Y-107919277D01*
X94751254Y-107916805D01*
X94940977Y-107900207D01*
X95152330Y-107843575D01*
X95350639Y-107751102D01*
X95529877Y-107625598D01*
X95684598Y-107470877D01*
X95810102Y-107291639D01*
X95880618Y-107140414D01*
X95926790Y-107087977D01*
X95993984Y-107068825D01*
X96060865Y-107089041D01*
X96105381Y-107140414D01*
X96175898Y-107291639D01*
X96301402Y-107470877D01*
X96456123Y-107625598D01*
X96635361Y-107751102D01*
X96833670Y-107843575D01*
X97045023Y-107900207D01*
X97227926Y-107916208D01*
X97262998Y-107919277D01*
X97263000Y-107919277D01*
X97263002Y-107919277D01*
X97291254Y-107916805D01*
X97480977Y-107900207D01*
X97692330Y-107843575D01*
X97890639Y-107751102D01*
X98069877Y-107625598D01*
X98224598Y-107470877D01*
X98326928Y-107324734D01*
X98381502Y-107281112D01*
X98451000Y-107273918D01*
X98513355Y-107305441D01*
X98548769Y-107365670D01*
X98552500Y-107395858D01*
X98552500Y-107461869D01*
X98552501Y-107461876D01*
X98558908Y-107521483D01*
X98609202Y-107656328D01*
X98609206Y-107656335D01*
X98695452Y-107771544D01*
X98695455Y-107771547D01*
X98810664Y-107857793D01*
X98810671Y-107857797D01*
X98945517Y-107908091D01*
X98945516Y-107908091D01*
X98952444Y-107908835D01*
X99005127Y-107914500D01*
X100600872Y-107914499D01*
X100660483Y-107908091D01*
X100795331Y-107857796D01*
X100910546Y-107771546D01*
X100996796Y-107656331D01*
X101047091Y-107521483D01*
X101053500Y-107461873D01*
X101053499Y-105866128D01*
X101047091Y-105806517D01*
X101023081Y-105742144D01*
X100996797Y-105671671D01*
X100996793Y-105671664D01*
X100910547Y-105556455D01*
X100910544Y-105556452D01*
X100795335Y-105470206D01*
X100795328Y-105470202D01*
X100660482Y-105419908D01*
X100660483Y-105419908D01*
X100600883Y-105413501D01*
X100600881Y-105413500D01*
X100600873Y-105413500D01*
X100600865Y-105413500D01*
X100533989Y-105413500D01*
X100466950Y-105393815D01*
X100421195Y-105341011D01*
X100411251Y-105271853D01*
X100440276Y-105208297D01*
X100462864Y-105187926D01*
X100492571Y-105167124D01*
X99932410Y-104606962D01*
X99995993Y-104589925D01*
X100110007Y-104524099D01*
X100203099Y-104431007D01*
X100268925Y-104316993D01*
X100285962Y-104253409D01*
X100846124Y-104813570D01*
X100889668Y-104751385D01*
X100889669Y-104751383D01*
X100982100Y-104553164D01*
X100982105Y-104553150D01*
X101038710Y-104341894D01*
X101038712Y-104341884D01*
X101057775Y-104124000D01*
X101057775Y-104123999D01*
X101038712Y-103906115D01*
X101038710Y-103906105D01*
X101034393Y-103889994D01*
X101841764Y-103889994D01*
X101841764Y-103890005D01*
X101861473Y-104127869D01*
X101861475Y-104127881D01*
X101920070Y-104359267D01*
X102005116Y-104553150D01*
X102015953Y-104577856D01*
X102146506Y-104777682D01*
X102308168Y-104953295D01*
X102308171Y-104953297D01*
X102308174Y-104953300D01*
X102448020Y-105062147D01*
X102488833Y-105118857D01*
X102492508Y-105188630D01*
X102457876Y-105249313D01*
X102448020Y-105257853D01*
X102308174Y-105366699D01*
X102308171Y-105366702D01*
X102308168Y-105366704D01*
X102308168Y-105366705D01*
X102274924Y-105402817D01*
X102146506Y-105542317D01*
X102015951Y-105742147D01*
X101920070Y-105960732D01*
X101861475Y-106192118D01*
X101861473Y-106192130D01*
X101841764Y-106429994D01*
X101841764Y-106430005D01*
X101861473Y-106667869D01*
X101861475Y-106667881D01*
X101920070Y-106899267D01*
X102005191Y-107093322D01*
X102015953Y-107117856D01*
X102146506Y-107317682D01*
X102308168Y-107493295D01*
X102496531Y-107639903D01*
X102706455Y-107753509D01*
X102932216Y-107831012D01*
X103167653Y-107870300D01*
X103167654Y-107870300D01*
X103406346Y-107870300D01*
X103406347Y-107870300D01*
X103641784Y-107831012D01*
X103867545Y-107753509D01*
X104077469Y-107639903D01*
X104265832Y-107493295D01*
X104427494Y-107317682D01*
X104453191Y-107278350D01*
X104506337Y-107232993D01*
X104575568Y-107223569D01*
X104638904Y-107253071D01*
X104660809Y-107278350D01*
X104686504Y-107317679D01*
X104686506Y-107317682D01*
X104848168Y-107493295D01*
X105036531Y-107639903D01*
X105246455Y-107753509D01*
X105472216Y-107831012D01*
X105707653Y-107870300D01*
X105707654Y-107870300D01*
X105946346Y-107870300D01*
X105946347Y-107870300D01*
X106181784Y-107831012D01*
X106407545Y-107753509D01*
X106617469Y-107639903D01*
X106805832Y-107493295D01*
X106967494Y-107317682D01*
X106993191Y-107278350D01*
X107046337Y-107232993D01*
X107115568Y-107223569D01*
X107178904Y-107253071D01*
X107200809Y-107278350D01*
X107226504Y-107317679D01*
X107226506Y-107317682D01*
X107388168Y-107493295D01*
X107576531Y-107639903D01*
X107786455Y-107753509D01*
X108012216Y-107831012D01*
X108247653Y-107870300D01*
X108247654Y-107870300D01*
X108486346Y-107870300D01*
X108486347Y-107870300D01*
X108721784Y-107831012D01*
X108947545Y-107753509D01*
X109157469Y-107639903D01*
X109345832Y-107493295D01*
X109507494Y-107317682D01*
X109533191Y-107278350D01*
X109586337Y-107232993D01*
X109655568Y-107223569D01*
X109718904Y-107253071D01*
X109740809Y-107278350D01*
X109766504Y-107317679D01*
X109766506Y-107317682D01*
X109928168Y-107493295D01*
X110116531Y-107639903D01*
X110326455Y-107753509D01*
X110552216Y-107831012D01*
X110787653Y-107870300D01*
X110787654Y-107870300D01*
X111026346Y-107870300D01*
X111026347Y-107870300D01*
X111261784Y-107831012D01*
X111487545Y-107753509D01*
X111697469Y-107639903D01*
X111885832Y-107493295D01*
X112047494Y-107317682D01*
X112073191Y-107278350D01*
X112126337Y-107232993D01*
X112195568Y-107223569D01*
X112258904Y-107253071D01*
X112280809Y-107278350D01*
X112306504Y-107317679D01*
X112306506Y-107317682D01*
X112468168Y-107493295D01*
X112656531Y-107639903D01*
X112866455Y-107753509D01*
X113092216Y-107831012D01*
X113327653Y-107870300D01*
X113327654Y-107870300D01*
X113566346Y-107870300D01*
X113566347Y-107870300D01*
X113801784Y-107831012D01*
X114027545Y-107753509D01*
X114237469Y-107639903D01*
X114425832Y-107493295D01*
X114587494Y-107317682D01*
X114613191Y-107278350D01*
X114666337Y-107232993D01*
X114735568Y-107223569D01*
X114798904Y-107253071D01*
X114820809Y-107278350D01*
X114846504Y-107317679D01*
X114846506Y-107317682D01*
X115008168Y-107493295D01*
X115196531Y-107639903D01*
X115406455Y-107753509D01*
X115632216Y-107831012D01*
X115867653Y-107870300D01*
X115867654Y-107870300D01*
X116106346Y-107870300D01*
X116106347Y-107870300D01*
X116341784Y-107831012D01*
X116567545Y-107753509D01*
X116777469Y-107639903D01*
X116965832Y-107493295D01*
X117127494Y-107317682D01*
X117153191Y-107278350D01*
X117206337Y-107232993D01*
X117275568Y-107223569D01*
X117338904Y-107253071D01*
X117360809Y-107278350D01*
X117386504Y-107317679D01*
X117386506Y-107317682D01*
X117548168Y-107493295D01*
X117736531Y-107639903D01*
X117946455Y-107753509D01*
X118172216Y-107831012D01*
X118407653Y-107870300D01*
X118407654Y-107870300D01*
X118646346Y-107870300D01*
X118646347Y-107870300D01*
X118881784Y-107831012D01*
X119107545Y-107753509D01*
X119317469Y-107639903D01*
X119505832Y-107493295D01*
X119667494Y-107317682D01*
X119693191Y-107278350D01*
X119746337Y-107232993D01*
X119815568Y-107223569D01*
X119878904Y-107253071D01*
X119900809Y-107278350D01*
X119926504Y-107317679D01*
X119926506Y-107317682D01*
X120088168Y-107493295D01*
X120276531Y-107639903D01*
X120486455Y-107753509D01*
X120712216Y-107831012D01*
X120947653Y-107870300D01*
X120947654Y-107870300D01*
X121186345Y-107870300D01*
X121186347Y-107870300D01*
X121345854Y-107843682D01*
X121415216Y-107852064D01*
X121453942Y-107878310D01*
X123158586Y-109582954D01*
X123188058Y-109602645D01*
X123232270Y-109632186D01*
X123281505Y-109665084D01*
X123281506Y-109665084D01*
X123281507Y-109665085D01*
X123281509Y-109665086D01*
X123418082Y-109721656D01*
X123418087Y-109721658D01*
X123418091Y-109721658D01*
X123418092Y-109721659D01*
X123563079Y-109750500D01*
X123563082Y-109750500D01*
X132073920Y-109750500D01*
X132171462Y-109731096D01*
X132218913Y-109721658D01*
X132355495Y-109665084D01*
X132478416Y-109582951D01*
X132582951Y-109478416D01*
X132665084Y-109355495D01*
X132721658Y-109218913D01*
X132750500Y-109073918D01*
X132750500Y-99959530D01*
X153519000Y-99959530D01*
X153519000Y-100200469D01*
X153550447Y-100439341D01*
X153612808Y-100672073D01*
X153705006Y-100894662D01*
X153705011Y-100894671D01*
X153825480Y-101103329D01*
X153825483Y-101103334D01*
X153825485Y-101103336D01*
X153972151Y-101294476D01*
X153972157Y-101294483D01*
X154142516Y-101464842D01*
X154142522Y-101464847D01*
X154333671Y-101611520D01*
X154542329Y-101731989D01*
X154542332Y-101731990D01*
X154542337Y-101731993D01*
X154662424Y-101781734D01*
X154764927Y-101824192D01*
X154997655Y-101886552D01*
X155176812Y-101910138D01*
X155236530Y-101918000D01*
X155236531Y-101918000D01*
X155477470Y-101918000D01*
X155525244Y-101911710D01*
X155716345Y-101886552D01*
X155949073Y-101824192D01*
X156124053Y-101751712D01*
X156171662Y-101731993D01*
X156171663Y-101731991D01*
X156171671Y-101731989D01*
X156380329Y-101611520D01*
X156571478Y-101464847D01*
X156741847Y-101294478D01*
X156888520Y-101103329D01*
X157008989Y-100894671D01*
X157101192Y-100672073D01*
X157163552Y-100439345D01*
X157195000Y-100200469D01*
X157195000Y-99959531D01*
X157163552Y-99720655D01*
X157101192Y-99487927D01*
X157058734Y-99385424D01*
X157008993Y-99265337D01*
X157008988Y-99265328D01*
X156888520Y-99056671D01*
X156741847Y-98865522D01*
X156741842Y-98865516D01*
X156571483Y-98695157D01*
X156571476Y-98695151D01*
X156380336Y-98548485D01*
X156380334Y-98548483D01*
X156380329Y-98548480D01*
X156171671Y-98428011D01*
X156171662Y-98428006D01*
X155949073Y-98335808D01*
X155716341Y-98273447D01*
X155477470Y-98242000D01*
X155477469Y-98242000D01*
X155236531Y-98242000D01*
X155236530Y-98242000D01*
X154997658Y-98273447D01*
X154764926Y-98335808D01*
X154542337Y-98428006D01*
X154542328Y-98428011D01*
X154416644Y-98500575D01*
X154333671Y-98548480D01*
X154333668Y-98548481D01*
X154333663Y-98548485D01*
X154142523Y-98695151D01*
X154142516Y-98695157D01*
X153972157Y-98865516D01*
X153972151Y-98865523D01*
X153825485Y-99056663D01*
X153705011Y-99265328D01*
X153705006Y-99265337D01*
X153612808Y-99487926D01*
X153550447Y-99720658D01*
X153519000Y-99959530D01*
X132750500Y-99959530D01*
X132750500Y-93612229D01*
X132770185Y-93545190D01*
X132786814Y-93524553D01*
X134433061Y-91878305D01*
X134469134Y-91855655D01*
X134468246Y-91853811D01*
X134474518Y-91850790D01*
X134474522Y-91850789D01*
X134627262Y-91754816D01*
X134754816Y-91627262D01*
X134850789Y-91474522D01*
X134910368Y-91304255D01*
X134910369Y-91304249D01*
X134930565Y-91125003D01*
X134930565Y-91124996D01*
X134910369Y-90945750D01*
X134910368Y-90945745D01*
X134865296Y-90816937D01*
X134850789Y-90775478D01*
X134754816Y-90622738D01*
X134627262Y-90495184D01*
X134474523Y-90399211D01*
X134304254Y-90339631D01*
X134304249Y-90339630D01*
X134125004Y-90319435D01*
X134124996Y-90319435D01*
X133945750Y-90339630D01*
X133945745Y-90339631D01*
X133775476Y-90399211D01*
X133622737Y-90495184D01*
X133495184Y-90622737D01*
X133399211Y-90775478D01*
X133396188Y-90781756D01*
X133394362Y-90780876D01*
X133371693Y-90816937D01*
X131417050Y-92771580D01*
X131417044Y-92771588D01*
X131367812Y-92845268D01*
X131367813Y-92845269D01*
X131334921Y-92894496D01*
X131334914Y-92894508D01*
X131278342Y-93031086D01*
X131278340Y-93031092D01*
X131249500Y-93176079D01*
X131249500Y-108125500D01*
X131229815Y-108192539D01*
X131177011Y-108238294D01*
X131125500Y-108249500D01*
X123999230Y-108249500D01*
X123932191Y-108229815D01*
X123911549Y-108213181D01*
X123761122Y-108062754D01*
X123727637Y-108001431D01*
X123732621Y-107931739D01*
X123774493Y-107875806D01*
X123828394Y-107852764D01*
X123961663Y-107830525D01*
X124187339Y-107753051D01*
X124187344Y-107753049D01*
X124397197Y-107639481D01*
X124397200Y-107639480D01*
X124434158Y-107610712D01*
X124434158Y-107610711D01*
X123742941Y-106919495D01*
X123803081Y-106903381D01*
X123918920Y-106836502D01*
X124013502Y-106741920D01*
X124080381Y-106626081D01*
X124096495Y-106565942D01*
X124670381Y-107139828D01*
X124703866Y-107201151D01*
X124706700Y-107227508D01*
X124706700Y-107417669D01*
X124706701Y-107417676D01*
X124713108Y-107477283D01*
X124763402Y-107612128D01*
X124763406Y-107612135D01*
X124849652Y-107727344D01*
X124849655Y-107727347D01*
X124964864Y-107813593D01*
X124964871Y-107813597D01*
X125099717Y-107863891D01*
X125099716Y-107863891D01*
X125106644Y-107864635D01*
X125159327Y-107870300D01*
X127134672Y-107870299D01*
X127194283Y-107863891D01*
X127329131Y-107813596D01*
X127444346Y-107727346D01*
X127530596Y-107612131D01*
X127580891Y-107477283D01*
X127587300Y-107417673D01*
X127587299Y-105442328D01*
X127580891Y-105382717D01*
X127577772Y-105374355D01*
X127530597Y-105247871D01*
X127530595Y-105247868D01*
X127529653Y-105246610D01*
X127520446Y-105234311D01*
X127496029Y-105168848D01*
X127510880Y-105100575D01*
X127520447Y-105085688D01*
X127530596Y-105072131D01*
X127580891Y-104937283D01*
X127587300Y-104877673D01*
X127587299Y-102902328D01*
X127580891Y-102842717D01*
X127575832Y-102829154D01*
X127530597Y-102707871D01*
X127530593Y-102707864D01*
X127444347Y-102592655D01*
X127444344Y-102592652D01*
X127329135Y-102506406D01*
X127329128Y-102506402D01*
X127194282Y-102456108D01*
X127194283Y-102456108D01*
X127134683Y-102449701D01*
X127134681Y-102449700D01*
X127134673Y-102449700D01*
X127134664Y-102449700D01*
X125159329Y-102449700D01*
X125159323Y-102449701D01*
X125099716Y-102456108D01*
X124964871Y-102506402D01*
X124964864Y-102506406D01*
X124849655Y-102592652D01*
X124849652Y-102592655D01*
X124763406Y-102707864D01*
X124763402Y-102707872D01*
X124748134Y-102748806D01*
X124706262Y-102804738D01*
X124640797Y-102829154D01*
X124572524Y-102814301D01*
X124555791Y-102803323D01*
X124397477Y-102680102D01*
X124397471Y-102680098D01*
X124187546Y-102566491D01*
X124187541Y-102566489D01*
X123961786Y-102488988D01*
X123804826Y-102462796D01*
X123726347Y-102449700D01*
X123487653Y-102449700D01*
X123428793Y-102459522D01*
X123252213Y-102488988D01*
X123026458Y-102566489D01*
X123026453Y-102566491D01*
X122816529Y-102680098D01*
X122628169Y-102826704D01*
X122466508Y-103002315D01*
X122466506Y-103002317D01*
X122466506Y-103002318D01*
X122443630Y-103037333D01*
X122440808Y-103041652D01*
X122387661Y-103087008D01*
X122318430Y-103096431D01*
X122255094Y-103066928D01*
X122233192Y-103041652D01*
X122207494Y-103002318D01*
X122045832Y-102826705D01*
X121857469Y-102680097D01*
X121752295Y-102623179D01*
X121647546Y-102566491D01*
X121647541Y-102566489D01*
X121421786Y-102488988D01*
X121264826Y-102462796D01*
X121186347Y-102449700D01*
X120947653Y-102449700D01*
X120888793Y-102459522D01*
X120712213Y-102488988D01*
X120486458Y-102566489D01*
X120486453Y-102566491D01*
X120276529Y-102680098D01*
X120088169Y-102826704D01*
X119926508Y-103002315D01*
X119926506Y-103002317D01*
X119926506Y-103002318D01*
X119903630Y-103037333D01*
X119900808Y-103041652D01*
X119847661Y-103087008D01*
X119778430Y-103096431D01*
X119715094Y-103066928D01*
X119693192Y-103041652D01*
X119667494Y-103002318D01*
X119505832Y-102826705D01*
X119317469Y-102680097D01*
X119212295Y-102623179D01*
X119107546Y-102566491D01*
X119107541Y-102566489D01*
X118881786Y-102488988D01*
X118724826Y-102462796D01*
X118646347Y-102449700D01*
X118407653Y-102449700D01*
X118348793Y-102459522D01*
X118172213Y-102488988D01*
X117946458Y-102566489D01*
X117946453Y-102566491D01*
X117736529Y-102680098D01*
X117548169Y-102826704D01*
X117386508Y-103002315D01*
X117386506Y-103002317D01*
X117386506Y-103002318D01*
X117363630Y-103037333D01*
X117360808Y-103041652D01*
X117307661Y-103087008D01*
X117238430Y-103096431D01*
X117175094Y-103066928D01*
X117153192Y-103041652D01*
X117127494Y-103002318D01*
X116965832Y-102826705D01*
X116777469Y-102680097D01*
X116672295Y-102623179D01*
X116567546Y-102566491D01*
X116567541Y-102566489D01*
X116341786Y-102488988D01*
X116184826Y-102462796D01*
X116106347Y-102449700D01*
X115867653Y-102449700D01*
X115808793Y-102459522D01*
X115632213Y-102488988D01*
X115406458Y-102566489D01*
X115406453Y-102566491D01*
X115196529Y-102680098D01*
X115008169Y-102826704D01*
X114846508Y-103002315D01*
X114846506Y-103002317D01*
X114846506Y-103002318D01*
X114823630Y-103037333D01*
X114820808Y-103041652D01*
X114767661Y-103087008D01*
X114698430Y-103096431D01*
X114635094Y-103066928D01*
X114613192Y-103041652D01*
X114587494Y-103002318D01*
X114425832Y-102826705D01*
X114237469Y-102680097D01*
X114132295Y-102623179D01*
X114027546Y-102566491D01*
X114027541Y-102566489D01*
X113801786Y-102488988D01*
X113644826Y-102462796D01*
X113566347Y-102449700D01*
X113327653Y-102449700D01*
X113268793Y-102459522D01*
X113092213Y-102488988D01*
X112866458Y-102566489D01*
X112866453Y-102566491D01*
X112656529Y-102680098D01*
X112468169Y-102826704D01*
X112306508Y-103002315D01*
X112306506Y-103002317D01*
X112306506Y-103002318D01*
X112283630Y-103037333D01*
X112280808Y-103041652D01*
X112227661Y-103087008D01*
X112158430Y-103096431D01*
X112095094Y-103066928D01*
X112073192Y-103041652D01*
X112047494Y-103002318D01*
X111885832Y-102826705D01*
X111697469Y-102680097D01*
X111592295Y-102623179D01*
X111487546Y-102566491D01*
X111487541Y-102566489D01*
X111261786Y-102488988D01*
X111104826Y-102462796D01*
X111026347Y-102449700D01*
X110787653Y-102449700D01*
X110728793Y-102459522D01*
X110552213Y-102488988D01*
X110326458Y-102566489D01*
X110326453Y-102566491D01*
X110116529Y-102680098D01*
X109928169Y-102826704D01*
X109766508Y-103002315D01*
X109766506Y-103002317D01*
X109766506Y-103002318D01*
X109743630Y-103037333D01*
X109740808Y-103041652D01*
X109687661Y-103087008D01*
X109618430Y-103096431D01*
X109555094Y-103066928D01*
X109533192Y-103041652D01*
X109507494Y-103002318D01*
X109345832Y-102826705D01*
X109157469Y-102680097D01*
X109052295Y-102623179D01*
X108947546Y-102566491D01*
X108947541Y-102566489D01*
X108721786Y-102488988D01*
X108564826Y-102462796D01*
X108486347Y-102449700D01*
X108247653Y-102449700D01*
X108188793Y-102459522D01*
X108012213Y-102488988D01*
X107786458Y-102566489D01*
X107786453Y-102566491D01*
X107576529Y-102680098D01*
X107388169Y-102826704D01*
X107226508Y-103002315D01*
X107226506Y-103002317D01*
X107226506Y-103002318D01*
X107203630Y-103037333D01*
X107200808Y-103041652D01*
X107147661Y-103087008D01*
X107078430Y-103096431D01*
X107015094Y-103066928D01*
X106993192Y-103041652D01*
X106967494Y-103002318D01*
X106805832Y-102826705D01*
X106617469Y-102680097D01*
X106512295Y-102623179D01*
X106407546Y-102566491D01*
X106407541Y-102566489D01*
X106181786Y-102488988D01*
X106024826Y-102462796D01*
X105946347Y-102449700D01*
X105707653Y-102449700D01*
X105648793Y-102459522D01*
X105472213Y-102488988D01*
X105246458Y-102566489D01*
X105246453Y-102566491D01*
X105036529Y-102680098D01*
X104848169Y-102826704D01*
X104686508Y-103002315D01*
X104686506Y-103002317D01*
X104686506Y-103002318D01*
X104663630Y-103037333D01*
X104660808Y-103041652D01*
X104607661Y-103087008D01*
X104538430Y-103096431D01*
X104475094Y-103066928D01*
X104453192Y-103041652D01*
X104427494Y-103002318D01*
X104265832Y-102826705D01*
X104077469Y-102680097D01*
X103972295Y-102623179D01*
X103867546Y-102566491D01*
X103867541Y-102566489D01*
X103641786Y-102488988D01*
X103484826Y-102462796D01*
X103406347Y-102449700D01*
X103167653Y-102449700D01*
X103108793Y-102459522D01*
X102932213Y-102488988D01*
X102706458Y-102566489D01*
X102706453Y-102566491D01*
X102496529Y-102680098D01*
X102308169Y-102826704D01*
X102146506Y-103002317D01*
X102015951Y-103202147D01*
X101920070Y-103420732D01*
X101861475Y-103652118D01*
X101861473Y-103652130D01*
X101841764Y-103889994D01*
X101034393Y-103889994D01*
X100982105Y-103694849D01*
X100982101Y-103694840D01*
X100889668Y-103496615D01*
X100846123Y-103434428D01*
X100285962Y-103994589D01*
X100268925Y-103931007D01*
X100203099Y-103816993D01*
X100110007Y-103723901D01*
X99995993Y-103658075D01*
X99932409Y-103641037D01*
X100492571Y-103080874D01*
X100430387Y-103037333D01*
X100232159Y-102944898D01*
X100232150Y-102944894D01*
X100020894Y-102888289D01*
X100020884Y-102888287D01*
X99803001Y-102869225D01*
X99802999Y-102869225D01*
X99585115Y-102888287D01*
X99585105Y-102888289D01*
X99373849Y-102944894D01*
X99373840Y-102944898D01*
X99175614Y-103037332D01*
X99175612Y-103037333D01*
X99113428Y-103080875D01*
X99113427Y-103080875D01*
X99673590Y-103641037D01*
X99610007Y-103658075D01*
X99495993Y-103723901D01*
X99402901Y-103816993D01*
X99337075Y-103931007D01*
X99320037Y-103994590D01*
X98759875Y-103434427D01*
X98759875Y-103434428D01*
X98716333Y-103496612D01*
X98716332Y-103496614D01*
X98645382Y-103648767D01*
X98599209Y-103701206D01*
X98532016Y-103720358D01*
X98465135Y-103700142D01*
X98420618Y-103648767D01*
X98349668Y-103496615D01*
X98306123Y-103434428D01*
X97745962Y-103994589D01*
X97728925Y-103931007D01*
X97663099Y-103816993D01*
X97570007Y-103723901D01*
X97455993Y-103658075D01*
X97392409Y-103641037D01*
X97952571Y-103080874D01*
X97890387Y-103037333D01*
X97692159Y-102944898D01*
X97692150Y-102944894D01*
X97480894Y-102888289D01*
X97480884Y-102888287D01*
X97263001Y-102869225D01*
X97262999Y-102869225D01*
X97045115Y-102888287D01*
X97045105Y-102888289D01*
X96833849Y-102944894D01*
X96833840Y-102944898D01*
X96635614Y-103037332D01*
X96635612Y-103037333D01*
X96573428Y-103080875D01*
X96573427Y-103080875D01*
X97133590Y-103641037D01*
X97070007Y-103658075D01*
X96955993Y-103723901D01*
X96862901Y-103816993D01*
X96797075Y-103931007D01*
X96780037Y-103994590D01*
X96219875Y-103434427D01*
X96219875Y-103434428D01*
X96176333Y-103496612D01*
X96176332Y-103496614D01*
X96105382Y-103648767D01*
X96059209Y-103701206D01*
X95992016Y-103720358D01*
X95925135Y-103700142D01*
X95880618Y-103648767D01*
X95809668Y-103496615D01*
X95766123Y-103434428D01*
X95205962Y-103994589D01*
X95188925Y-103931007D01*
X95123099Y-103816993D01*
X95030007Y-103723901D01*
X94915993Y-103658075D01*
X94852409Y-103641037D01*
X95412571Y-103080874D01*
X95350387Y-103037333D01*
X95152159Y-102944898D01*
X95152150Y-102944894D01*
X94940894Y-102888289D01*
X94940884Y-102888287D01*
X94723001Y-102869225D01*
X94722999Y-102869225D01*
X94505115Y-102888287D01*
X94505105Y-102888289D01*
X94293849Y-102944894D01*
X94293840Y-102944898D01*
X94095614Y-103037332D01*
X94095612Y-103037333D01*
X94033428Y-103080875D01*
X94033427Y-103080875D01*
X94593590Y-103641037D01*
X94530007Y-103658075D01*
X94415993Y-103723901D01*
X94322901Y-103816993D01*
X94257075Y-103931007D01*
X94240037Y-103994590D01*
X93679875Y-103434427D01*
X93679875Y-103434428D01*
X93636333Y-103496612D01*
X93636332Y-103496614D01*
X93565382Y-103648767D01*
X93519209Y-103701206D01*
X93452016Y-103720358D01*
X93385135Y-103700142D01*
X93340618Y-103648767D01*
X93269668Y-103496615D01*
X93226123Y-103434428D01*
X92665962Y-103994589D01*
X92648925Y-103931007D01*
X92583099Y-103816993D01*
X92490007Y-103723901D01*
X92375993Y-103658075D01*
X92312409Y-103641037D01*
X92872571Y-103080874D01*
X92810387Y-103037333D01*
X92612159Y-102944898D01*
X92612150Y-102944894D01*
X92400894Y-102888289D01*
X92400884Y-102888287D01*
X92183001Y-102869225D01*
X92182999Y-102869225D01*
X91965115Y-102888287D01*
X91965105Y-102888289D01*
X91753849Y-102944894D01*
X91753840Y-102944898D01*
X91555614Y-103037332D01*
X91555612Y-103037333D01*
X91493428Y-103080875D01*
X91493427Y-103080875D01*
X92053590Y-103641037D01*
X91990007Y-103658075D01*
X91875993Y-103723901D01*
X91782901Y-103816993D01*
X91717075Y-103931007D01*
X91700037Y-103994590D01*
X91139875Y-103434427D01*
X91139875Y-103434428D01*
X91096333Y-103496612D01*
X91096332Y-103496614D01*
X91003898Y-103694840D01*
X91003894Y-103694849D01*
X90947289Y-103906105D01*
X90947287Y-103906115D01*
X90928225Y-104123999D01*
X90928225Y-104124000D01*
X90947287Y-104341884D01*
X90947289Y-104341894D01*
X91003894Y-104553150D01*
X91003898Y-104553159D01*
X91096333Y-104751387D01*
X91139874Y-104813571D01*
X91700037Y-104253408D01*
X91717075Y-104316993D01*
X91782901Y-104431007D01*
X91875993Y-104524099D01*
X91990007Y-104589925D01*
X92053590Y-104606962D01*
X91493427Y-105167124D01*
X91555613Y-105210667D01*
X91555615Y-105210668D01*
X91707174Y-105281341D01*
X91759614Y-105327513D01*
X91778766Y-105394706D01*
X91758551Y-105461588D01*
X91707176Y-105506105D01*
X91555358Y-105576900D01*
X91555357Y-105576900D01*
X91376121Y-105702402D01*
X91221402Y-105857121D01*
X91095900Y-106036357D01*
X91095898Y-106036361D01*
X91003426Y-106234668D01*
X91003422Y-106234677D01*
X90946793Y-106446020D01*
X90946793Y-106446024D01*
X90927723Y-106663997D01*
X64087300Y-106663997D01*
X64087299Y-105442328D01*
X64080891Y-105382717D01*
X64077772Y-105374355D01*
X64030597Y-105247871D01*
X64030595Y-105247868D01*
X64029653Y-105246610D01*
X64020446Y-105234311D01*
X63996029Y-105168848D01*
X64010880Y-105100575D01*
X64020447Y-105085688D01*
X64030596Y-105072131D01*
X64080891Y-104937283D01*
X64087300Y-104877673D01*
X64087299Y-102902328D01*
X64080891Y-102842717D01*
X64075832Y-102829154D01*
X64030597Y-102707871D01*
X64030593Y-102707864D01*
X63944347Y-102592655D01*
X63944344Y-102592652D01*
X63829135Y-102506406D01*
X63829128Y-102506402D01*
X63694282Y-102456108D01*
X63694283Y-102456108D01*
X63634683Y-102449701D01*
X63634681Y-102449700D01*
X63634673Y-102449700D01*
X63634664Y-102449700D01*
X61659329Y-102449700D01*
X61659323Y-102449701D01*
X61599716Y-102456108D01*
X61464871Y-102506402D01*
X61464864Y-102506406D01*
X61349655Y-102592652D01*
X61349652Y-102592655D01*
X61263406Y-102707864D01*
X61263402Y-102707872D01*
X61248134Y-102748806D01*
X61206262Y-102804738D01*
X61140797Y-102829154D01*
X61072524Y-102814301D01*
X61055791Y-102803323D01*
X60897477Y-102680102D01*
X60897471Y-102680098D01*
X60687546Y-102566491D01*
X60687541Y-102566489D01*
X60461786Y-102488988D01*
X60304826Y-102462796D01*
X60226347Y-102449700D01*
X59987653Y-102449700D01*
X59928793Y-102459522D01*
X59752213Y-102488988D01*
X59526458Y-102566489D01*
X59526453Y-102566491D01*
X59316529Y-102680098D01*
X59128169Y-102826704D01*
X58966508Y-103002315D01*
X58966506Y-103002317D01*
X58966506Y-103002318D01*
X58943630Y-103037333D01*
X58940808Y-103041652D01*
X58887661Y-103087008D01*
X58818430Y-103096431D01*
X58755094Y-103066928D01*
X58733192Y-103041652D01*
X58707494Y-103002318D01*
X58545832Y-102826705D01*
X58357469Y-102680097D01*
X58252295Y-102623179D01*
X58147546Y-102566491D01*
X58147541Y-102566489D01*
X57921786Y-102488988D01*
X57764826Y-102462796D01*
X57686347Y-102449700D01*
X57447653Y-102449700D01*
X57388793Y-102459522D01*
X57212213Y-102488988D01*
X56986458Y-102566489D01*
X56986453Y-102566491D01*
X56776529Y-102680098D01*
X56588169Y-102826704D01*
X56426508Y-103002315D01*
X56426506Y-103002317D01*
X56426506Y-103002318D01*
X56403630Y-103037333D01*
X56400808Y-103041652D01*
X56347661Y-103087008D01*
X56278430Y-103096431D01*
X56215094Y-103066928D01*
X56193192Y-103041652D01*
X56167494Y-103002318D01*
X56005832Y-102826705D01*
X55817469Y-102680097D01*
X55712295Y-102623179D01*
X55607546Y-102566491D01*
X55607541Y-102566489D01*
X55381786Y-102488988D01*
X55224826Y-102462796D01*
X55146347Y-102449700D01*
X54907653Y-102449700D01*
X54848793Y-102459522D01*
X54672213Y-102488988D01*
X54446458Y-102566489D01*
X54446453Y-102566491D01*
X54236529Y-102680098D01*
X54048169Y-102826704D01*
X53886508Y-103002315D01*
X53886506Y-103002317D01*
X53886506Y-103002318D01*
X53863630Y-103037333D01*
X53860808Y-103041652D01*
X53807661Y-103087008D01*
X53738430Y-103096431D01*
X53675094Y-103066928D01*
X53653192Y-103041652D01*
X53627494Y-103002318D01*
X53465832Y-102826705D01*
X53277469Y-102680097D01*
X53172295Y-102623179D01*
X53067546Y-102566491D01*
X53067541Y-102566489D01*
X52841786Y-102488988D01*
X52684826Y-102462796D01*
X52606347Y-102449700D01*
X52367653Y-102449700D01*
X52308793Y-102459522D01*
X52132213Y-102488988D01*
X51906458Y-102566489D01*
X51906453Y-102566491D01*
X51696529Y-102680098D01*
X51508169Y-102826704D01*
X51346508Y-103002315D01*
X51346506Y-103002317D01*
X51346506Y-103002318D01*
X51323630Y-103037333D01*
X51320808Y-103041652D01*
X51267661Y-103087008D01*
X51198430Y-103096431D01*
X51135094Y-103066928D01*
X51113192Y-103041652D01*
X51087494Y-103002318D01*
X50925832Y-102826705D01*
X50737469Y-102680097D01*
X50632295Y-102623179D01*
X50527546Y-102566491D01*
X50527541Y-102566489D01*
X50301786Y-102488988D01*
X50144826Y-102462796D01*
X50066347Y-102449700D01*
X49827653Y-102449700D01*
X49768793Y-102459522D01*
X49592213Y-102488988D01*
X49366458Y-102566489D01*
X49366453Y-102566491D01*
X49156529Y-102680098D01*
X48968169Y-102826704D01*
X48806508Y-103002315D01*
X48806506Y-103002317D01*
X48806506Y-103002318D01*
X48783630Y-103037333D01*
X48780808Y-103041652D01*
X48727661Y-103087008D01*
X48658430Y-103096431D01*
X48595094Y-103066928D01*
X48573192Y-103041652D01*
X48547494Y-103002318D01*
X48385832Y-102826705D01*
X48197469Y-102680097D01*
X48092295Y-102623179D01*
X47987546Y-102566491D01*
X47987541Y-102566489D01*
X47761786Y-102488988D01*
X47604826Y-102462796D01*
X47526347Y-102449700D01*
X47287653Y-102449700D01*
X47228793Y-102459522D01*
X47052213Y-102488988D01*
X46826458Y-102566489D01*
X46826453Y-102566491D01*
X46616529Y-102680098D01*
X46428169Y-102826704D01*
X46266508Y-103002315D01*
X46266506Y-103002317D01*
X46266506Y-103002318D01*
X46243630Y-103037333D01*
X46240808Y-103041652D01*
X46187661Y-103087008D01*
X46118430Y-103096431D01*
X46055094Y-103066928D01*
X46033192Y-103041652D01*
X46007494Y-103002318D01*
X45845832Y-102826705D01*
X45657469Y-102680097D01*
X45552295Y-102623179D01*
X45447546Y-102566491D01*
X45447541Y-102566489D01*
X45221786Y-102488988D01*
X45064826Y-102462796D01*
X44986347Y-102449700D01*
X44747653Y-102449700D01*
X44688793Y-102459522D01*
X44512213Y-102488988D01*
X44286458Y-102566489D01*
X44286453Y-102566491D01*
X44076529Y-102680098D01*
X43888169Y-102826704D01*
X43726508Y-103002315D01*
X43726506Y-103002317D01*
X43726506Y-103002318D01*
X43703630Y-103037333D01*
X43700808Y-103041652D01*
X43647661Y-103087008D01*
X43578430Y-103096431D01*
X43515094Y-103066928D01*
X43493192Y-103041652D01*
X43467494Y-103002318D01*
X43305832Y-102826705D01*
X43117469Y-102680097D01*
X43012295Y-102623179D01*
X42907546Y-102566491D01*
X42907541Y-102566489D01*
X42681786Y-102488988D01*
X42524826Y-102462796D01*
X42446347Y-102449700D01*
X42207653Y-102449700D01*
X42148793Y-102459522D01*
X41972213Y-102488988D01*
X41746458Y-102566489D01*
X41746453Y-102566491D01*
X41536529Y-102680098D01*
X41348169Y-102826704D01*
X41186508Y-103002315D01*
X41186506Y-103002317D01*
X41186506Y-103002318D01*
X41163630Y-103037333D01*
X41160808Y-103041652D01*
X41107661Y-103087008D01*
X41038430Y-103096431D01*
X40975094Y-103066928D01*
X40953192Y-103041652D01*
X40927494Y-103002318D01*
X40765832Y-102826705D01*
X40577469Y-102680097D01*
X40472295Y-102623179D01*
X40367546Y-102566491D01*
X40367541Y-102566489D01*
X40141786Y-102488988D01*
X39984826Y-102462796D01*
X39906347Y-102449700D01*
X39667653Y-102449700D01*
X39608793Y-102459522D01*
X39432213Y-102488988D01*
X39206458Y-102566489D01*
X39206453Y-102566491D01*
X38996529Y-102680098D01*
X38808169Y-102826704D01*
X38646506Y-103002317D01*
X38515951Y-103202147D01*
X38420070Y-103420732D01*
X38361475Y-103652118D01*
X38361473Y-103652130D01*
X38341764Y-103889994D01*
X35973821Y-103889994D01*
X35954575Y-103670023D01*
X35954573Y-103670013D01*
X35897424Y-103456729D01*
X35897420Y-103456720D01*
X35804096Y-103256586D01*
X35758741Y-103191811D01*
X35758740Y-103191810D01*
X35196494Y-103754056D01*
X35180381Y-103693919D01*
X35113502Y-103578080D01*
X35018920Y-103483498D01*
X34903081Y-103416619D01*
X34842941Y-103400504D01*
X35405188Y-102838258D01*
X35340411Y-102792901D01*
X35340405Y-102792898D01*
X35140284Y-102699580D01*
X35140270Y-102699575D01*
X34926986Y-102642426D01*
X34926976Y-102642424D01*
X34707001Y-102623179D01*
X34706999Y-102623179D01*
X34487023Y-102642424D01*
X34487013Y-102642426D01*
X34273729Y-102699575D01*
X34273720Y-102699579D01*
X34073590Y-102792901D01*
X34008811Y-102838258D01*
X34571058Y-103400504D01*
X34510919Y-103416619D01*
X34395080Y-103483498D01*
X34300498Y-103578080D01*
X34233619Y-103693919D01*
X34217504Y-103754057D01*
X33655258Y-103191811D01*
X33609901Y-103256590D01*
X33549382Y-103386373D01*
X33503209Y-103438812D01*
X33436016Y-103457964D01*
X33369135Y-103437748D01*
X33324618Y-103386373D01*
X33264096Y-103256586D01*
X33218741Y-103191811D01*
X33218740Y-103191810D01*
X32656494Y-103754056D01*
X32640381Y-103693919D01*
X32573502Y-103578080D01*
X32478920Y-103483498D01*
X32363081Y-103416619D01*
X32302941Y-103400504D01*
X32865188Y-102838258D01*
X32800411Y-102792901D01*
X32800405Y-102792898D01*
X32600284Y-102699580D01*
X32600270Y-102699575D01*
X32386986Y-102642426D01*
X32386976Y-102642424D01*
X32167001Y-102623179D01*
X32166999Y-102623179D01*
X31947023Y-102642424D01*
X31947013Y-102642426D01*
X31733729Y-102699575D01*
X31733720Y-102699579D01*
X31533590Y-102792901D01*
X31468811Y-102838258D01*
X32031058Y-103400504D01*
X31970919Y-103416619D01*
X31855080Y-103483498D01*
X31760498Y-103578080D01*
X31693619Y-103693919D01*
X31677504Y-103754057D01*
X31115257Y-103191810D01*
X31115075Y-103192072D01*
X31060498Y-103235698D01*
X30991000Y-103242892D01*
X30928645Y-103211370D01*
X30893230Y-103151141D01*
X30889499Y-103120950D01*
X30889499Y-103080129D01*
X30889498Y-103080123D01*
X30889497Y-103080116D01*
X30883091Y-103020517D01*
X30876303Y-103002318D01*
X30832797Y-102885671D01*
X30832793Y-102885664D01*
X30746547Y-102770455D01*
X30746544Y-102770452D01*
X30631335Y-102684206D01*
X30631328Y-102684202D01*
X30496482Y-102633908D01*
X30496483Y-102633908D01*
X30436883Y-102627501D01*
X30436881Y-102627500D01*
X30436873Y-102627500D01*
X30436864Y-102627500D01*
X28817129Y-102627500D01*
X28817123Y-102627501D01*
X28757516Y-102633908D01*
X28622671Y-102684202D01*
X28622664Y-102684206D01*
X28507455Y-102770452D01*
X28507452Y-102770455D01*
X28421206Y-102885664D01*
X28421202Y-102885671D01*
X28370908Y-103020517D01*
X28365919Y-103066928D01*
X28364501Y-103080123D01*
X28364500Y-103080135D01*
X26500500Y-103080135D01*
X26500500Y-99959530D01*
X29059000Y-99959530D01*
X29059000Y-100200469D01*
X29090447Y-100439341D01*
X29152808Y-100672073D01*
X29245006Y-100894662D01*
X29245011Y-100894671D01*
X29365480Y-101103329D01*
X29365483Y-101103334D01*
X29365485Y-101103336D01*
X29512151Y-101294476D01*
X29512157Y-101294483D01*
X29682516Y-101464842D01*
X29682522Y-101464847D01*
X29873671Y-101611520D01*
X30082329Y-101731989D01*
X30082332Y-101731990D01*
X30082337Y-101731993D01*
X30202424Y-101781734D01*
X30304927Y-101824192D01*
X30537655Y-101886552D01*
X30716812Y-101910138D01*
X30776530Y-101918000D01*
X30776531Y-101918000D01*
X31017470Y-101918000D01*
X31065244Y-101911710D01*
X31256345Y-101886552D01*
X31489073Y-101824192D01*
X31664053Y-101751712D01*
X31711662Y-101731993D01*
X31711663Y-101731991D01*
X31711671Y-101731989D01*
X31920329Y-101611520D01*
X32111478Y-101464847D01*
X32281847Y-101294478D01*
X32428520Y-101103329D01*
X32548989Y-100894671D01*
X32641192Y-100672073D01*
X32703552Y-100439345D01*
X32735000Y-100200469D01*
X32735000Y-99959531D01*
X32703552Y-99720655D01*
X32641192Y-99487927D01*
X32598734Y-99385424D01*
X32548993Y-99265337D01*
X32548988Y-99265328D01*
X32428520Y-99056671D01*
X32281847Y-98865522D01*
X32281842Y-98865516D01*
X32111483Y-98695157D01*
X32111476Y-98695151D01*
X31920336Y-98548485D01*
X31920334Y-98548483D01*
X31920329Y-98548480D01*
X31711671Y-98428011D01*
X31711662Y-98428006D01*
X31489073Y-98335808D01*
X31256341Y-98273447D01*
X31017470Y-98242000D01*
X31017469Y-98242000D01*
X30776531Y-98242000D01*
X30776530Y-98242000D01*
X30537658Y-98273447D01*
X30304926Y-98335808D01*
X30082337Y-98428006D01*
X30082328Y-98428011D01*
X29956644Y-98500575D01*
X29873671Y-98548480D01*
X29873668Y-98548481D01*
X29873663Y-98548485D01*
X29682523Y-98695151D01*
X29682516Y-98695157D01*
X29512157Y-98865516D01*
X29512151Y-98865523D01*
X29365485Y-99056663D01*
X29245011Y-99265328D01*
X29245006Y-99265337D01*
X29152808Y-99487926D01*
X29090447Y-99720658D01*
X29059000Y-99959530D01*
X26500500Y-99959530D01*
X26500500Y-89492135D01*
X45829700Y-89492135D01*
X45829700Y-90857870D01*
X45829701Y-90857876D01*
X45836108Y-90917483D01*
X45886402Y-91052328D01*
X45886406Y-91052335D01*
X45972652Y-91167544D01*
X45972655Y-91167547D01*
X46087864Y-91253793D01*
X46087871Y-91253797D01*
X46222717Y-91304091D01*
X46222716Y-91304091D01*
X46224242Y-91304255D01*
X46282327Y-91310500D01*
X47648072Y-91310499D01*
X47707683Y-91304091D01*
X47842531Y-91253796D01*
X47957746Y-91167546D01*
X48043996Y-91052331D01*
X48094291Y-90917483D01*
X48100700Y-90857873D01*
X48100699Y-90174999D01*
X48365338Y-90174999D01*
X48365338Y-90175000D01*
X48384745Y-90384444D01*
X48442311Y-90586769D01*
X48536070Y-90775059D01*
X48542745Y-90783899D01*
X49124200Y-90202445D01*
X49124200Y-90225160D01*
X49150164Y-90322061D01*
X49200324Y-90408940D01*
X49271260Y-90479876D01*
X49358139Y-90530036D01*
X49455040Y-90556000D01*
X49477754Y-90556000D01*
X48899089Y-91134663D01*
X48899089Y-91134664D01*
X48997119Y-91195362D01*
X48997120Y-91195363D01*
X49193263Y-91271348D01*
X49400029Y-91310000D01*
X49610371Y-91310000D01*
X49817135Y-91271348D01*
X49817136Y-91271348D01*
X50013279Y-91195362D01*
X50013283Y-91195360D01*
X50111309Y-91134663D01*
X49532647Y-90556000D01*
X49555360Y-90556000D01*
X49652261Y-90530036D01*
X49739140Y-90479876D01*
X49810076Y-90408940D01*
X49860236Y-90322061D01*
X49886200Y-90225160D01*
X49886200Y-90202446D01*
X50467654Y-90783900D01*
X50474328Y-90775062D01*
X50568088Y-90586769D01*
X50625654Y-90384444D01*
X50645062Y-90175000D01*
X50645062Y-90174999D01*
X55984835Y-90174999D01*
X55984835Y-90175000D01*
X56004251Y-90384537D01*
X56004251Y-90384539D01*
X56004252Y-90384542D01*
X56061841Y-90586947D01*
X56061842Y-90586950D01*
X56155510Y-90775059D01*
X56155642Y-90775325D01*
X56217979Y-90857873D01*
X56282461Y-90943260D01*
X56437976Y-91085030D01*
X56437978Y-91085032D01*
X56616892Y-91195811D01*
X56616898Y-91195814D01*
X56658468Y-91211918D01*
X56813124Y-91271832D01*
X57019980Y-91310500D01*
X57019982Y-91310500D01*
X57230418Y-91310500D01*
X57230420Y-91310500D01*
X57437276Y-91271832D01*
X57633504Y-91195813D01*
X57812423Y-91085031D01*
X57967940Y-90943259D01*
X58094758Y-90775325D01*
X58188559Y-90586947D01*
X58246148Y-90384542D01*
X58265565Y-90175000D01*
X58265565Y-90174999D01*
X61064835Y-90174999D01*
X61064835Y-90175000D01*
X61084251Y-90384537D01*
X61084251Y-90384539D01*
X61084252Y-90384542D01*
X61141841Y-90586947D01*
X61141842Y-90586950D01*
X61235510Y-90775059D01*
X61235642Y-90775325D01*
X61297979Y-90857873D01*
X61362461Y-90943260D01*
X61517976Y-91085030D01*
X61517978Y-91085032D01*
X61696892Y-91195811D01*
X61696898Y-91195814D01*
X61738468Y-91211918D01*
X61893124Y-91271832D01*
X62099980Y-91310500D01*
X62099982Y-91310500D01*
X62310418Y-91310500D01*
X62310420Y-91310500D01*
X62517276Y-91271832D01*
X62713504Y-91195813D01*
X62892423Y-91085031D01*
X63047940Y-90943259D01*
X63174758Y-90775325D01*
X63268559Y-90586947D01*
X63326148Y-90384542D01*
X63345565Y-90175000D01*
X63326148Y-89965458D01*
X63268559Y-89763053D01*
X63174758Y-89574675D01*
X63047940Y-89406741D01*
X62892423Y-89264969D01*
X62892421Y-89264967D01*
X62713507Y-89154188D01*
X62713501Y-89154185D01*
X62558378Y-89094091D01*
X62517276Y-89078168D01*
X62310420Y-89039500D01*
X62099980Y-89039500D01*
X61893124Y-89078168D01*
X61893121Y-89078168D01*
X61893121Y-89078169D01*
X61696898Y-89154185D01*
X61696892Y-89154188D01*
X61517978Y-89264967D01*
X61517976Y-89264969D01*
X61362461Y-89406739D01*
X61235642Y-89574674D01*
X61141842Y-89763049D01*
X61084251Y-89965462D01*
X61064835Y-90174999D01*
X58265565Y-90174999D01*
X58246148Y-89965458D01*
X58188559Y-89763053D01*
X58094758Y-89574675D01*
X57967940Y-89406741D01*
X57812423Y-89264969D01*
X57812421Y-89264967D01*
X57633507Y-89154188D01*
X57633501Y-89154185D01*
X57478378Y-89094091D01*
X57437276Y-89078168D01*
X57230420Y-89039500D01*
X57019980Y-89039500D01*
X56813124Y-89078168D01*
X56813121Y-89078168D01*
X56813121Y-89078169D01*
X56616898Y-89154185D01*
X56616892Y-89154188D01*
X56437978Y-89264967D01*
X56437976Y-89264969D01*
X56282461Y-89406739D01*
X56155642Y-89574674D01*
X56061842Y-89763049D01*
X56004251Y-89965462D01*
X55984835Y-90174999D01*
X50645062Y-90174999D01*
X50625654Y-89965555D01*
X50568088Y-89763230D01*
X50474329Y-89574939D01*
X50467654Y-89566099D01*
X49886200Y-90147553D01*
X49886200Y-90124840D01*
X49860236Y-90027939D01*
X49810076Y-89941060D01*
X49739140Y-89870124D01*
X49652261Y-89819964D01*
X49555360Y-89794000D01*
X49532647Y-89794000D01*
X50111310Y-89215335D01*
X50013280Y-89154637D01*
X50013279Y-89154636D01*
X49817136Y-89078651D01*
X49610371Y-89040000D01*
X49400029Y-89040000D01*
X49193264Y-89078651D01*
X49193263Y-89078651D01*
X48997122Y-89154636D01*
X48997116Y-89154638D01*
X48899089Y-89215334D01*
X48899088Y-89215335D01*
X49477754Y-89794000D01*
X49455040Y-89794000D01*
X49358139Y-89819964D01*
X49271260Y-89870124D01*
X49200324Y-89941060D01*
X49150164Y-90027939D01*
X49124200Y-90124840D01*
X49124200Y-90147554D01*
X48542745Y-89566099D01*
X48542744Y-89566099D01*
X48536073Y-89574935D01*
X48536068Y-89574942D01*
X48442311Y-89763230D01*
X48384745Y-89965555D01*
X48365338Y-90174999D01*
X48100699Y-90174999D01*
X48100699Y-89492128D01*
X48094291Y-89432517D01*
X48084677Y-89406741D01*
X48043997Y-89297671D01*
X48043993Y-89297664D01*
X47957747Y-89182455D01*
X47957744Y-89182452D01*
X47842535Y-89096206D01*
X47842528Y-89096202D01*
X47707682Y-89045908D01*
X47707683Y-89045908D01*
X47648083Y-89039501D01*
X47648081Y-89039500D01*
X47648073Y-89039500D01*
X47648064Y-89039500D01*
X46282329Y-89039500D01*
X46282323Y-89039501D01*
X46222716Y-89045908D01*
X46087871Y-89096202D01*
X46087864Y-89096206D01*
X45972655Y-89182452D01*
X45972652Y-89182455D01*
X45886406Y-89297664D01*
X45886402Y-89297671D01*
X45836108Y-89432517D01*
X45829701Y-89492116D01*
X45829701Y-89492123D01*
X45829700Y-89492135D01*
X26500500Y-89492135D01*
X26500500Y-80502135D01*
X88299500Y-80502135D01*
X88299500Y-82997870D01*
X88299501Y-82997876D01*
X88305908Y-83057483D01*
X88356202Y-83192328D01*
X88356206Y-83192335D01*
X88442452Y-83307544D01*
X88442455Y-83307547D01*
X88557664Y-83393793D01*
X88557671Y-83393797D01*
X88692517Y-83444091D01*
X88692516Y-83444091D01*
X88699444Y-83444835D01*
X88752127Y-83450500D01*
X91247872Y-83450499D01*
X91307483Y-83444091D01*
X91442331Y-83393796D01*
X91557546Y-83307546D01*
X91643796Y-83192331D01*
X91694091Y-83057483D01*
X91700500Y-82997873D01*
X91700499Y-81749995D01*
X95795233Y-81749995D01*
X95795233Y-81750004D01*
X95814273Y-82004079D01*
X95870968Y-82252477D01*
X95870973Y-82252494D01*
X95964058Y-82489671D01*
X95964057Y-82489671D01*
X96091457Y-82710332D01*
X96133452Y-82762993D01*
X96935387Y-81961058D01*
X96940889Y-81981591D01*
X97019881Y-82118408D01*
X97131592Y-82230119D01*
X97268409Y-82309111D01*
X97288940Y-82314612D01*
X96486813Y-83116737D01*
X96647623Y-83226375D01*
X96647624Y-83226376D01*
X96877176Y-83336921D01*
X96877174Y-83336921D01*
X97120652Y-83412024D01*
X97120658Y-83412026D01*
X97372595Y-83449999D01*
X97372604Y-83450000D01*
X97627396Y-83450000D01*
X97627404Y-83449999D01*
X97879341Y-83412026D01*
X97879347Y-83412024D01*
X98122824Y-83336921D01*
X98352381Y-83226373D01*
X98513185Y-83116737D01*
X97711059Y-82314612D01*
X97731591Y-82309111D01*
X97868408Y-82230119D01*
X97980119Y-82118408D01*
X98059111Y-81981591D01*
X98064612Y-81961059D01*
X98866545Y-82762993D01*
X98908545Y-82710327D01*
X99035941Y-82489671D01*
X99129026Y-82252494D01*
X99129031Y-82252477D01*
X99185726Y-82004079D01*
X99204767Y-81750004D01*
X99204767Y-81749995D01*
X99185726Y-81495920D01*
X99129031Y-81247522D01*
X99129026Y-81247505D01*
X99035941Y-81010328D01*
X99035942Y-81010328D01*
X98908544Y-80789671D01*
X98866546Y-80737006D01*
X98064612Y-81538939D01*
X98059111Y-81518409D01*
X97980119Y-81381592D01*
X97868408Y-81269881D01*
X97731591Y-81190889D01*
X97711058Y-81185387D01*
X98513185Y-80383261D01*
X98352377Y-80273624D01*
X98352376Y-80273623D01*
X98157958Y-80179998D01*
X116874532Y-80179998D01*
X116874532Y-80180001D01*
X116894364Y-80406686D01*
X116894366Y-80406697D01*
X116953258Y-80626488D01*
X116953261Y-80626497D01*
X117049431Y-80832732D01*
X117049432Y-80832734D01*
X117179954Y-81019141D01*
X117340858Y-81180045D01*
X117340861Y-81180047D01*
X117527266Y-81310568D01*
X117584681Y-81337341D01*
X117585275Y-81337618D01*
X117637714Y-81383791D01*
X117656866Y-81450984D01*
X117636650Y-81517865D01*
X117585275Y-81562382D01*
X117527267Y-81589431D01*
X117527265Y-81589432D01*
X117340858Y-81719954D01*
X117179954Y-81880858D01*
X117049432Y-82067265D01*
X117049431Y-82067267D01*
X116953261Y-82273502D01*
X116953258Y-82273511D01*
X116894366Y-82493302D01*
X116894364Y-82493313D01*
X116874532Y-82719998D01*
X116874532Y-82720001D01*
X116894364Y-82946686D01*
X116894366Y-82946697D01*
X116953258Y-83166488D01*
X116953261Y-83166497D01*
X117049431Y-83372732D01*
X117049432Y-83372734D01*
X117179954Y-83559141D01*
X117340858Y-83720045D01*
X117340861Y-83720047D01*
X117527266Y-83850568D01*
X117585275Y-83877618D01*
X117637714Y-83923791D01*
X117656866Y-83990984D01*
X117636650Y-84057865D01*
X117585275Y-84102382D01*
X117527267Y-84129431D01*
X117527265Y-84129432D01*
X117340858Y-84259954D01*
X117179954Y-84420858D01*
X117049432Y-84607265D01*
X117049431Y-84607267D01*
X116953261Y-84813502D01*
X116953258Y-84813511D01*
X116894366Y-85033302D01*
X116894364Y-85033313D01*
X116874532Y-85259998D01*
X116874532Y-85260001D01*
X116894364Y-85486686D01*
X116894366Y-85486697D01*
X116953258Y-85706488D01*
X116953261Y-85706497D01*
X117049431Y-85912732D01*
X117049432Y-85912734D01*
X117179954Y-86099141D01*
X117340858Y-86260045D01*
X117380914Y-86288092D01*
X117527266Y-86390568D01*
X117550384Y-86401348D01*
X117585275Y-86417618D01*
X117637714Y-86463791D01*
X117656866Y-86530984D01*
X117636650Y-86597865D01*
X117585275Y-86642381D01*
X117585118Y-86642455D01*
X117527267Y-86669431D01*
X117527265Y-86669432D01*
X117340858Y-86799954D01*
X117179954Y-86960858D01*
X117049432Y-87147265D01*
X117049431Y-87147267D01*
X116953261Y-87353502D01*
X116953258Y-87353511D01*
X116894366Y-87573302D01*
X116894364Y-87573313D01*
X116874532Y-87799998D01*
X116874532Y-87800001D01*
X116894364Y-88026686D01*
X116894366Y-88026697D01*
X116953258Y-88246488D01*
X116953261Y-88246497D01*
X117049431Y-88452732D01*
X117049432Y-88452734D01*
X117179954Y-88639141D01*
X117340858Y-88800045D01*
X117340861Y-88800047D01*
X117527266Y-88930568D01*
X117733504Y-89026739D01*
X117953308Y-89085635D01*
X118115230Y-89099801D01*
X118179998Y-89105468D01*
X118180000Y-89105468D01*
X118180002Y-89105468D01*
X118236807Y-89100498D01*
X118406692Y-89085635D01*
X118626496Y-89026739D01*
X118832734Y-88930568D01*
X119019139Y-88800047D01*
X119180047Y-88639139D01*
X119310568Y-88452734D01*
X119406739Y-88246496D01*
X119465635Y-88026692D01*
X119485468Y-87800000D01*
X119465635Y-87573308D01*
X119406739Y-87353504D01*
X119310568Y-87147266D01*
X119180047Y-86960861D01*
X119180045Y-86960858D01*
X119019141Y-86799954D01*
X118832734Y-86669432D01*
X118832728Y-86669429D01*
X118774882Y-86642455D01*
X118774724Y-86642381D01*
X118722285Y-86596210D01*
X118703133Y-86529017D01*
X118723348Y-86462135D01*
X118774725Y-86417618D01*
X118832734Y-86390568D01*
X119019139Y-86260047D01*
X119180047Y-86099139D01*
X119310568Y-85912734D01*
X119406739Y-85706496D01*
X119465635Y-85486692D01*
X119485468Y-85260000D01*
X119465635Y-85033308D01*
X119406739Y-84813504D01*
X119310568Y-84607266D01*
X119180047Y-84420861D01*
X119180045Y-84420858D01*
X119019141Y-84259954D01*
X118832734Y-84129432D01*
X118832728Y-84129429D01*
X118774725Y-84102382D01*
X118722285Y-84056210D01*
X118703133Y-83989017D01*
X118723348Y-83922135D01*
X118774725Y-83877618D01*
X118832734Y-83850568D01*
X119019139Y-83720047D01*
X119180047Y-83559139D01*
X119310568Y-83372734D01*
X119406739Y-83166496D01*
X119465635Y-82946692D01*
X119485468Y-82720000D01*
X119485468Y-82719998D01*
X124494532Y-82719998D01*
X124494532Y-82720001D01*
X124514364Y-82946686D01*
X124514366Y-82946697D01*
X124573258Y-83166488D01*
X124573261Y-83166497D01*
X124669431Y-83372732D01*
X124669432Y-83372734D01*
X124799954Y-83559141D01*
X124960858Y-83720045D01*
X124960861Y-83720047D01*
X125147266Y-83850568D01*
X125205275Y-83877618D01*
X125257714Y-83923791D01*
X125276866Y-83990984D01*
X125256650Y-84057865D01*
X125205275Y-84102382D01*
X125147267Y-84129431D01*
X125147265Y-84129432D01*
X124960858Y-84259954D01*
X124799954Y-84420858D01*
X124669432Y-84607265D01*
X124669431Y-84607267D01*
X124573261Y-84813502D01*
X124573258Y-84813511D01*
X124514366Y-85033302D01*
X124514364Y-85033313D01*
X124494532Y-85259998D01*
X124494532Y-85260001D01*
X124514364Y-85486686D01*
X124514366Y-85486697D01*
X124573258Y-85706488D01*
X124573261Y-85706497D01*
X124669431Y-85912732D01*
X124669432Y-85912734D01*
X124799954Y-86099141D01*
X124960858Y-86260045D01*
X124985462Y-86277273D01*
X125029087Y-86331849D01*
X125036281Y-86401348D01*
X125004758Y-86463703D01*
X124944529Y-86499117D01*
X124927593Y-86502138D01*
X124892516Y-86505908D01*
X124757671Y-86556202D01*
X124757664Y-86556206D01*
X124642455Y-86642452D01*
X124642452Y-86642455D01*
X124556206Y-86757664D01*
X124556202Y-86757671D01*
X124505908Y-86892517D01*
X124499501Y-86952116D01*
X124499501Y-86952123D01*
X124499500Y-86952135D01*
X124499500Y-88647870D01*
X124499501Y-88647876D01*
X124505908Y-88707483D01*
X124556202Y-88842328D01*
X124556206Y-88842335D01*
X124642452Y-88957544D01*
X124642455Y-88957547D01*
X124757664Y-89043793D01*
X124757671Y-89043797D01*
X124892517Y-89094091D01*
X124892516Y-89094091D01*
X124899444Y-89094835D01*
X124952127Y-89100500D01*
X126647872Y-89100499D01*
X126707483Y-89094091D01*
X126842331Y-89043796D01*
X126957546Y-88957546D01*
X127043796Y-88842331D01*
X127094091Y-88707483D01*
X127100500Y-88647873D01*
X127100499Y-86952128D01*
X127094091Y-86892517D01*
X127059567Y-86799954D01*
X127043797Y-86757671D01*
X127043793Y-86757664D01*
X126957547Y-86642455D01*
X126957544Y-86642452D01*
X126842335Y-86556206D01*
X126842328Y-86556202D01*
X126707482Y-86505908D01*
X126707483Y-86505908D01*
X126672404Y-86502137D01*
X126607853Y-86475399D01*
X126568005Y-86418006D01*
X126565512Y-86348181D01*
X126601165Y-86288092D01*
X126614539Y-86277272D01*
X126639140Y-86260046D01*
X126800045Y-86099141D01*
X126800047Y-86099139D01*
X126930568Y-85912734D01*
X127026739Y-85706496D01*
X127085635Y-85486692D01*
X127105468Y-85260000D01*
X127085635Y-85033308D01*
X127026739Y-84813504D01*
X126930568Y-84607266D01*
X126800047Y-84420861D01*
X126800045Y-84420858D01*
X126639141Y-84259954D01*
X126452734Y-84129432D01*
X126452728Y-84129429D01*
X126394725Y-84102382D01*
X126342285Y-84056210D01*
X126323133Y-83989017D01*
X126343348Y-83922135D01*
X126394725Y-83877618D01*
X126452734Y-83850568D01*
X126639139Y-83720047D01*
X126800047Y-83559139D01*
X126930568Y-83372734D01*
X127026739Y-83166496D01*
X127085635Y-82946692D01*
X127105468Y-82720000D01*
X127085635Y-82493308D01*
X127026739Y-82273504D01*
X126930568Y-82067266D01*
X126800047Y-81880861D01*
X126800045Y-81880858D01*
X126639141Y-81719954D01*
X126452734Y-81589432D01*
X126452732Y-81589431D01*
X126394725Y-81562382D01*
X126394132Y-81562105D01*
X126341694Y-81515934D01*
X126322542Y-81448740D01*
X126342758Y-81381859D01*
X126394134Y-81337341D01*
X126452484Y-81310132D01*
X126638820Y-81179657D01*
X126799657Y-81018820D01*
X126930134Y-80832482D01*
X127026265Y-80626326D01*
X127026269Y-80626317D01*
X127078872Y-80430000D01*
X126115686Y-80430000D01*
X126120080Y-80425606D01*
X126172741Y-80334394D01*
X126200000Y-80232661D01*
X126200000Y-80127339D01*
X126172741Y-80025606D01*
X126120080Y-79934394D01*
X126115686Y-79930000D01*
X127078872Y-79930000D01*
X127078872Y-79929999D01*
X127026269Y-79733682D01*
X127026265Y-79733673D01*
X126930134Y-79527517D01*
X126799657Y-79341179D01*
X126638820Y-79180342D01*
X126452482Y-79049865D01*
X126246328Y-78953734D01*
X126050000Y-78901127D01*
X126050000Y-79864314D01*
X126045606Y-79859920D01*
X125954394Y-79807259D01*
X125852661Y-79780000D01*
X125747339Y-79780000D01*
X125645606Y-79807259D01*
X125554394Y-79859920D01*
X125550000Y-79864314D01*
X125550000Y-78901127D01*
X125353671Y-78953734D01*
X125147517Y-79049865D01*
X124961179Y-79180342D01*
X124800342Y-79341179D01*
X124669865Y-79527517D01*
X124573734Y-79733673D01*
X124573730Y-79733682D01*
X124521127Y-79929999D01*
X124521128Y-79930000D01*
X125484314Y-79930000D01*
X125479920Y-79934394D01*
X125427259Y-80025606D01*
X125400000Y-80127339D01*
X125400000Y-80232661D01*
X125427259Y-80334394D01*
X125479920Y-80425606D01*
X125484314Y-80430000D01*
X124521128Y-80430000D01*
X124573730Y-80626317D01*
X124573734Y-80626326D01*
X124669865Y-80832482D01*
X124800342Y-81018820D01*
X124961179Y-81179657D01*
X125147518Y-81310134D01*
X125147520Y-81310135D01*
X125205865Y-81337342D01*
X125258305Y-81383514D01*
X125277457Y-81450707D01*
X125257242Y-81517589D01*
X125205867Y-81562105D01*
X125147268Y-81589431D01*
X125147264Y-81589433D01*
X124960858Y-81719954D01*
X124799954Y-81880858D01*
X124669432Y-82067265D01*
X124669431Y-82067267D01*
X124573261Y-82273502D01*
X124573258Y-82273511D01*
X124514366Y-82493302D01*
X124514364Y-82493313D01*
X124494532Y-82719998D01*
X119485468Y-82719998D01*
X119465635Y-82493308D01*
X119406739Y-82273504D01*
X119310568Y-82067266D01*
X119180047Y-81880861D01*
X119180045Y-81880858D01*
X119019141Y-81719954D01*
X118832734Y-81589432D01*
X118832728Y-81589429D01*
X118774725Y-81562382D01*
X118722285Y-81516210D01*
X118703133Y-81449017D01*
X118723348Y-81382135D01*
X118774725Y-81337618D01*
X118775319Y-81337341D01*
X118832734Y-81310568D01*
X119019139Y-81180047D01*
X119180047Y-81019139D01*
X119310568Y-80832734D01*
X119406739Y-80626496D01*
X119465635Y-80406692D01*
X119485468Y-80180000D01*
X119465635Y-79953308D01*
X119406739Y-79733504D01*
X119310568Y-79527266D01*
X119180047Y-79340861D01*
X119180045Y-79340858D01*
X119019141Y-79179954D01*
X118832734Y-79049432D01*
X118832732Y-79049431D01*
X118626497Y-78953261D01*
X118626488Y-78953258D01*
X118406697Y-78894366D01*
X118406693Y-78894365D01*
X118406692Y-78894365D01*
X118406691Y-78894364D01*
X118406686Y-78894364D01*
X118180002Y-78874532D01*
X118179998Y-78874532D01*
X117953313Y-78894364D01*
X117953302Y-78894366D01*
X117733511Y-78953258D01*
X117733502Y-78953261D01*
X117527267Y-79049431D01*
X117527265Y-79049432D01*
X117340858Y-79179954D01*
X117179954Y-79340858D01*
X117049432Y-79527265D01*
X117049431Y-79527267D01*
X116953261Y-79733502D01*
X116953258Y-79733511D01*
X116894366Y-79953302D01*
X116894364Y-79953313D01*
X116874532Y-80179998D01*
X98157958Y-80179998D01*
X98122823Y-80163078D01*
X98122825Y-80163078D01*
X97879347Y-80087975D01*
X97879341Y-80087973D01*
X97627404Y-80050000D01*
X97372595Y-80050000D01*
X97120658Y-80087973D01*
X97120652Y-80087975D01*
X96877175Y-80163078D01*
X96647624Y-80273623D01*
X96647616Y-80273628D01*
X96486813Y-80383261D01*
X97288940Y-81185387D01*
X97268409Y-81190889D01*
X97131592Y-81269881D01*
X97019881Y-81381592D01*
X96940889Y-81518409D01*
X96935387Y-81538940D01*
X96133453Y-80737006D01*
X96091455Y-80789670D01*
X95964058Y-81010328D01*
X95870973Y-81247505D01*
X95870968Y-81247522D01*
X95814273Y-81495920D01*
X95795233Y-81749995D01*
X91700499Y-81749995D01*
X91700499Y-80502128D01*
X91694091Y-80442517D01*
X91689422Y-80430000D01*
X91643797Y-80307671D01*
X91643793Y-80307664D01*
X91557547Y-80192455D01*
X91557544Y-80192452D01*
X91442335Y-80106206D01*
X91442328Y-80106202D01*
X91307482Y-80055908D01*
X91307483Y-80055908D01*
X91247883Y-80049501D01*
X91247881Y-80049500D01*
X91247873Y-80049500D01*
X91247864Y-80049500D01*
X88752129Y-80049500D01*
X88752123Y-80049501D01*
X88692516Y-80055908D01*
X88557671Y-80106202D01*
X88557664Y-80106206D01*
X88442455Y-80192452D01*
X88442452Y-80192455D01*
X88356206Y-80307664D01*
X88356202Y-80307671D01*
X88305908Y-80442517D01*
X88299720Y-80500080D01*
X88299501Y-80502123D01*
X88299500Y-80502135D01*
X26500500Y-80502135D01*
X26500500Y-72848543D01*
X84999499Y-72848543D01*
X85037947Y-73041829D01*
X85037950Y-73041839D01*
X85113364Y-73223907D01*
X85113371Y-73223920D01*
X85222860Y-73387781D01*
X85222863Y-73387785D01*
X85362214Y-73527136D01*
X85362218Y-73527139D01*
X85526079Y-73636628D01*
X85526092Y-73636635D01*
X85708160Y-73712049D01*
X85708165Y-73712051D01*
X85708169Y-73712051D01*
X85708170Y-73712052D01*
X85901456Y-73750500D01*
X85901459Y-73750500D01*
X86098543Y-73750500D01*
X86228582Y-73724632D01*
X86291835Y-73712051D01*
X86473914Y-73636632D01*
X86637782Y-73527139D01*
X86777139Y-73387782D01*
X86886632Y-73223914D01*
X86962051Y-73041835D01*
X87000500Y-72848541D01*
X87000500Y-71715782D01*
X87020185Y-71648743D01*
X87036819Y-71628101D01*
X88878101Y-69786819D01*
X88939424Y-69753334D01*
X88965782Y-69750500D01*
X92083542Y-69750500D01*
X92102870Y-69746655D01*
X92180188Y-69731275D01*
X92276836Y-69712051D01*
X92330165Y-69689961D01*
X92458914Y-69636632D01*
X92622782Y-69527139D01*
X92762139Y-69387782D01*
X92762140Y-69387779D01*
X93317140Y-68832781D01*
X93426632Y-68668914D01*
X93502052Y-68486835D01*
X93540501Y-68293540D01*
X93540501Y-68096459D01*
X93540501Y-68091349D01*
X93540500Y-68091323D01*
X93540500Y-67348214D01*
X93560185Y-67281175D01*
X93576819Y-67260533D01*
X93594482Y-67242870D01*
X93648286Y-67189066D01*
X93782717Y-67004038D01*
X93886548Y-66800258D01*
X93957222Y-66582745D01*
X93993000Y-66356854D01*
X93993000Y-66249995D01*
X103244732Y-66249995D01*
X103244732Y-66250004D01*
X103263777Y-66504154D01*
X103263778Y-66504157D01*
X103320492Y-66752637D01*
X103413607Y-66989888D01*
X103541041Y-67210612D01*
X103699950Y-67409877D01*
X103886783Y-67583232D01*
X104097366Y-67726805D01*
X104097371Y-67726807D01*
X104097372Y-67726808D01*
X104097373Y-67726809D01*
X104219328Y-67785538D01*
X104326992Y-67837387D01*
X104326993Y-67837387D01*
X104326996Y-67837389D01*
X104570542Y-67912513D01*
X104822565Y-67950500D01*
X105077435Y-67950500D01*
X105329458Y-67912513D01*
X105573004Y-67837389D01*
X105802634Y-67726805D01*
X106013217Y-67583232D01*
X106200050Y-67409877D01*
X106358959Y-67210612D01*
X106486393Y-66989888D01*
X106579508Y-66752637D01*
X106636222Y-66504157D01*
X106655268Y-66250000D01*
X106655268Y-66249995D01*
X135244732Y-66249995D01*
X135244732Y-66250004D01*
X135263777Y-66504154D01*
X135263778Y-66504157D01*
X135320492Y-66752637D01*
X135413607Y-66989888D01*
X135541041Y-67210612D01*
X135699950Y-67409877D01*
X135886783Y-67583232D01*
X136097366Y-67726805D01*
X136097371Y-67726807D01*
X136097372Y-67726808D01*
X136097373Y-67726809D01*
X136219328Y-67785538D01*
X136326992Y-67837387D01*
X136326993Y-67837387D01*
X136326996Y-67837389D01*
X136570542Y-67912513D01*
X136822565Y-67950500D01*
X137077435Y-67950500D01*
X137329458Y-67912513D01*
X137573004Y-67837389D01*
X137802634Y-67726805D01*
X138013217Y-67583232D01*
X138200050Y-67409877D01*
X138358959Y-67210612D01*
X138486393Y-66989888D01*
X138579508Y-66752637D01*
X138636222Y-66504157D01*
X138655268Y-66250000D01*
X138636222Y-65995843D01*
X138579508Y-65747363D01*
X138486393Y-65510112D01*
X138358959Y-65289388D01*
X138200050Y-65090123D01*
X138013217Y-64916768D01*
X137802634Y-64773195D01*
X137802630Y-64773193D01*
X137802627Y-64773191D01*
X137802626Y-64773190D01*
X137573006Y-64662612D01*
X137573008Y-64662612D01*
X137329466Y-64587489D01*
X137329462Y-64587488D01*
X137329458Y-64587487D01*
X137208231Y-64569214D01*
X137077440Y-64549500D01*
X137077435Y-64549500D01*
X136822565Y-64549500D01*
X136822559Y-64549500D01*
X136665609Y-64573157D01*
X136570542Y-64587487D01*
X136570539Y-64587488D01*
X136570533Y-64587489D01*
X136326992Y-64662612D01*
X136097373Y-64773190D01*
X136097372Y-64773191D01*
X135886782Y-64916768D01*
X135699952Y-65090121D01*
X135699950Y-65090123D01*
X135541041Y-65289388D01*
X135413608Y-65510109D01*
X135320492Y-65747362D01*
X135320490Y-65747369D01*
X135263777Y-65995845D01*
X135244732Y-66249995D01*
X106655268Y-66249995D01*
X106636222Y-65995843D01*
X106579508Y-65747363D01*
X106486393Y-65510112D01*
X106358959Y-65289388D01*
X106200050Y-65090123D01*
X106013217Y-64916768D01*
X105802634Y-64773195D01*
X105802630Y-64773193D01*
X105802627Y-64773191D01*
X105802626Y-64773190D01*
X105573006Y-64662612D01*
X105573008Y-64662612D01*
X105329466Y-64587489D01*
X105329462Y-64587488D01*
X105329458Y-64587487D01*
X105208231Y-64569214D01*
X105077440Y-64549500D01*
X105077435Y-64549500D01*
X104822565Y-64549500D01*
X104822559Y-64549500D01*
X104665609Y-64573157D01*
X104570542Y-64587487D01*
X104570539Y-64587488D01*
X104570533Y-64587489D01*
X104326992Y-64662612D01*
X104097373Y-64773190D01*
X104097372Y-64773191D01*
X103886782Y-64916768D01*
X103699952Y-65090121D01*
X103699950Y-65090123D01*
X103541041Y-65289388D01*
X103413608Y-65510109D01*
X103320492Y-65747362D01*
X103320490Y-65747369D01*
X103263777Y-65995845D01*
X103244732Y-66249995D01*
X93993000Y-66249995D01*
X93993000Y-66033146D01*
X93957222Y-65807255D01*
X93957221Y-65807251D01*
X93957221Y-65807250D01*
X93886549Y-65589744D01*
X93886548Y-65589742D01*
X93782717Y-65385962D01*
X93648286Y-65200934D01*
X93486566Y-65039214D01*
X93301538Y-64904783D01*
X93097755Y-64800950D01*
X92880248Y-64730278D01*
X92694812Y-64700908D01*
X92654354Y-64694500D01*
X92425646Y-64694500D01*
X92385188Y-64700908D01*
X92199753Y-64730278D01*
X92199750Y-64730278D01*
X91982244Y-64800950D01*
X91778461Y-64904783D01*
X91712550Y-64952671D01*
X91593434Y-65039214D01*
X91593432Y-65039216D01*
X91593431Y-65039216D01*
X91431715Y-65200932D01*
X91370318Y-65285438D01*
X91314987Y-65328103D01*
X91245374Y-65334082D01*
X91183579Y-65301476D01*
X91169682Y-65285438D01*
X91158773Y-65270423D01*
X91108286Y-65200934D01*
X90946566Y-65039214D01*
X90761538Y-64904783D01*
X90557755Y-64800950D01*
X90340248Y-64730278D01*
X90154812Y-64700908D01*
X90114354Y-64694500D01*
X89885646Y-64694500D01*
X89845188Y-64700908D01*
X89659753Y-64730278D01*
X89659750Y-64730278D01*
X89442244Y-64800950D01*
X89238461Y-64904783D01*
X89055759Y-65037525D01*
X88989952Y-65061005D01*
X88921898Y-65045180D01*
X88873203Y-64995074D01*
X88866690Y-64980538D01*
X88856296Y-64952669D01*
X88856293Y-64952664D01*
X88770047Y-64837455D01*
X88770044Y-64837452D01*
X88654835Y-64751206D01*
X88654828Y-64751202D01*
X88519982Y-64700908D01*
X88519983Y-64700908D01*
X88460383Y-64694501D01*
X88460381Y-64694500D01*
X88460373Y-64694500D01*
X88460364Y-64694500D01*
X86459629Y-64694500D01*
X86459623Y-64694501D01*
X86400016Y-64700908D01*
X86265171Y-64751202D01*
X86265164Y-64751206D01*
X86149955Y-64837452D01*
X86149952Y-64837455D01*
X86063706Y-64952664D01*
X86063702Y-64952671D01*
X86013408Y-65087517D01*
X86007001Y-65147116D01*
X86007000Y-65147135D01*
X86007000Y-67242870D01*
X86007001Y-67242876D01*
X86013408Y-67302483D01*
X86063702Y-67437328D01*
X86063706Y-67437335D01*
X86149952Y-67552544D01*
X86149955Y-67552547D01*
X86265164Y-67638793D01*
X86265171Y-67638797D01*
X86400017Y-67689091D01*
X86400016Y-67689091D01*
X86406944Y-67689835D01*
X86459627Y-67695500D01*
X87868546Y-67695499D01*
X87935584Y-67715184D01*
X87981339Y-67767987D01*
X87991283Y-67837146D01*
X87962258Y-67900702D01*
X87937436Y-67922601D01*
X87862219Y-67972859D01*
X87792540Y-68042538D01*
X87722861Y-68112218D01*
X87722858Y-68112221D01*
X85362221Y-70472858D01*
X85362218Y-70472861D01*
X85292538Y-70542540D01*
X85222859Y-70612219D01*
X85113371Y-70776079D01*
X85113364Y-70776092D01*
X85037950Y-70958160D01*
X85037947Y-70958170D01*
X84999500Y-71151456D01*
X84999500Y-71151459D01*
X84999500Y-72848541D01*
X84999500Y-72848543D01*
X84999499Y-72848543D01*
X26500500Y-72848543D01*
X26500500Y-52999993D01*
X44414968Y-52999993D01*
X44414968Y-53000006D01*
X44435086Y-53473631D01*
X44495304Y-53943874D01*
X44595181Y-54407306D01*
X44595183Y-54407314D01*
X44733999Y-54860598D01*
X44734004Y-54860612D01*
X44910755Y-55300471D01*
X44910759Y-55300482D01*
X45124179Y-55723774D01*
X45124189Y-55723794D01*
X45372750Y-56127481D01*
X45654648Y-56508633D01*
X45654654Y-56508641D01*
X45880825Y-56765620D01*
X47672818Y-54973627D01*
X47722208Y-55035560D01*
X47964440Y-55277792D01*
X48026371Y-55327180D01*
X46233983Y-57119568D01*
X46310120Y-57192537D01*
X46310122Y-57192538D01*
X46678952Y-57490348D01*
X46678953Y-57490349D01*
X47071716Y-57755809D01*
X47071735Y-57755821D01*
X47485588Y-57987014D01*
X47485610Y-57987025D01*
X47917579Y-58182288D01*
X47917585Y-58182290D01*
X48364579Y-58340223D01*
X48823351Y-58459677D01*
X49290597Y-58539795D01*
X49290605Y-58539796D01*
X49762946Y-58579999D01*
X49762966Y-58580000D01*
X50237034Y-58580000D01*
X50237053Y-58579999D01*
X50709394Y-58539796D01*
X50709402Y-58539795D01*
X51176648Y-58459677D01*
X51635420Y-58340223D01*
X52082414Y-58182290D01*
X52082420Y-58182288D01*
X52514389Y-57987025D01*
X52514411Y-57987014D01*
X52928264Y-57755821D01*
X52928283Y-57755809D01*
X53321039Y-57490353D01*
X53689886Y-57192531D01*
X53766015Y-57119568D01*
X51973628Y-55327181D01*
X52035560Y-55277792D01*
X52277792Y-55035560D01*
X52327181Y-54973628D01*
X54119173Y-56765620D01*
X54345346Y-56508638D01*
X54345360Y-56508621D01*
X54627249Y-56127481D01*
X54875810Y-55723794D01*
X54875820Y-55723774D01*
X55089240Y-55300482D01*
X55089244Y-55300471D01*
X55265995Y-54860612D01*
X55266000Y-54860598D01*
X55404816Y-54407314D01*
X55404818Y-54407306D01*
X55504695Y-53943874D01*
X55564913Y-53473631D01*
X55585032Y-53000006D01*
X55585032Y-52999993D01*
X137914968Y-52999993D01*
X137914968Y-53000006D01*
X137935086Y-53473631D01*
X137995304Y-53943874D01*
X138095181Y-54407306D01*
X138095183Y-54407314D01*
X138233999Y-54860598D01*
X138234004Y-54860612D01*
X138410755Y-55300471D01*
X138410759Y-55300482D01*
X138624179Y-55723774D01*
X138624189Y-55723794D01*
X138872750Y-56127481D01*
X139154648Y-56508633D01*
X139154654Y-56508641D01*
X139380825Y-56765620D01*
X141172818Y-54973627D01*
X141222208Y-55035560D01*
X141464440Y-55277792D01*
X141526371Y-55327180D01*
X139733983Y-57119568D01*
X139810120Y-57192537D01*
X139810122Y-57192538D01*
X140178952Y-57490348D01*
X140178953Y-57490349D01*
X140571716Y-57755809D01*
X140571735Y-57755821D01*
X140985588Y-57987014D01*
X140985610Y-57987025D01*
X141417579Y-58182288D01*
X141417585Y-58182290D01*
X141864579Y-58340223D01*
X142323351Y-58459677D01*
X142790597Y-58539795D01*
X142790605Y-58539796D01*
X143262946Y-58579999D01*
X143262966Y-58580000D01*
X143737034Y-58580000D01*
X143737053Y-58579999D01*
X144209394Y-58539796D01*
X144209402Y-58539795D01*
X144676648Y-58459677D01*
X145135420Y-58340223D01*
X145582414Y-58182290D01*
X145582420Y-58182288D01*
X146014389Y-57987025D01*
X146014411Y-57987014D01*
X146428264Y-57755821D01*
X146428283Y-57755809D01*
X146821039Y-57490353D01*
X147189886Y-57192531D01*
X147266015Y-57119568D01*
X145473628Y-55327181D01*
X145535560Y-55277792D01*
X145777792Y-55035560D01*
X145827181Y-54973628D01*
X147619173Y-56765620D01*
X147845346Y-56508638D01*
X147845360Y-56508621D01*
X148127249Y-56127481D01*
X148375810Y-55723794D01*
X148375820Y-55723774D01*
X148589240Y-55300482D01*
X148589244Y-55300471D01*
X148765995Y-54860612D01*
X148766000Y-54860598D01*
X148904816Y-54407314D01*
X148904818Y-54407306D01*
X149004695Y-53943874D01*
X149064913Y-53473631D01*
X149085032Y-53000006D01*
X149085032Y-52999993D01*
X149064913Y-52526368D01*
X149004695Y-52056125D01*
X148904818Y-51592693D01*
X148904816Y-51592685D01*
X148766000Y-51139401D01*
X148765995Y-51139387D01*
X148589244Y-50699528D01*
X148589240Y-50699517D01*
X148375820Y-50276225D01*
X148375810Y-50276205D01*
X148127249Y-49872518D01*
X147845351Y-49491366D01*
X147845345Y-49491358D01*
X147619173Y-49234378D01*
X145827180Y-51026371D01*
X145777792Y-50964440D01*
X145535560Y-50722208D01*
X145473626Y-50672818D01*
X147266015Y-48880430D01*
X147189879Y-48807462D01*
X147189877Y-48807461D01*
X146821047Y-48509651D01*
X146821046Y-48509650D01*
X146428283Y-48244190D01*
X146428264Y-48244178D01*
X146014411Y-48012985D01*
X146014389Y-48012974D01*
X145582420Y-47817711D01*
X145582414Y-47817709D01*
X145135420Y-47659776D01*
X144676648Y-47540322D01*
X144209402Y-47460204D01*
X144209394Y-47460203D01*
X143737053Y-47420000D01*
X143262946Y-47420000D01*
X142790605Y-47460203D01*
X142790597Y-47460204D01*
X142323351Y-47540322D01*
X141864579Y-47659776D01*
X141417585Y-47817709D01*
X141417579Y-47817711D01*
X140985610Y-48012974D01*
X140985588Y-48012985D01*
X140571735Y-48244178D01*
X140571716Y-48244190D01*
X140178953Y-48509650D01*
X140178952Y-48509651D01*
X139810123Y-48807460D01*
X139810107Y-48807474D01*
X139733984Y-48880431D01*
X141526371Y-50672818D01*
X141464440Y-50722208D01*
X141222208Y-50964440D01*
X141172818Y-51026371D01*
X139380826Y-49234379D01*
X139154648Y-49491366D01*
X139154645Y-49491370D01*
X138872750Y-49872518D01*
X138624189Y-50276205D01*
X138624179Y-50276225D01*
X138410759Y-50699517D01*
X138410755Y-50699528D01*
X138234004Y-51139387D01*
X138233999Y-51139401D01*
X138095183Y-51592685D01*
X138095181Y-51592693D01*
X137995304Y-52056125D01*
X137935086Y-52526368D01*
X137914968Y-52999993D01*
X55585032Y-52999993D01*
X55564913Y-52526368D01*
X55504695Y-52056125D01*
X55404818Y-51592693D01*
X55404816Y-51592685D01*
X55266000Y-51139401D01*
X55265995Y-51139387D01*
X55089244Y-50699528D01*
X55089240Y-50699517D01*
X54875820Y-50276225D01*
X54875810Y-50276205D01*
X54627249Y-49872518D01*
X54345351Y-49491366D01*
X54345345Y-49491358D01*
X54119173Y-49234378D01*
X52327180Y-51026371D01*
X52277792Y-50964440D01*
X52035560Y-50722208D01*
X51973626Y-50672818D01*
X53766015Y-48880430D01*
X53689879Y-48807462D01*
X53689877Y-48807461D01*
X53321047Y-48509651D01*
X53321046Y-48509650D01*
X52928283Y-48244190D01*
X52928264Y-48244178D01*
X52514411Y-48012985D01*
X52514389Y-48012974D01*
X52082420Y-47817711D01*
X52082414Y-47817709D01*
X51635420Y-47659776D01*
X51176648Y-47540322D01*
X50709402Y-47460204D01*
X50709394Y-47460203D01*
X50237053Y-47420000D01*
X49762946Y-47420000D01*
X49290605Y-47460203D01*
X49290597Y-47460204D01*
X48823351Y-47540322D01*
X48364579Y-47659776D01*
X47917585Y-47817709D01*
X47917579Y-47817711D01*
X47485610Y-48012974D01*
X47485588Y-48012985D01*
X47071735Y-48244178D01*
X47071716Y-48244190D01*
X46678953Y-48509650D01*
X46678952Y-48509651D01*
X46310123Y-48807460D01*
X46310107Y-48807474D01*
X46233984Y-48880431D01*
X48026371Y-50672818D01*
X47964440Y-50722208D01*
X47722208Y-50964440D01*
X47672818Y-51026371D01*
X45880826Y-49234379D01*
X45654648Y-49491366D01*
X45654645Y-49491370D01*
X45372750Y-49872518D01*
X45124189Y-50276205D01*
X45124179Y-50276225D01*
X44910759Y-50699517D01*
X44910755Y-50699528D01*
X44734004Y-51139387D01*
X44733999Y-51139401D01*
X44595183Y-51592685D01*
X44595181Y-51592693D01*
X44495304Y-52056125D01*
X44435086Y-52526368D01*
X44414968Y-52999993D01*
X26500500Y-52999993D01*
X26500500Y-36352486D01*
X30249500Y-36352486D01*
X30249500Y-36647513D01*
X30278114Y-36864846D01*
X30288007Y-36939993D01*
X30355777Y-37192914D01*
X30364361Y-37224951D01*
X30364364Y-37224961D01*
X30477254Y-37497500D01*
X30477258Y-37497510D01*
X30624761Y-37752993D01*
X30804352Y-37987040D01*
X30804358Y-37987047D01*
X31012952Y-38195641D01*
X31012959Y-38195647D01*
X31247006Y-38375238D01*
X31502489Y-38522741D01*
X31502490Y-38522741D01*
X31502493Y-38522743D01*
X31775048Y-38635639D01*
X32060007Y-38711993D01*
X32352494Y-38750500D01*
X32352501Y-38750500D01*
X32647499Y-38750500D01*
X32647506Y-38750500D01*
X32939993Y-38711993D01*
X33224952Y-38635639D01*
X33497507Y-38522743D01*
X33752994Y-38375238D01*
X33987042Y-38195646D01*
X34195646Y-37987042D01*
X34375238Y-37752994D01*
X34522743Y-37497507D01*
X34635639Y-37224952D01*
X34711993Y-36939993D01*
X34750500Y-36647506D01*
X34750500Y-36352494D01*
X34711993Y-36060007D01*
X34635639Y-35775048D01*
X34522743Y-35502493D01*
X34375238Y-35247006D01*
X34195646Y-35012958D01*
X34195641Y-35012952D01*
X33987047Y-34804358D01*
X33987040Y-34804352D01*
X33752993Y-34624761D01*
X33497510Y-34477258D01*
X33497500Y-34477254D01*
X33224961Y-34364364D01*
X33224954Y-34364362D01*
X33224952Y-34364361D01*
X32939993Y-34288007D01*
X32891113Y-34281571D01*
X32647513Y-34249500D01*
X32647506Y-34249500D01*
X32352494Y-34249500D01*
X32352486Y-34249500D01*
X32074085Y-34286153D01*
X32060007Y-34288007D01*
X31775048Y-34364361D01*
X31775038Y-34364364D01*
X31502499Y-34477254D01*
X31502489Y-34477258D01*
X31247006Y-34624761D01*
X31012959Y-34804352D01*
X31012952Y-34804358D01*
X30804358Y-35012952D01*
X30804352Y-35012959D01*
X30624761Y-35247006D01*
X30477258Y-35502489D01*
X30477254Y-35502499D01*
X30364364Y-35775038D01*
X30364361Y-35775048D01*
X30288008Y-36060004D01*
X30288006Y-36060015D01*
X30249500Y-36352486D01*
X26500500Y-36352486D01*
X26500500Y-32999993D01*
X44414467Y-32999993D01*
X44414467Y-33000006D01*
X44434587Y-33473673D01*
X44494810Y-33943961D01*
X44594696Y-34407432D01*
X44594698Y-34407440D01*
X44733527Y-34860765D01*
X44733529Y-34860770D01*
X44910298Y-35300677D01*
X44910302Y-35300688D01*
X45123741Y-35724018D01*
X45123751Y-35724036D01*
X45372332Y-36127758D01*
X45654256Y-36508944D01*
X45654261Y-36508949D01*
X45654262Y-36508951D01*
X45967489Y-36864846D01*
X46309788Y-37192913D01*
X46309790Y-37192914D01*
X46678654Y-37490751D01*
X46678655Y-37490752D01*
X46688654Y-37497510D01*
X47071464Y-37756244D01*
X47255423Y-37859009D01*
X47485362Y-37987462D01*
X47485384Y-37987473D01*
X47917391Y-38182752D01*
X47917398Y-38182755D01*
X48364429Y-38340701D01*
X48823244Y-38460167D01*
X49290538Y-38540293D01*
X49436774Y-38552739D01*
X49762924Y-38580499D01*
X49762941Y-38580499D01*
X49762943Y-38580500D01*
X49762944Y-38580500D01*
X50237056Y-38580500D01*
X50237057Y-38580500D01*
X50237058Y-38580499D01*
X50237075Y-38580499D01*
X50518242Y-38556567D01*
X50709462Y-38540293D01*
X51176756Y-38460167D01*
X51635571Y-38340701D01*
X52082602Y-38182755D01*
X52514628Y-37987467D01*
X52928536Y-37756244D01*
X53321343Y-37490753D01*
X53603638Y-37262815D01*
X53690209Y-37192914D01*
X53690211Y-37192913D01*
X53690215Y-37192908D01*
X53690220Y-37192905D01*
X54032510Y-36864847D01*
X54345744Y-36508944D01*
X54627668Y-36127758D01*
X54876249Y-35724036D01*
X55089697Y-35300688D01*
X55266473Y-34860763D01*
X55405304Y-34407432D01*
X55505190Y-33943960D01*
X55565411Y-33473686D01*
X55585533Y-33000000D01*
X55585533Y-32999993D01*
X88414467Y-32999993D01*
X88414467Y-33000006D01*
X88434587Y-33473673D01*
X88494810Y-33943961D01*
X88594696Y-34407432D01*
X88594698Y-34407440D01*
X88733527Y-34860765D01*
X88733529Y-34860770D01*
X88910298Y-35300677D01*
X88910302Y-35300688D01*
X89123741Y-35724018D01*
X89123751Y-35724036D01*
X89372332Y-36127758D01*
X89654256Y-36508944D01*
X89654261Y-36508949D01*
X89654262Y-36508951D01*
X89967489Y-36864846D01*
X90309788Y-37192913D01*
X90309790Y-37192914D01*
X90678654Y-37490751D01*
X90678655Y-37490752D01*
X90688654Y-37497510D01*
X91071464Y-37756244D01*
X91255423Y-37859009D01*
X91485362Y-37987462D01*
X91485384Y-37987473D01*
X91917391Y-38182752D01*
X91917398Y-38182755D01*
X92364429Y-38340701D01*
X92823244Y-38460167D01*
X93290538Y-38540293D01*
X93436774Y-38552739D01*
X93762924Y-38580499D01*
X93762941Y-38580499D01*
X93762943Y-38580500D01*
X93762944Y-38580500D01*
X94237056Y-38580500D01*
X94237057Y-38580500D01*
X94237058Y-38580499D01*
X94237075Y-38580499D01*
X94518242Y-38556567D01*
X94709462Y-38540293D01*
X95176756Y-38460167D01*
X95635571Y-38340701D01*
X96082602Y-38182755D01*
X96514628Y-37987467D01*
X96928536Y-37756244D01*
X97321343Y-37490753D01*
X97603638Y-37262815D01*
X97690209Y-37192914D01*
X97690211Y-37192913D01*
X97690215Y-37192908D01*
X97690220Y-37192905D01*
X98032510Y-36864847D01*
X98345744Y-36508944D01*
X98627668Y-36127758D01*
X98876249Y-35724036D01*
X99089697Y-35300688D01*
X99266473Y-34860763D01*
X99405304Y-34407432D01*
X99505190Y-33943960D01*
X99565411Y-33473686D01*
X99585533Y-33000000D01*
X99585533Y-32999993D01*
X125414467Y-32999993D01*
X125414467Y-33000006D01*
X125434587Y-33473673D01*
X125494810Y-33943961D01*
X125594696Y-34407432D01*
X125594698Y-34407440D01*
X125733527Y-34860765D01*
X125733529Y-34860770D01*
X125910298Y-35300677D01*
X125910302Y-35300688D01*
X126123741Y-35724018D01*
X126123751Y-35724036D01*
X126372332Y-36127758D01*
X126654256Y-36508944D01*
X126654261Y-36508949D01*
X126654262Y-36508951D01*
X126967489Y-36864846D01*
X127309788Y-37192913D01*
X127309790Y-37192914D01*
X127678654Y-37490751D01*
X127678655Y-37490752D01*
X127688654Y-37497510D01*
X128071464Y-37756244D01*
X128255423Y-37859009D01*
X128485362Y-37987462D01*
X128485384Y-37987473D01*
X128917391Y-38182752D01*
X128917398Y-38182755D01*
X129364429Y-38340701D01*
X129823244Y-38460167D01*
X130290538Y-38540293D01*
X130436774Y-38552739D01*
X130762924Y-38580499D01*
X130762941Y-38580499D01*
X130762943Y-38580500D01*
X130762944Y-38580500D01*
X131237056Y-38580500D01*
X131237057Y-38580500D01*
X131237058Y-38580499D01*
X131237075Y-38580499D01*
X131518242Y-38556567D01*
X131709462Y-38540293D01*
X132176756Y-38460167D01*
X132635571Y-38340701D01*
X133082602Y-38182755D01*
X133514628Y-37987467D01*
X133928536Y-37756244D01*
X134321343Y-37490753D01*
X134603638Y-37262815D01*
X134690209Y-37192914D01*
X134690211Y-37192913D01*
X134690215Y-37192908D01*
X134690220Y-37192905D01*
X135032510Y-36864847D01*
X135345744Y-36508944D01*
X135461460Y-36352486D01*
X152749500Y-36352486D01*
X152749500Y-36647513D01*
X152778114Y-36864846D01*
X152788007Y-36939993D01*
X152855777Y-37192914D01*
X152864361Y-37224951D01*
X152864364Y-37224961D01*
X152977254Y-37497500D01*
X152977258Y-37497510D01*
X153124761Y-37752993D01*
X153304352Y-37987040D01*
X153304358Y-37987047D01*
X153512952Y-38195641D01*
X153512959Y-38195647D01*
X153747006Y-38375238D01*
X154002489Y-38522741D01*
X154002490Y-38522741D01*
X154002493Y-38522743D01*
X154275048Y-38635639D01*
X154560007Y-38711993D01*
X154852494Y-38750500D01*
X154852501Y-38750500D01*
X155147499Y-38750500D01*
X155147506Y-38750500D01*
X155439993Y-38711993D01*
X155724952Y-38635639D01*
X155997507Y-38522743D01*
X156252994Y-38375238D01*
X156487042Y-38195646D01*
X156695646Y-37987042D01*
X156875238Y-37752994D01*
X157022743Y-37497507D01*
X157135639Y-37224952D01*
X157211993Y-36939993D01*
X157250500Y-36647506D01*
X157250500Y-36352494D01*
X157211993Y-36060007D01*
X157135639Y-35775048D01*
X157022743Y-35502493D01*
X156875238Y-35247006D01*
X156695646Y-35012958D01*
X156695641Y-35012952D01*
X156487047Y-34804358D01*
X156487040Y-34804352D01*
X156252993Y-34624761D01*
X155997510Y-34477258D01*
X155997500Y-34477254D01*
X155724961Y-34364364D01*
X155724954Y-34364362D01*
X155724952Y-34364361D01*
X155439993Y-34288007D01*
X155391113Y-34281571D01*
X155147513Y-34249500D01*
X155147506Y-34249500D01*
X154852494Y-34249500D01*
X154852486Y-34249500D01*
X154574085Y-34286153D01*
X154560007Y-34288007D01*
X154275048Y-34364361D01*
X154275038Y-34364364D01*
X154002499Y-34477254D01*
X154002489Y-34477258D01*
X153747006Y-34624761D01*
X153512959Y-34804352D01*
X153512952Y-34804358D01*
X153304358Y-35012952D01*
X153304352Y-35012959D01*
X153124761Y-35247006D01*
X152977258Y-35502489D01*
X152977254Y-35502499D01*
X152864364Y-35775038D01*
X152864361Y-35775048D01*
X152788008Y-36060004D01*
X152788006Y-36060015D01*
X152749500Y-36352486D01*
X135461460Y-36352486D01*
X135627668Y-36127758D01*
X135876249Y-35724036D01*
X136089697Y-35300688D01*
X136266473Y-34860763D01*
X136405304Y-34407432D01*
X136505190Y-33943960D01*
X136565411Y-33473686D01*
X136585533Y-33000000D01*
X136565411Y-32526314D01*
X136505190Y-32056040D01*
X136405304Y-31592568D01*
X136266473Y-31139237D01*
X136089697Y-30699312D01*
X136089697Y-30699311D01*
X135876258Y-30275981D01*
X135876247Y-30275961D01*
X135627668Y-29872242D01*
X135345744Y-29491056D01*
X135032510Y-29135153D01*
X134690220Y-28807095D01*
X134690211Y-28807086D01*
X134690209Y-28807085D01*
X134321345Y-28509248D01*
X134321344Y-28509247D01*
X133928546Y-28243763D01*
X133928536Y-28243756D01*
X133917662Y-28237681D01*
X133514637Y-28012537D01*
X133514615Y-28012526D01*
X133082608Y-27817247D01*
X132635566Y-27659297D01*
X132176754Y-27539832D01*
X131709472Y-27459708D01*
X131709446Y-27459705D01*
X131237075Y-27419500D01*
X131237057Y-27419500D01*
X130762943Y-27419500D01*
X130762924Y-27419500D01*
X130290553Y-27459705D01*
X130290527Y-27459708D01*
X129823245Y-27539832D01*
X129364433Y-27659297D01*
X128917391Y-27817247D01*
X128485384Y-28012526D01*
X128485362Y-28012537D01*
X128071472Y-28243751D01*
X128071453Y-28243763D01*
X127678655Y-28509247D01*
X127678654Y-28509248D01*
X127309790Y-28807085D01*
X127309788Y-28807086D01*
X126967489Y-29135153D01*
X126654262Y-29491048D01*
X126372331Y-29872243D01*
X126123752Y-30275961D01*
X126123741Y-30275981D01*
X125910302Y-30699311D01*
X125910298Y-30699322D01*
X125733529Y-31139229D01*
X125733527Y-31139234D01*
X125594698Y-31592559D01*
X125594696Y-31592567D01*
X125494810Y-32056038D01*
X125434587Y-32526326D01*
X125414467Y-32999993D01*
X99585533Y-32999993D01*
X99565411Y-32526314D01*
X99505190Y-32056040D01*
X99405304Y-31592568D01*
X99266473Y-31139237D01*
X99089697Y-30699312D01*
X99089697Y-30699311D01*
X98876258Y-30275981D01*
X98876247Y-30275961D01*
X98627668Y-29872242D01*
X98345744Y-29491056D01*
X98032510Y-29135153D01*
X97690220Y-28807095D01*
X97690211Y-28807086D01*
X97690209Y-28807085D01*
X97321345Y-28509248D01*
X97321344Y-28509247D01*
X96928546Y-28243763D01*
X96928536Y-28243756D01*
X96917662Y-28237681D01*
X96514637Y-28012537D01*
X96514615Y-28012526D01*
X96082608Y-27817247D01*
X95635566Y-27659297D01*
X95176754Y-27539832D01*
X94709472Y-27459708D01*
X94709446Y-27459705D01*
X94237075Y-27419500D01*
X94237057Y-27419500D01*
X93762943Y-27419500D01*
X93762924Y-27419500D01*
X93290553Y-27459705D01*
X93290527Y-27459708D01*
X92823245Y-27539832D01*
X92364433Y-27659297D01*
X91917391Y-27817247D01*
X91485384Y-28012526D01*
X91485362Y-28012537D01*
X91071472Y-28243751D01*
X91071453Y-28243763D01*
X90678655Y-28509247D01*
X90678654Y-28509248D01*
X90309790Y-28807085D01*
X90309788Y-28807086D01*
X89967489Y-29135153D01*
X89654262Y-29491048D01*
X89372331Y-29872243D01*
X89123752Y-30275961D01*
X89123741Y-30275981D01*
X88910302Y-30699311D01*
X88910298Y-30699322D01*
X88733529Y-31139229D01*
X88733527Y-31139234D01*
X88594698Y-31592559D01*
X88594696Y-31592567D01*
X88494810Y-32056038D01*
X88434587Y-32526326D01*
X88414467Y-32999993D01*
X55585533Y-32999993D01*
X55565411Y-32526314D01*
X55505190Y-32056040D01*
X55405304Y-31592568D01*
X55266473Y-31139237D01*
X55089697Y-30699312D01*
X55089697Y-30699311D01*
X54876258Y-30275981D01*
X54876247Y-30275961D01*
X54627668Y-29872242D01*
X54345744Y-29491056D01*
X54032510Y-29135153D01*
X53690220Y-28807095D01*
X53690211Y-28807086D01*
X53690209Y-28807085D01*
X53321345Y-28509248D01*
X53321344Y-28509247D01*
X52928546Y-28243763D01*
X52928536Y-28243756D01*
X52917662Y-28237681D01*
X52514637Y-28012537D01*
X52514615Y-28012526D01*
X52082608Y-27817247D01*
X51635566Y-27659297D01*
X51176754Y-27539832D01*
X50709472Y-27459708D01*
X50709446Y-27459705D01*
X50237075Y-27419500D01*
X50237057Y-27419500D01*
X49762943Y-27419500D01*
X49762924Y-27419500D01*
X49290553Y-27459705D01*
X49290527Y-27459708D01*
X48823245Y-27539832D01*
X48364433Y-27659297D01*
X47917391Y-27817247D01*
X47485384Y-28012526D01*
X47485362Y-28012537D01*
X47071472Y-28243751D01*
X47071453Y-28243763D01*
X46678655Y-28509247D01*
X46678654Y-28509248D01*
X46309790Y-28807085D01*
X46309788Y-28807086D01*
X45967489Y-29135153D01*
X45654262Y-29491048D01*
X45372331Y-29872243D01*
X45123752Y-30275961D01*
X45123741Y-30275981D01*
X44910302Y-30699311D01*
X44910298Y-30699322D01*
X44733529Y-31139229D01*
X44733527Y-31139234D01*
X44594698Y-31592559D01*
X44594696Y-31592567D01*
X44494810Y-32056038D01*
X44434587Y-32526326D01*
X44414467Y-32999993D01*
X26500500Y-32999993D01*
X26500500Y-27550862D01*
X26520185Y-27483823D01*
X26536819Y-27463181D01*
X30463181Y-23536819D01*
X30524504Y-23503334D01*
X30550862Y-23500500D01*
X156949138Y-23500500D01*
X157016177Y-23520185D01*
G37*
%TD.AperFunction*%
%TD*%
M02*
