%TF.GenerationSoftware,KiCad,Pcbnew,8.0.8*%
%TF.CreationDate,2025-03-01T18:28:42-05:00*%
%TF.ProjectId,NEW1,4e455731-2e6b-4696-9361-645f70636258,rev?*%
%TF.SameCoordinates,Original*%
%TF.FileFunction,Legend,Top*%
%TF.FilePolarity,Positive*%
%FSLAX46Y46*%
G04 Gerber Fmt 4.6, Leading zero omitted, Abs format (unit mm)*
G04 Created by KiCad (PCBNEW 8.0.8) date 2025-03-01 18:28:42*
%MOMM*%
%LPD*%
G01*
G04 APERTURE LIST*
%ADD10C,0.100000*%
%ADD11C,0.150000*%
%ADD12C,0.120000*%
%ADD13C,0.152400*%
%ADD14C,0.127000*%
G04 APERTURE END LIST*
D10*
X153208646Y-93122419D02*
X153827693Y-93122419D01*
X153827693Y-93122419D02*
X153494360Y-93503371D01*
X153494360Y-93503371D02*
X153637217Y-93503371D01*
X153637217Y-93503371D02*
X153732455Y-93550990D01*
X153732455Y-93550990D02*
X153780074Y-93598609D01*
X153780074Y-93598609D02*
X153827693Y-93693847D01*
X153827693Y-93693847D02*
X153827693Y-93931942D01*
X153827693Y-93931942D02*
X153780074Y-94027180D01*
X153780074Y-94027180D02*
X153732455Y-94074800D01*
X153732455Y-94074800D02*
X153637217Y-94122419D01*
X153637217Y-94122419D02*
X153351503Y-94122419D01*
X153351503Y-94122419D02*
X153256265Y-94074800D01*
X153256265Y-94074800D02*
X153208646Y-94027180D01*
X154256265Y-94027180D02*
X154303884Y-94074800D01*
X154303884Y-94074800D02*
X154256265Y-94122419D01*
X154256265Y-94122419D02*
X154208646Y-94074800D01*
X154208646Y-94074800D02*
X154256265Y-94027180D01*
X154256265Y-94027180D02*
X154256265Y-94122419D01*
X154637217Y-93122419D02*
X155256264Y-93122419D01*
X155256264Y-93122419D02*
X154922931Y-93503371D01*
X154922931Y-93503371D02*
X155065788Y-93503371D01*
X155065788Y-93503371D02*
X155161026Y-93550990D01*
X155161026Y-93550990D02*
X155208645Y-93598609D01*
X155208645Y-93598609D02*
X155256264Y-93693847D01*
X155256264Y-93693847D02*
X155256264Y-93931942D01*
X155256264Y-93931942D02*
X155208645Y-94027180D01*
X155208645Y-94027180D02*
X155161026Y-94074800D01*
X155161026Y-94074800D02*
X155065788Y-94122419D01*
X155065788Y-94122419D02*
X154780074Y-94122419D01*
X154780074Y-94122419D02*
X154684836Y-94074800D01*
X154684836Y-94074800D02*
X154637217Y-94027180D01*
X155541979Y-93122419D02*
X155875312Y-94122419D01*
X155875312Y-94122419D02*
X156208645Y-93122419D01*
X79780074Y-92122419D02*
X79303884Y-92122419D01*
X79303884Y-92122419D02*
X79256265Y-92598609D01*
X79256265Y-92598609D02*
X79303884Y-92550990D01*
X79303884Y-92550990D02*
X79399122Y-92503371D01*
X79399122Y-92503371D02*
X79637217Y-92503371D01*
X79637217Y-92503371D02*
X79732455Y-92550990D01*
X79732455Y-92550990D02*
X79780074Y-92598609D01*
X79780074Y-92598609D02*
X79827693Y-92693847D01*
X79827693Y-92693847D02*
X79827693Y-92931942D01*
X79827693Y-92931942D02*
X79780074Y-93027180D01*
X79780074Y-93027180D02*
X79732455Y-93074800D01*
X79732455Y-93074800D02*
X79637217Y-93122419D01*
X79637217Y-93122419D02*
X79399122Y-93122419D01*
X79399122Y-93122419D02*
X79303884Y-93074800D01*
X79303884Y-93074800D02*
X79256265Y-93027180D01*
X80113408Y-92122419D02*
X80446741Y-93122419D01*
X80446741Y-93122419D02*
X80780074Y-92122419D01*
X52184836Y-82622419D02*
X52184836Y-81622419D01*
X52399122Y-82574800D02*
X52470550Y-82622419D01*
X52470550Y-82622419D02*
X52589598Y-82622419D01*
X52589598Y-82622419D02*
X52637217Y-82574800D01*
X52637217Y-82574800D02*
X52661026Y-82527180D01*
X52661026Y-82527180D02*
X52684836Y-82431942D01*
X52684836Y-82431942D02*
X52684836Y-82336704D01*
X52684836Y-82336704D02*
X52661026Y-82241466D01*
X52661026Y-82241466D02*
X52637217Y-82193847D01*
X52637217Y-82193847D02*
X52589598Y-82146228D01*
X52589598Y-82146228D02*
X52494360Y-82098609D01*
X52494360Y-82098609D02*
X52446741Y-82050990D01*
X52446741Y-82050990D02*
X52422931Y-82003371D01*
X52422931Y-82003371D02*
X52399122Y-81908133D01*
X52399122Y-81908133D02*
X52399122Y-81812895D01*
X52399122Y-81812895D02*
X52422931Y-81717657D01*
X52422931Y-81717657D02*
X52446741Y-81670038D01*
X52446741Y-81670038D02*
X52494360Y-81622419D01*
X52494360Y-81622419D02*
X52613407Y-81622419D01*
X52613407Y-81622419D02*
X52684836Y-81670038D01*
X52994359Y-81622419D02*
X53089597Y-81622419D01*
X53089597Y-81622419D02*
X53137216Y-81670038D01*
X53137216Y-81670038D02*
X53184835Y-81765276D01*
X53184835Y-81765276D02*
X53208645Y-81955752D01*
X53208645Y-81955752D02*
X53208645Y-82289085D01*
X53208645Y-82289085D02*
X53184835Y-82479561D01*
X53184835Y-82479561D02*
X53137216Y-82574800D01*
X53137216Y-82574800D02*
X53089597Y-82622419D01*
X53089597Y-82622419D02*
X52994359Y-82622419D01*
X52994359Y-82622419D02*
X52946740Y-82574800D01*
X52946740Y-82574800D02*
X52899121Y-82479561D01*
X52899121Y-82479561D02*
X52875312Y-82289085D01*
X52875312Y-82289085D02*
X52875312Y-81955752D01*
X52875312Y-81955752D02*
X52899121Y-81765276D01*
X52899121Y-81765276D02*
X52946740Y-81670038D01*
X52946740Y-81670038D02*
X52994359Y-81622419D01*
X54065788Y-82622419D02*
X53780074Y-82622419D01*
X53922931Y-82622419D02*
X53922931Y-81622419D01*
X53922931Y-81622419D02*
X53875312Y-81765276D01*
X53875312Y-81765276D02*
X53827693Y-81860514D01*
X53827693Y-81860514D02*
X53780074Y-81908133D01*
X54256264Y-81717657D02*
X54280073Y-81670038D01*
X54280073Y-81670038D02*
X54327692Y-81622419D01*
X54327692Y-81622419D02*
X54446740Y-81622419D01*
X54446740Y-81622419D02*
X54494359Y-81670038D01*
X54494359Y-81670038D02*
X54518168Y-81717657D01*
X54518168Y-81717657D02*
X54541978Y-81812895D01*
X54541978Y-81812895D02*
X54541978Y-81908133D01*
X54541978Y-81908133D02*
X54518168Y-82050990D01*
X54518168Y-82050990D02*
X54232454Y-82622419D01*
X54232454Y-82622419D02*
X54541978Y-82622419D01*
X54684835Y-81622419D02*
X54851501Y-82622419D01*
X54851501Y-82622419D02*
X55018168Y-81622419D01*
X73327693Y-60670038D02*
X73232455Y-60622419D01*
X73232455Y-60622419D02*
X73089598Y-60622419D01*
X73089598Y-60622419D02*
X72946741Y-60670038D01*
X72946741Y-60670038D02*
X72851503Y-60765276D01*
X72851503Y-60765276D02*
X72803884Y-60860514D01*
X72803884Y-60860514D02*
X72756265Y-61050990D01*
X72756265Y-61050990D02*
X72756265Y-61193847D01*
X72756265Y-61193847D02*
X72803884Y-61384323D01*
X72803884Y-61384323D02*
X72851503Y-61479561D01*
X72851503Y-61479561D02*
X72946741Y-61574800D01*
X72946741Y-61574800D02*
X73089598Y-61622419D01*
X73089598Y-61622419D02*
X73184836Y-61622419D01*
X73184836Y-61622419D02*
X73327693Y-61574800D01*
X73327693Y-61574800D02*
X73375312Y-61527180D01*
X73375312Y-61527180D02*
X73375312Y-61193847D01*
X73375312Y-61193847D02*
X73184836Y-61193847D01*
X73803884Y-61622419D02*
X73803884Y-60622419D01*
X73803884Y-60622419D02*
X74041979Y-60622419D01*
X74041979Y-60622419D02*
X74184836Y-60670038D01*
X74184836Y-60670038D02*
X74280074Y-60765276D01*
X74280074Y-60765276D02*
X74327693Y-60860514D01*
X74327693Y-60860514D02*
X74375312Y-61050990D01*
X74375312Y-61050990D02*
X74375312Y-61193847D01*
X74375312Y-61193847D02*
X74327693Y-61384323D01*
X74327693Y-61384323D02*
X74280074Y-61479561D01*
X74280074Y-61479561D02*
X74184836Y-61574800D01*
X74184836Y-61574800D02*
X74041979Y-61622419D01*
X74041979Y-61622419D02*
X73803884Y-61622419D01*
X75565789Y-61622419D02*
X75565789Y-60622419D01*
X75565789Y-60622419D02*
X75946741Y-60622419D01*
X75946741Y-60622419D02*
X76041979Y-60670038D01*
X76041979Y-60670038D02*
X76089598Y-60717657D01*
X76089598Y-60717657D02*
X76137217Y-60812895D01*
X76137217Y-60812895D02*
X76137217Y-60955752D01*
X76137217Y-60955752D02*
X76089598Y-61050990D01*
X76089598Y-61050990D02*
X76041979Y-61098609D01*
X76041979Y-61098609D02*
X75946741Y-61146228D01*
X75946741Y-61146228D02*
X75565789Y-61146228D01*
X76470551Y-60622419D02*
X76708646Y-61622419D01*
X76708646Y-61622419D02*
X76899122Y-60908133D01*
X76899122Y-60908133D02*
X77089598Y-61622419D01*
X77089598Y-61622419D02*
X77327694Y-60622419D01*
X77708646Y-61622419D02*
X77708646Y-60622419D01*
X77708646Y-60622419D02*
X78041979Y-61336704D01*
X78041979Y-61336704D02*
X78375312Y-60622419D01*
X78375312Y-60622419D02*
X78375312Y-61622419D01*
X46303884Y-80122419D02*
X46303884Y-79122419D01*
X46303884Y-79122419D02*
X46684836Y-79122419D01*
X46684836Y-79122419D02*
X46780074Y-79170038D01*
X46780074Y-79170038D02*
X46827693Y-79217657D01*
X46827693Y-79217657D02*
X46875312Y-79312895D01*
X46875312Y-79312895D02*
X46875312Y-79455752D01*
X46875312Y-79455752D02*
X46827693Y-79550990D01*
X46827693Y-79550990D02*
X46780074Y-79598609D01*
X46780074Y-79598609D02*
X46684836Y-79646228D01*
X46684836Y-79646228D02*
X46303884Y-79646228D01*
X47208646Y-79122419D02*
X47446741Y-80122419D01*
X47446741Y-80122419D02*
X47637217Y-79408133D01*
X47637217Y-79408133D02*
X47827693Y-80122419D01*
X47827693Y-80122419D02*
X48065789Y-79122419D01*
X48446741Y-80122419D02*
X48446741Y-79122419D01*
X48446741Y-79122419D02*
X48780074Y-79836704D01*
X48780074Y-79836704D02*
X49113407Y-79122419D01*
X49113407Y-79122419D02*
X49113407Y-80122419D01*
D11*
X134783333Y-93109580D02*
X134735714Y-93157200D01*
X134735714Y-93157200D02*
X134592857Y-93204819D01*
X134592857Y-93204819D02*
X134497619Y-93204819D01*
X134497619Y-93204819D02*
X134354762Y-93157200D01*
X134354762Y-93157200D02*
X134259524Y-93061961D01*
X134259524Y-93061961D02*
X134211905Y-92966723D01*
X134211905Y-92966723D02*
X134164286Y-92776247D01*
X134164286Y-92776247D02*
X134164286Y-92633390D01*
X134164286Y-92633390D02*
X134211905Y-92442914D01*
X134211905Y-92442914D02*
X134259524Y-92347676D01*
X134259524Y-92347676D02*
X134354762Y-92252438D01*
X134354762Y-92252438D02*
X134497619Y-92204819D01*
X134497619Y-92204819D02*
X134592857Y-92204819D01*
X134592857Y-92204819D02*
X134735714Y-92252438D01*
X134735714Y-92252438D02*
X134783333Y-92300057D01*
X135164286Y-92300057D02*
X135211905Y-92252438D01*
X135211905Y-92252438D02*
X135307143Y-92204819D01*
X135307143Y-92204819D02*
X135545238Y-92204819D01*
X135545238Y-92204819D02*
X135640476Y-92252438D01*
X135640476Y-92252438D02*
X135688095Y-92300057D01*
X135688095Y-92300057D02*
X135735714Y-92395295D01*
X135735714Y-92395295D02*
X135735714Y-92490533D01*
X135735714Y-92490533D02*
X135688095Y-92633390D01*
X135688095Y-92633390D02*
X135116667Y-93204819D01*
X135116667Y-93204819D02*
X135735714Y-93204819D01*
X135833333Y-83704819D02*
X135500000Y-83228628D01*
X135261905Y-83704819D02*
X135261905Y-82704819D01*
X135261905Y-82704819D02*
X135642857Y-82704819D01*
X135642857Y-82704819D02*
X135738095Y-82752438D01*
X135738095Y-82752438D02*
X135785714Y-82800057D01*
X135785714Y-82800057D02*
X135833333Y-82895295D01*
X135833333Y-82895295D02*
X135833333Y-83038152D01*
X135833333Y-83038152D02*
X135785714Y-83133390D01*
X135785714Y-83133390D02*
X135738095Y-83181009D01*
X135738095Y-83181009D02*
X135642857Y-83228628D01*
X135642857Y-83228628D02*
X135261905Y-83228628D01*
X136690476Y-83038152D02*
X136690476Y-83704819D01*
X136452381Y-82657200D02*
X136214286Y-83371485D01*
X136214286Y-83371485D02*
X136833333Y-83371485D01*
X44761905Y-81704819D02*
X44761905Y-80704819D01*
X44761905Y-80704819D02*
X45000000Y-80704819D01*
X45000000Y-80704819D02*
X45142857Y-80752438D01*
X45142857Y-80752438D02*
X45238095Y-80847676D01*
X45238095Y-80847676D02*
X45285714Y-80942914D01*
X45285714Y-80942914D02*
X45333333Y-81133390D01*
X45333333Y-81133390D02*
X45333333Y-81276247D01*
X45333333Y-81276247D02*
X45285714Y-81466723D01*
X45285714Y-81466723D02*
X45238095Y-81561961D01*
X45238095Y-81561961D02*
X45142857Y-81657200D01*
X45142857Y-81657200D02*
X45000000Y-81704819D01*
X45000000Y-81704819D02*
X44761905Y-81704819D01*
X46238095Y-80704819D02*
X45761905Y-80704819D01*
X45761905Y-80704819D02*
X45714286Y-81181009D01*
X45714286Y-81181009D02*
X45761905Y-81133390D01*
X45761905Y-81133390D02*
X45857143Y-81085771D01*
X45857143Y-81085771D02*
X46095238Y-81085771D01*
X46095238Y-81085771D02*
X46190476Y-81133390D01*
X46190476Y-81133390D02*
X46238095Y-81181009D01*
X46238095Y-81181009D02*
X46285714Y-81276247D01*
X46285714Y-81276247D02*
X46285714Y-81514342D01*
X46285714Y-81514342D02*
X46238095Y-81609580D01*
X46238095Y-81609580D02*
X46190476Y-81657200D01*
X46190476Y-81657200D02*
X46095238Y-81704819D01*
X46095238Y-81704819D02*
X45857143Y-81704819D01*
X45857143Y-81704819D02*
X45761905Y-81657200D01*
X45761905Y-81657200D02*
X45714286Y-81609580D01*
X93666666Y-25954819D02*
X93666666Y-26669104D01*
X93666666Y-26669104D02*
X93619047Y-26811961D01*
X93619047Y-26811961D02*
X93523809Y-26907200D01*
X93523809Y-26907200D02*
X93380952Y-26954819D01*
X93380952Y-26954819D02*
X93285714Y-26954819D01*
X94619047Y-25954819D02*
X94142857Y-25954819D01*
X94142857Y-25954819D02*
X94095238Y-26431009D01*
X94095238Y-26431009D02*
X94142857Y-26383390D01*
X94142857Y-26383390D02*
X94238095Y-26335771D01*
X94238095Y-26335771D02*
X94476190Y-26335771D01*
X94476190Y-26335771D02*
X94571428Y-26383390D01*
X94571428Y-26383390D02*
X94619047Y-26431009D01*
X94619047Y-26431009D02*
X94666666Y-26526247D01*
X94666666Y-26526247D02*
X94666666Y-26764342D01*
X94666666Y-26764342D02*
X94619047Y-26859580D01*
X94619047Y-26859580D02*
X94571428Y-26907200D01*
X94571428Y-26907200D02*
X94476190Y-26954819D01*
X94476190Y-26954819D02*
X94238095Y-26954819D01*
X94238095Y-26954819D02*
X94142857Y-26907200D01*
X94142857Y-26907200D02*
X94095238Y-26859580D01*
X121228095Y-89584819D02*
X121228095Y-90394342D01*
X121228095Y-90394342D02*
X121275714Y-90489580D01*
X121275714Y-90489580D02*
X121323333Y-90537200D01*
X121323333Y-90537200D02*
X121418571Y-90584819D01*
X121418571Y-90584819D02*
X121609047Y-90584819D01*
X121609047Y-90584819D02*
X121704285Y-90537200D01*
X121704285Y-90537200D02*
X121751904Y-90489580D01*
X121751904Y-90489580D02*
X121799523Y-90394342D01*
X121799523Y-90394342D02*
X121799523Y-89584819D01*
X122799523Y-90584819D02*
X122228095Y-90584819D01*
X122513809Y-90584819D02*
X122513809Y-89584819D01*
X122513809Y-89584819D02*
X122418571Y-89727676D01*
X122418571Y-89727676D02*
X122323333Y-89822914D01*
X122323333Y-89822914D02*
X122228095Y-89870533D01*
X44948533Y-85609580D02*
X44900914Y-85657200D01*
X44900914Y-85657200D02*
X44758057Y-85704819D01*
X44758057Y-85704819D02*
X44662819Y-85704819D01*
X44662819Y-85704819D02*
X44519962Y-85657200D01*
X44519962Y-85657200D02*
X44424724Y-85561961D01*
X44424724Y-85561961D02*
X44377105Y-85466723D01*
X44377105Y-85466723D02*
X44329486Y-85276247D01*
X44329486Y-85276247D02*
X44329486Y-85133390D01*
X44329486Y-85133390D02*
X44377105Y-84942914D01*
X44377105Y-84942914D02*
X44424724Y-84847676D01*
X44424724Y-84847676D02*
X44519962Y-84752438D01*
X44519962Y-84752438D02*
X44662819Y-84704819D01*
X44662819Y-84704819D02*
X44758057Y-84704819D01*
X44758057Y-84704819D02*
X44900914Y-84752438D01*
X44900914Y-84752438D02*
X44948533Y-84800057D01*
X45805676Y-84704819D02*
X45615200Y-84704819D01*
X45615200Y-84704819D02*
X45519962Y-84752438D01*
X45519962Y-84752438D02*
X45472343Y-84800057D01*
X45472343Y-84800057D02*
X45377105Y-84942914D01*
X45377105Y-84942914D02*
X45329486Y-85133390D01*
X45329486Y-85133390D02*
X45329486Y-85514342D01*
X45329486Y-85514342D02*
X45377105Y-85609580D01*
X45377105Y-85609580D02*
X45424724Y-85657200D01*
X45424724Y-85657200D02*
X45519962Y-85704819D01*
X45519962Y-85704819D02*
X45710438Y-85704819D01*
X45710438Y-85704819D02*
X45805676Y-85657200D01*
X45805676Y-85657200D02*
X45853295Y-85609580D01*
X45853295Y-85609580D02*
X45900914Y-85514342D01*
X45900914Y-85514342D02*
X45900914Y-85276247D01*
X45900914Y-85276247D02*
X45853295Y-85181009D01*
X45853295Y-85181009D02*
X45805676Y-85133390D01*
X45805676Y-85133390D02*
X45710438Y-85085771D01*
X45710438Y-85085771D02*
X45519962Y-85085771D01*
X45519962Y-85085771D02*
X45424724Y-85133390D01*
X45424724Y-85133390D02*
X45377105Y-85181009D01*
X45377105Y-85181009D02*
X45329486Y-85276247D01*
X74357142Y-76204819D02*
X74023809Y-75728628D01*
X73785714Y-76204819D02*
X73785714Y-75204819D01*
X73785714Y-75204819D02*
X74166666Y-75204819D01*
X74166666Y-75204819D02*
X74261904Y-75252438D01*
X74261904Y-75252438D02*
X74309523Y-75300057D01*
X74309523Y-75300057D02*
X74357142Y-75395295D01*
X74357142Y-75395295D02*
X74357142Y-75538152D01*
X74357142Y-75538152D02*
X74309523Y-75633390D01*
X74309523Y-75633390D02*
X74261904Y-75681009D01*
X74261904Y-75681009D02*
X74166666Y-75728628D01*
X74166666Y-75728628D02*
X73785714Y-75728628D01*
X75309523Y-76204819D02*
X74738095Y-76204819D01*
X75023809Y-76204819D02*
X75023809Y-75204819D01*
X75023809Y-75204819D02*
X74928571Y-75347676D01*
X74928571Y-75347676D02*
X74833333Y-75442914D01*
X74833333Y-75442914D02*
X74738095Y-75490533D01*
X75928571Y-75204819D02*
X76023809Y-75204819D01*
X76023809Y-75204819D02*
X76119047Y-75252438D01*
X76119047Y-75252438D02*
X76166666Y-75300057D01*
X76166666Y-75300057D02*
X76214285Y-75395295D01*
X76214285Y-75395295D02*
X76261904Y-75585771D01*
X76261904Y-75585771D02*
X76261904Y-75823866D01*
X76261904Y-75823866D02*
X76214285Y-76014342D01*
X76214285Y-76014342D02*
X76166666Y-76109580D01*
X76166666Y-76109580D02*
X76119047Y-76157200D01*
X76119047Y-76157200D02*
X76023809Y-76204819D01*
X76023809Y-76204819D02*
X75928571Y-76204819D01*
X75928571Y-76204819D02*
X75833333Y-76157200D01*
X75833333Y-76157200D02*
X75785714Y-76109580D01*
X75785714Y-76109580D02*
X75738095Y-76014342D01*
X75738095Y-76014342D02*
X75690476Y-75823866D01*
X75690476Y-75823866D02*
X75690476Y-75585771D01*
X75690476Y-75585771D02*
X75738095Y-75395295D01*
X75738095Y-75395295D02*
X75785714Y-75300057D01*
X75785714Y-75300057D02*
X75833333Y-75252438D01*
X75833333Y-75252438D02*
X75928571Y-75204819D01*
X49666666Y-45954819D02*
X49666666Y-46669104D01*
X49666666Y-46669104D02*
X49619047Y-46811961D01*
X49619047Y-46811961D02*
X49523809Y-46907200D01*
X49523809Y-46907200D02*
X49380952Y-46954819D01*
X49380952Y-46954819D02*
X49285714Y-46954819D01*
X50571428Y-46288152D02*
X50571428Y-46954819D01*
X50333333Y-45907200D02*
X50095238Y-46621485D01*
X50095238Y-46621485D02*
X50714285Y-46621485D01*
X147833333Y-87204819D02*
X147500000Y-86728628D01*
X147261905Y-87204819D02*
X147261905Y-86204819D01*
X147261905Y-86204819D02*
X147642857Y-86204819D01*
X147642857Y-86204819D02*
X147738095Y-86252438D01*
X147738095Y-86252438D02*
X147785714Y-86300057D01*
X147785714Y-86300057D02*
X147833333Y-86395295D01*
X147833333Y-86395295D02*
X147833333Y-86538152D01*
X147833333Y-86538152D02*
X147785714Y-86633390D01*
X147785714Y-86633390D02*
X147738095Y-86681009D01*
X147738095Y-86681009D02*
X147642857Y-86728628D01*
X147642857Y-86728628D02*
X147261905Y-86728628D01*
X148785714Y-87204819D02*
X148214286Y-87204819D01*
X148500000Y-87204819D02*
X148500000Y-86204819D01*
X148500000Y-86204819D02*
X148404762Y-86347676D01*
X148404762Y-86347676D02*
X148309524Y-86442914D01*
X148309524Y-86442914D02*
X148214286Y-86490533D01*
X45333333Y-79204819D02*
X45000000Y-78728628D01*
X44761905Y-79204819D02*
X44761905Y-78204819D01*
X44761905Y-78204819D02*
X45142857Y-78204819D01*
X45142857Y-78204819D02*
X45238095Y-78252438D01*
X45238095Y-78252438D02*
X45285714Y-78300057D01*
X45285714Y-78300057D02*
X45333333Y-78395295D01*
X45333333Y-78395295D02*
X45333333Y-78538152D01*
X45333333Y-78538152D02*
X45285714Y-78633390D01*
X45285714Y-78633390D02*
X45238095Y-78681009D01*
X45238095Y-78681009D02*
X45142857Y-78728628D01*
X45142857Y-78728628D02*
X44761905Y-78728628D01*
X45904762Y-78633390D02*
X45809524Y-78585771D01*
X45809524Y-78585771D02*
X45761905Y-78538152D01*
X45761905Y-78538152D02*
X45714286Y-78442914D01*
X45714286Y-78442914D02*
X45714286Y-78395295D01*
X45714286Y-78395295D02*
X45761905Y-78300057D01*
X45761905Y-78300057D02*
X45809524Y-78252438D01*
X45809524Y-78252438D02*
X45904762Y-78204819D01*
X45904762Y-78204819D02*
X46095238Y-78204819D01*
X46095238Y-78204819D02*
X46190476Y-78252438D01*
X46190476Y-78252438D02*
X46238095Y-78300057D01*
X46238095Y-78300057D02*
X46285714Y-78395295D01*
X46285714Y-78395295D02*
X46285714Y-78442914D01*
X46285714Y-78442914D02*
X46238095Y-78538152D01*
X46238095Y-78538152D02*
X46190476Y-78585771D01*
X46190476Y-78585771D02*
X46095238Y-78633390D01*
X46095238Y-78633390D02*
X45904762Y-78633390D01*
X45904762Y-78633390D02*
X45809524Y-78681009D01*
X45809524Y-78681009D02*
X45761905Y-78728628D01*
X45761905Y-78728628D02*
X45714286Y-78823866D01*
X45714286Y-78823866D02*
X45714286Y-79014342D01*
X45714286Y-79014342D02*
X45761905Y-79109580D01*
X45761905Y-79109580D02*
X45809524Y-79157200D01*
X45809524Y-79157200D02*
X45904762Y-79204819D01*
X45904762Y-79204819D02*
X46095238Y-79204819D01*
X46095238Y-79204819D02*
X46190476Y-79157200D01*
X46190476Y-79157200D02*
X46238095Y-79109580D01*
X46238095Y-79109580D02*
X46285714Y-79014342D01*
X46285714Y-79014342D02*
X46285714Y-78823866D01*
X46285714Y-78823866D02*
X46238095Y-78728628D01*
X46238095Y-78728628D02*
X46190476Y-78681009D01*
X46190476Y-78681009D02*
X46095238Y-78633390D01*
X68592142Y-76204819D02*
X68258809Y-75728628D01*
X68020714Y-76204819D02*
X68020714Y-75204819D01*
X68020714Y-75204819D02*
X68401666Y-75204819D01*
X68401666Y-75204819D02*
X68496904Y-75252438D01*
X68496904Y-75252438D02*
X68544523Y-75300057D01*
X68544523Y-75300057D02*
X68592142Y-75395295D01*
X68592142Y-75395295D02*
X68592142Y-75538152D01*
X68592142Y-75538152D02*
X68544523Y-75633390D01*
X68544523Y-75633390D02*
X68496904Y-75681009D01*
X68496904Y-75681009D02*
X68401666Y-75728628D01*
X68401666Y-75728628D02*
X68020714Y-75728628D01*
X69544523Y-76204819D02*
X68973095Y-76204819D01*
X69258809Y-76204819D02*
X69258809Y-75204819D01*
X69258809Y-75204819D02*
X69163571Y-75347676D01*
X69163571Y-75347676D02*
X69068333Y-75442914D01*
X69068333Y-75442914D02*
X68973095Y-75490533D01*
X70496904Y-76204819D02*
X69925476Y-76204819D01*
X70211190Y-76204819D02*
X70211190Y-75204819D01*
X70211190Y-75204819D02*
X70115952Y-75347676D01*
X70115952Y-75347676D02*
X70020714Y-75442914D01*
X70020714Y-75442914D02*
X69925476Y-75490533D01*
X53853295Y-91704819D02*
X53853295Y-92514342D01*
X53853295Y-92514342D02*
X53900914Y-92609580D01*
X53900914Y-92609580D02*
X53948533Y-92657200D01*
X53948533Y-92657200D02*
X54043771Y-92704819D01*
X54043771Y-92704819D02*
X54234247Y-92704819D01*
X54234247Y-92704819D02*
X54329485Y-92657200D01*
X54329485Y-92657200D02*
X54377104Y-92609580D01*
X54377104Y-92609580D02*
X54424723Y-92514342D01*
X54424723Y-92514342D02*
X54424723Y-91704819D01*
X55329485Y-92038152D02*
X55329485Y-92704819D01*
X55091390Y-91657200D02*
X54853295Y-92371485D01*
X54853295Y-92371485D02*
X55472342Y-92371485D01*
X43845600Y-89629819D02*
X43845600Y-89867914D01*
X43607505Y-89772676D02*
X43845600Y-89867914D01*
X43845600Y-89867914D02*
X44083695Y-89772676D01*
X43702743Y-90058390D02*
X43845600Y-89867914D01*
X43845600Y-89867914D02*
X43988457Y-90058390D01*
X43845600Y-89629819D02*
X43845600Y-89867914D01*
X43607505Y-89772676D02*
X43845600Y-89867914D01*
X43845600Y-89867914D02*
X44083695Y-89772676D01*
X43702743Y-90058390D02*
X43845600Y-89867914D01*
X43845600Y-89867914D02*
X43988457Y-90058390D01*
X78357142Y-77204819D02*
X78023809Y-76728628D01*
X77785714Y-77204819D02*
X77785714Y-76204819D01*
X77785714Y-76204819D02*
X78166666Y-76204819D01*
X78166666Y-76204819D02*
X78261904Y-76252438D01*
X78261904Y-76252438D02*
X78309523Y-76300057D01*
X78309523Y-76300057D02*
X78357142Y-76395295D01*
X78357142Y-76395295D02*
X78357142Y-76538152D01*
X78357142Y-76538152D02*
X78309523Y-76633390D01*
X78309523Y-76633390D02*
X78261904Y-76681009D01*
X78261904Y-76681009D02*
X78166666Y-76728628D01*
X78166666Y-76728628D02*
X77785714Y-76728628D01*
X79309523Y-77204819D02*
X78738095Y-77204819D01*
X79023809Y-77204819D02*
X79023809Y-76204819D01*
X79023809Y-76204819D02*
X78928571Y-76347676D01*
X78928571Y-76347676D02*
X78833333Y-76442914D01*
X78833333Y-76442914D02*
X78738095Y-76490533D01*
X79690476Y-76300057D02*
X79738095Y-76252438D01*
X79738095Y-76252438D02*
X79833333Y-76204819D01*
X79833333Y-76204819D02*
X80071428Y-76204819D01*
X80071428Y-76204819D02*
X80166666Y-76252438D01*
X80166666Y-76252438D02*
X80214285Y-76300057D01*
X80214285Y-76300057D02*
X80261904Y-76395295D01*
X80261904Y-76395295D02*
X80261904Y-76490533D01*
X80261904Y-76490533D02*
X80214285Y-76633390D01*
X80214285Y-76633390D02*
X79642857Y-77204819D01*
X79642857Y-77204819D02*
X80261904Y-77204819D01*
X147833333Y-84609580D02*
X147785714Y-84657200D01*
X147785714Y-84657200D02*
X147642857Y-84704819D01*
X147642857Y-84704819D02*
X147547619Y-84704819D01*
X147547619Y-84704819D02*
X147404762Y-84657200D01*
X147404762Y-84657200D02*
X147309524Y-84561961D01*
X147309524Y-84561961D02*
X147261905Y-84466723D01*
X147261905Y-84466723D02*
X147214286Y-84276247D01*
X147214286Y-84276247D02*
X147214286Y-84133390D01*
X147214286Y-84133390D02*
X147261905Y-83942914D01*
X147261905Y-83942914D02*
X147309524Y-83847676D01*
X147309524Y-83847676D02*
X147404762Y-83752438D01*
X147404762Y-83752438D02*
X147547619Y-83704819D01*
X147547619Y-83704819D02*
X147642857Y-83704819D01*
X147642857Y-83704819D02*
X147785714Y-83752438D01*
X147785714Y-83752438D02*
X147833333Y-83800057D01*
X148785714Y-84704819D02*
X148214286Y-84704819D01*
X148500000Y-84704819D02*
X148500000Y-83704819D01*
X148500000Y-83704819D02*
X148404762Y-83847676D01*
X148404762Y-83847676D02*
X148309524Y-83942914D01*
X148309524Y-83942914D02*
X148214286Y-83990533D01*
X154238095Y-158454819D02*
X154238095Y-157454819D01*
X154238095Y-157931009D02*
X154809523Y-157931009D01*
X154809523Y-158454819D02*
X154809523Y-157454819D01*
X155190476Y-157454819D02*
X155809523Y-157454819D01*
X155809523Y-157454819D02*
X155476190Y-157835771D01*
X155476190Y-157835771D02*
X155619047Y-157835771D01*
X155619047Y-157835771D02*
X155714285Y-157883390D01*
X155714285Y-157883390D02*
X155761904Y-157931009D01*
X155761904Y-157931009D02*
X155809523Y-158026247D01*
X155809523Y-158026247D02*
X155809523Y-158264342D01*
X155809523Y-158264342D02*
X155761904Y-158359580D01*
X155761904Y-158359580D02*
X155714285Y-158407200D01*
X155714285Y-158407200D02*
X155619047Y-158454819D01*
X155619047Y-158454819D02*
X155333333Y-158454819D01*
X155333333Y-158454819D02*
X155238095Y-158407200D01*
X155238095Y-158407200D02*
X155190476Y-158359580D01*
X54954819Y-86988094D02*
X53954819Y-86988094D01*
X53954819Y-86988094D02*
X53954819Y-86749999D01*
X53954819Y-86749999D02*
X54002438Y-86607142D01*
X54002438Y-86607142D02*
X54097676Y-86511904D01*
X54097676Y-86511904D02*
X54192914Y-86464285D01*
X54192914Y-86464285D02*
X54383390Y-86416666D01*
X54383390Y-86416666D02*
X54526247Y-86416666D01*
X54526247Y-86416666D02*
X54716723Y-86464285D01*
X54716723Y-86464285D02*
X54811961Y-86511904D01*
X54811961Y-86511904D02*
X54907200Y-86607142D01*
X54907200Y-86607142D02*
X54954819Y-86749999D01*
X54954819Y-86749999D02*
X54954819Y-86988094D01*
X54050057Y-86035713D02*
X54002438Y-85988094D01*
X54002438Y-85988094D02*
X53954819Y-85892856D01*
X53954819Y-85892856D02*
X53954819Y-85654761D01*
X53954819Y-85654761D02*
X54002438Y-85559523D01*
X54002438Y-85559523D02*
X54050057Y-85511904D01*
X54050057Y-85511904D02*
X54145295Y-85464285D01*
X54145295Y-85464285D02*
X54240533Y-85464285D01*
X54240533Y-85464285D02*
X54383390Y-85511904D01*
X54383390Y-85511904D02*
X54954819Y-86083332D01*
X54954819Y-86083332D02*
X54954819Y-85464285D01*
X49666666Y-25954819D02*
X49666666Y-26669104D01*
X49666666Y-26669104D02*
X49619047Y-26811961D01*
X49619047Y-26811961D02*
X49523809Y-26907200D01*
X49523809Y-26907200D02*
X49380952Y-26954819D01*
X49380952Y-26954819D02*
X49285714Y-26954819D01*
X50666666Y-26954819D02*
X50095238Y-26954819D01*
X50380952Y-26954819D02*
X50380952Y-25954819D01*
X50380952Y-25954819D02*
X50285714Y-26097676D01*
X50285714Y-26097676D02*
X50190476Y-26192914D01*
X50190476Y-26192914D02*
X50095238Y-26240533D01*
X84811113Y-75109580D02*
X84763494Y-75157200D01*
X84763494Y-75157200D02*
X84620637Y-75204819D01*
X84620637Y-75204819D02*
X84525399Y-75204819D01*
X84525399Y-75204819D02*
X84382542Y-75157200D01*
X84382542Y-75157200D02*
X84287304Y-75061961D01*
X84287304Y-75061961D02*
X84239685Y-74966723D01*
X84239685Y-74966723D02*
X84192066Y-74776247D01*
X84192066Y-74776247D02*
X84192066Y-74633390D01*
X84192066Y-74633390D02*
X84239685Y-74442914D01*
X84239685Y-74442914D02*
X84287304Y-74347676D01*
X84287304Y-74347676D02*
X84382542Y-74252438D01*
X84382542Y-74252438D02*
X84525399Y-74204819D01*
X84525399Y-74204819D02*
X84620637Y-74204819D01*
X84620637Y-74204819D02*
X84763494Y-74252438D01*
X84763494Y-74252438D02*
X84811113Y-74300057D01*
X85144447Y-74204819D02*
X85763494Y-74204819D01*
X85763494Y-74204819D02*
X85430161Y-74585771D01*
X85430161Y-74585771D02*
X85573018Y-74585771D01*
X85573018Y-74585771D02*
X85668256Y-74633390D01*
X85668256Y-74633390D02*
X85715875Y-74681009D01*
X85715875Y-74681009D02*
X85763494Y-74776247D01*
X85763494Y-74776247D02*
X85763494Y-75014342D01*
X85763494Y-75014342D02*
X85715875Y-75109580D01*
X85715875Y-75109580D02*
X85668256Y-75157200D01*
X85668256Y-75157200D02*
X85573018Y-75204819D01*
X85573018Y-75204819D02*
X85287304Y-75204819D01*
X85287304Y-75204819D02*
X85192066Y-75157200D01*
X85192066Y-75157200D02*
X85144447Y-75109580D01*
X54954819Y-83916666D02*
X54478628Y-84249999D01*
X54954819Y-84488094D02*
X53954819Y-84488094D01*
X53954819Y-84488094D02*
X53954819Y-84107142D01*
X53954819Y-84107142D02*
X54002438Y-84011904D01*
X54002438Y-84011904D02*
X54050057Y-83964285D01*
X54050057Y-83964285D02*
X54145295Y-83916666D01*
X54145295Y-83916666D02*
X54288152Y-83916666D01*
X54288152Y-83916666D02*
X54383390Y-83964285D01*
X54383390Y-83964285D02*
X54431009Y-84011904D01*
X54431009Y-84011904D02*
X54478628Y-84107142D01*
X54478628Y-84107142D02*
X54478628Y-84488094D01*
X53954819Y-83011904D02*
X53954819Y-83488094D01*
X53954819Y-83488094D02*
X54431009Y-83535713D01*
X54431009Y-83535713D02*
X54383390Y-83488094D01*
X54383390Y-83488094D02*
X54335771Y-83392856D01*
X54335771Y-83392856D02*
X54335771Y-83154761D01*
X54335771Y-83154761D02*
X54383390Y-83059523D01*
X54383390Y-83059523D02*
X54431009Y-83011904D01*
X54431009Y-83011904D02*
X54526247Y-82964285D01*
X54526247Y-82964285D02*
X54764342Y-82964285D01*
X54764342Y-82964285D02*
X54859580Y-83011904D01*
X54859580Y-83011904D02*
X54907200Y-83059523D01*
X54907200Y-83059523D02*
X54954819Y-83154761D01*
X54954819Y-83154761D02*
X54954819Y-83392856D01*
X54954819Y-83392856D02*
X54907200Y-83488094D01*
X54907200Y-83488094D02*
X54859580Y-83535713D01*
X31738095Y-158454819D02*
X31738095Y-157454819D01*
X31738095Y-157931009D02*
X32309523Y-157931009D01*
X32309523Y-158454819D02*
X32309523Y-157454819D01*
X32738095Y-157550057D02*
X32785714Y-157502438D01*
X32785714Y-157502438D02*
X32880952Y-157454819D01*
X32880952Y-157454819D02*
X33119047Y-157454819D01*
X33119047Y-157454819D02*
X33214285Y-157502438D01*
X33214285Y-157502438D02*
X33261904Y-157550057D01*
X33261904Y-157550057D02*
X33309523Y-157645295D01*
X33309523Y-157645295D02*
X33309523Y-157740533D01*
X33309523Y-157740533D02*
X33261904Y-157883390D01*
X33261904Y-157883390D02*
X32690476Y-158454819D01*
X32690476Y-158454819D02*
X33309523Y-158454819D01*
X55383333Y-80609580D02*
X55335714Y-80657200D01*
X55335714Y-80657200D02*
X55192857Y-80704819D01*
X55192857Y-80704819D02*
X55097619Y-80704819D01*
X55097619Y-80704819D02*
X54954762Y-80657200D01*
X54954762Y-80657200D02*
X54859524Y-80561961D01*
X54859524Y-80561961D02*
X54811905Y-80466723D01*
X54811905Y-80466723D02*
X54764286Y-80276247D01*
X54764286Y-80276247D02*
X54764286Y-80133390D01*
X54764286Y-80133390D02*
X54811905Y-79942914D01*
X54811905Y-79942914D02*
X54859524Y-79847676D01*
X54859524Y-79847676D02*
X54954762Y-79752438D01*
X54954762Y-79752438D02*
X55097619Y-79704819D01*
X55097619Y-79704819D02*
X55192857Y-79704819D01*
X55192857Y-79704819D02*
X55335714Y-79752438D01*
X55335714Y-79752438D02*
X55383333Y-79800057D01*
X55716667Y-79704819D02*
X56383333Y-79704819D01*
X56383333Y-79704819D02*
X55954762Y-80704819D01*
X65922342Y-83244580D02*
X65874723Y-83292200D01*
X65874723Y-83292200D02*
X65731866Y-83339819D01*
X65731866Y-83339819D02*
X65636628Y-83339819D01*
X65636628Y-83339819D02*
X65493771Y-83292200D01*
X65493771Y-83292200D02*
X65398533Y-83196961D01*
X65398533Y-83196961D02*
X65350914Y-83101723D01*
X65350914Y-83101723D02*
X65303295Y-82911247D01*
X65303295Y-82911247D02*
X65303295Y-82768390D01*
X65303295Y-82768390D02*
X65350914Y-82577914D01*
X65350914Y-82577914D02*
X65398533Y-82482676D01*
X65398533Y-82482676D02*
X65493771Y-82387438D01*
X65493771Y-82387438D02*
X65636628Y-82339819D01*
X65636628Y-82339819D02*
X65731866Y-82339819D01*
X65731866Y-82339819D02*
X65874723Y-82387438D01*
X65874723Y-82387438D02*
X65922342Y-82435057D01*
X66874723Y-83339819D02*
X66303295Y-83339819D01*
X66589009Y-83339819D02*
X66589009Y-82339819D01*
X66589009Y-82339819D02*
X66493771Y-82482676D01*
X66493771Y-82482676D02*
X66398533Y-82577914D01*
X66398533Y-82577914D02*
X66303295Y-82625533D01*
X67827104Y-83339819D02*
X67255676Y-83339819D01*
X67541390Y-83339819D02*
X67541390Y-82339819D01*
X67541390Y-82339819D02*
X67446152Y-82482676D01*
X67446152Y-82482676D02*
X67350914Y-82577914D01*
X67350914Y-82577914D02*
X67255676Y-82625533D01*
X31738095Y-31954819D02*
X31738095Y-30954819D01*
X31738095Y-31431009D02*
X32309523Y-31431009D01*
X32309523Y-31954819D02*
X32309523Y-30954819D01*
X33309523Y-31954819D02*
X32738095Y-31954819D01*
X33023809Y-31954819D02*
X33023809Y-30954819D01*
X33023809Y-30954819D02*
X32928571Y-31097676D01*
X32928571Y-31097676D02*
X32833333Y-31192914D01*
X32833333Y-31192914D02*
X32738095Y-31240533D01*
X74261905Y-65704819D02*
X74261905Y-64704819D01*
X74261905Y-64704819D02*
X74500000Y-64704819D01*
X74500000Y-64704819D02*
X74642857Y-64752438D01*
X74642857Y-64752438D02*
X74738095Y-64847676D01*
X74738095Y-64847676D02*
X74785714Y-64942914D01*
X74785714Y-64942914D02*
X74833333Y-65133390D01*
X74833333Y-65133390D02*
X74833333Y-65276247D01*
X74833333Y-65276247D02*
X74785714Y-65466723D01*
X74785714Y-65466723D02*
X74738095Y-65561961D01*
X74738095Y-65561961D02*
X74642857Y-65657200D01*
X74642857Y-65657200D02*
X74500000Y-65704819D01*
X74500000Y-65704819D02*
X74261905Y-65704819D01*
X75690476Y-64704819D02*
X75500000Y-64704819D01*
X75500000Y-64704819D02*
X75404762Y-64752438D01*
X75404762Y-64752438D02*
X75357143Y-64800057D01*
X75357143Y-64800057D02*
X75261905Y-64942914D01*
X75261905Y-64942914D02*
X75214286Y-65133390D01*
X75214286Y-65133390D02*
X75214286Y-65514342D01*
X75214286Y-65514342D02*
X75261905Y-65609580D01*
X75261905Y-65609580D02*
X75309524Y-65657200D01*
X75309524Y-65657200D02*
X75404762Y-65704819D01*
X75404762Y-65704819D02*
X75595238Y-65704819D01*
X75595238Y-65704819D02*
X75690476Y-65657200D01*
X75690476Y-65657200D02*
X75738095Y-65609580D01*
X75738095Y-65609580D02*
X75785714Y-65514342D01*
X75785714Y-65514342D02*
X75785714Y-65276247D01*
X75785714Y-65276247D02*
X75738095Y-65181009D01*
X75738095Y-65181009D02*
X75690476Y-65133390D01*
X75690476Y-65133390D02*
X75595238Y-65085771D01*
X75595238Y-65085771D02*
X75404762Y-65085771D01*
X75404762Y-65085771D02*
X75309524Y-65133390D01*
X75309524Y-65133390D02*
X75261905Y-65181009D01*
X75261905Y-65181009D02*
X75214286Y-65276247D01*
X77324405Y-94704819D02*
X77324405Y-93704819D01*
X77324405Y-93704819D02*
X77562500Y-93704819D01*
X77562500Y-93704819D02*
X77705357Y-93752438D01*
X77705357Y-93752438D02*
X77800595Y-93847676D01*
X77800595Y-93847676D02*
X77848214Y-93942914D01*
X77848214Y-93942914D02*
X77895833Y-94133390D01*
X77895833Y-94133390D02*
X77895833Y-94276247D01*
X77895833Y-94276247D02*
X77848214Y-94466723D01*
X77848214Y-94466723D02*
X77800595Y-94561961D01*
X77800595Y-94561961D02*
X77705357Y-94657200D01*
X77705357Y-94657200D02*
X77562500Y-94704819D01*
X77562500Y-94704819D02*
X77324405Y-94704819D01*
X78229167Y-93704819D02*
X78848214Y-93704819D01*
X78848214Y-93704819D02*
X78514881Y-94085771D01*
X78514881Y-94085771D02*
X78657738Y-94085771D01*
X78657738Y-94085771D02*
X78752976Y-94133390D01*
X78752976Y-94133390D02*
X78800595Y-94181009D01*
X78800595Y-94181009D02*
X78848214Y-94276247D01*
X78848214Y-94276247D02*
X78848214Y-94514342D01*
X78848214Y-94514342D02*
X78800595Y-94609580D01*
X78800595Y-94609580D02*
X78752976Y-94657200D01*
X78752976Y-94657200D02*
X78657738Y-94704819D01*
X78657738Y-94704819D02*
X78372024Y-94704819D01*
X78372024Y-94704819D02*
X78276786Y-94657200D01*
X78276786Y-94657200D02*
X78229167Y-94609580D01*
X89904761Y-62475057D02*
X89809523Y-62427438D01*
X89809523Y-62427438D02*
X89714285Y-62332200D01*
X89714285Y-62332200D02*
X89571428Y-62189342D01*
X89571428Y-62189342D02*
X89476190Y-62141723D01*
X89476190Y-62141723D02*
X89380952Y-62141723D01*
X89428571Y-62379819D02*
X89333333Y-62332200D01*
X89333333Y-62332200D02*
X89238095Y-62236961D01*
X89238095Y-62236961D02*
X89190476Y-62046485D01*
X89190476Y-62046485D02*
X89190476Y-61713152D01*
X89190476Y-61713152D02*
X89238095Y-61522676D01*
X89238095Y-61522676D02*
X89333333Y-61427438D01*
X89333333Y-61427438D02*
X89428571Y-61379819D01*
X89428571Y-61379819D02*
X89619047Y-61379819D01*
X89619047Y-61379819D02*
X89714285Y-61427438D01*
X89714285Y-61427438D02*
X89809523Y-61522676D01*
X89809523Y-61522676D02*
X89857142Y-61713152D01*
X89857142Y-61713152D02*
X89857142Y-62046485D01*
X89857142Y-62046485D02*
X89809523Y-62236961D01*
X89809523Y-62236961D02*
X89714285Y-62332200D01*
X89714285Y-62332200D02*
X89619047Y-62379819D01*
X89619047Y-62379819D02*
X89428571Y-62379819D01*
X90809523Y-62379819D02*
X90238095Y-62379819D01*
X90523809Y-62379819D02*
X90523809Y-61379819D01*
X90523809Y-61379819D02*
X90428571Y-61522676D01*
X90428571Y-61522676D02*
X90333333Y-61617914D01*
X90333333Y-61617914D02*
X90238095Y-61665533D01*
X71542142Y-76204819D02*
X71208809Y-75728628D01*
X70970714Y-76204819D02*
X70970714Y-75204819D01*
X70970714Y-75204819D02*
X71351666Y-75204819D01*
X71351666Y-75204819D02*
X71446904Y-75252438D01*
X71446904Y-75252438D02*
X71494523Y-75300057D01*
X71494523Y-75300057D02*
X71542142Y-75395295D01*
X71542142Y-75395295D02*
X71542142Y-75538152D01*
X71542142Y-75538152D02*
X71494523Y-75633390D01*
X71494523Y-75633390D02*
X71446904Y-75681009D01*
X71446904Y-75681009D02*
X71351666Y-75728628D01*
X71351666Y-75728628D02*
X70970714Y-75728628D01*
X72494523Y-76204819D02*
X71923095Y-76204819D01*
X72208809Y-76204819D02*
X72208809Y-75204819D01*
X72208809Y-75204819D02*
X72113571Y-75347676D01*
X72113571Y-75347676D02*
X72018333Y-75442914D01*
X72018333Y-75442914D02*
X71923095Y-75490533D01*
X73351666Y-75538152D02*
X73351666Y-76204819D01*
X73113571Y-75157200D02*
X72875476Y-75871485D01*
X72875476Y-75871485D02*
X73494523Y-75871485D01*
X79261905Y-63754819D02*
X79261905Y-62754819D01*
X79261905Y-62754819D02*
X79500000Y-62754819D01*
X79500000Y-62754819D02*
X79642857Y-62802438D01*
X79642857Y-62802438D02*
X79738095Y-62897676D01*
X79738095Y-62897676D02*
X79785714Y-62992914D01*
X79785714Y-62992914D02*
X79833333Y-63183390D01*
X79833333Y-63183390D02*
X79833333Y-63326247D01*
X79833333Y-63326247D02*
X79785714Y-63516723D01*
X79785714Y-63516723D02*
X79738095Y-63611961D01*
X79738095Y-63611961D02*
X79642857Y-63707200D01*
X79642857Y-63707200D02*
X79500000Y-63754819D01*
X79500000Y-63754819D02*
X79261905Y-63754819D01*
X80166667Y-62754819D02*
X80833333Y-62754819D01*
X80833333Y-62754819D02*
X80404762Y-63754819D01*
X142738095Y-157454819D02*
X142738095Y-158264342D01*
X142738095Y-158264342D02*
X142785714Y-158359580D01*
X142785714Y-158359580D02*
X142833333Y-158407200D01*
X142833333Y-158407200D02*
X142928571Y-158454819D01*
X142928571Y-158454819D02*
X143119047Y-158454819D01*
X143119047Y-158454819D02*
X143214285Y-158407200D01*
X143214285Y-158407200D02*
X143261904Y-158359580D01*
X143261904Y-158359580D02*
X143309523Y-158264342D01*
X143309523Y-158264342D02*
X143309523Y-157454819D01*
X143738095Y-157550057D02*
X143785714Y-157502438D01*
X143785714Y-157502438D02*
X143880952Y-157454819D01*
X143880952Y-157454819D02*
X144119047Y-157454819D01*
X144119047Y-157454819D02*
X144214285Y-157502438D01*
X144214285Y-157502438D02*
X144261904Y-157550057D01*
X144261904Y-157550057D02*
X144309523Y-157645295D01*
X144309523Y-157645295D02*
X144309523Y-157740533D01*
X144309523Y-157740533D02*
X144261904Y-157883390D01*
X144261904Y-157883390D02*
X143690476Y-158454819D01*
X143690476Y-158454819D02*
X144309523Y-158454819D01*
X99937476Y-108424819D02*
X99937476Y-109139104D01*
X99937476Y-109139104D02*
X99889857Y-109281961D01*
X99889857Y-109281961D02*
X99794619Y-109377200D01*
X99794619Y-109377200D02*
X99651762Y-109424819D01*
X99651762Y-109424819D02*
X99556524Y-109424819D01*
X100366048Y-108520057D02*
X100413667Y-108472438D01*
X100413667Y-108472438D02*
X100508905Y-108424819D01*
X100508905Y-108424819D02*
X100747000Y-108424819D01*
X100747000Y-108424819D02*
X100842238Y-108472438D01*
X100842238Y-108472438D02*
X100889857Y-108520057D01*
X100889857Y-108520057D02*
X100937476Y-108615295D01*
X100937476Y-108615295D02*
X100937476Y-108710533D01*
X100937476Y-108710533D02*
X100889857Y-108853390D01*
X100889857Y-108853390D02*
X100318429Y-109424819D01*
X100318429Y-109424819D02*
X100937476Y-109424819D01*
X101889857Y-109424819D02*
X101318429Y-109424819D01*
X101604143Y-109424819D02*
X101604143Y-108424819D01*
X101604143Y-108424819D02*
X101508905Y-108567676D01*
X101508905Y-108567676D02*
X101413667Y-108662914D01*
X101413667Y-108662914D02*
X101318429Y-108710533D01*
X128353666Y-145889819D02*
X128353666Y-146604104D01*
X128353666Y-146604104D02*
X128306047Y-146746961D01*
X128306047Y-146746961D02*
X128210809Y-146842200D01*
X128210809Y-146842200D02*
X128067952Y-146889819D01*
X128067952Y-146889819D02*
X127972714Y-146889819D01*
X129258428Y-146223152D02*
X129258428Y-146889819D01*
X129020333Y-145842200D02*
X128782238Y-146556485D01*
X128782238Y-146556485D02*
X129401285Y-146556485D01*
X35262476Y-102234819D02*
X35262476Y-102949104D01*
X35262476Y-102949104D02*
X35214857Y-103091961D01*
X35214857Y-103091961D02*
X35119619Y-103187200D01*
X35119619Y-103187200D02*
X34976762Y-103234819D01*
X34976762Y-103234819D02*
X34881524Y-103234819D01*
X36262476Y-103234819D02*
X35691048Y-103234819D01*
X35976762Y-103234819D02*
X35976762Y-102234819D01*
X35976762Y-102234819D02*
X35881524Y-102377676D01*
X35881524Y-102377676D02*
X35786286Y-102472914D01*
X35786286Y-102472914D02*
X35691048Y-102520533D01*
X37119619Y-102234819D02*
X36929143Y-102234819D01*
X36929143Y-102234819D02*
X36833905Y-102282438D01*
X36833905Y-102282438D02*
X36786286Y-102330057D01*
X36786286Y-102330057D02*
X36691048Y-102472914D01*
X36691048Y-102472914D02*
X36643429Y-102663390D01*
X36643429Y-102663390D02*
X36643429Y-103044342D01*
X36643429Y-103044342D02*
X36691048Y-103139580D01*
X36691048Y-103139580D02*
X36738667Y-103187200D01*
X36738667Y-103187200D02*
X36833905Y-103234819D01*
X36833905Y-103234819D02*
X37024381Y-103234819D01*
X37024381Y-103234819D02*
X37119619Y-103187200D01*
X37119619Y-103187200D02*
X37167238Y-103139580D01*
X37167238Y-103139580D02*
X37214857Y-103044342D01*
X37214857Y-103044342D02*
X37214857Y-102806247D01*
X37214857Y-102806247D02*
X37167238Y-102711009D01*
X37167238Y-102711009D02*
X37119619Y-102663390D01*
X37119619Y-102663390D02*
X37024381Y-102615771D01*
X37024381Y-102615771D02*
X36833905Y-102615771D01*
X36833905Y-102615771D02*
X36738667Y-102663390D01*
X36738667Y-102663390D02*
X36691048Y-102711009D01*
X36691048Y-102711009D02*
X36643429Y-102806247D01*
X30562476Y-130109819D02*
X30562476Y-130824104D01*
X30562476Y-130824104D02*
X30514857Y-130966961D01*
X30514857Y-130966961D02*
X30419619Y-131062200D01*
X30419619Y-131062200D02*
X30276762Y-131109819D01*
X30276762Y-131109819D02*
X30181524Y-131109819D01*
X31562476Y-131109819D02*
X30991048Y-131109819D01*
X31276762Y-131109819D02*
X31276762Y-130109819D01*
X31276762Y-130109819D02*
X31181524Y-130252676D01*
X31181524Y-130252676D02*
X31086286Y-130347914D01*
X31086286Y-130347914D02*
X30991048Y-130395533D01*
X32467238Y-130109819D02*
X31991048Y-130109819D01*
X31991048Y-130109819D02*
X31943429Y-130586009D01*
X31943429Y-130586009D02*
X31991048Y-130538390D01*
X31991048Y-130538390D02*
X32086286Y-130490771D01*
X32086286Y-130490771D02*
X32324381Y-130490771D01*
X32324381Y-130490771D02*
X32419619Y-130538390D01*
X32419619Y-130538390D02*
X32467238Y-130586009D01*
X32467238Y-130586009D02*
X32514857Y-130681247D01*
X32514857Y-130681247D02*
X32514857Y-130919342D01*
X32514857Y-130919342D02*
X32467238Y-131014580D01*
X32467238Y-131014580D02*
X32419619Y-131062200D01*
X32419619Y-131062200D02*
X32324381Y-131109819D01*
X32324381Y-131109819D02*
X32086286Y-131109819D01*
X32086286Y-131109819D02*
X31991048Y-131062200D01*
X31991048Y-131062200D02*
X31943429Y-131014580D01*
X30562476Y-114869819D02*
X30562476Y-115584104D01*
X30562476Y-115584104D02*
X30514857Y-115726961D01*
X30514857Y-115726961D02*
X30419619Y-115822200D01*
X30419619Y-115822200D02*
X30276762Y-115869819D01*
X30276762Y-115869819D02*
X30181524Y-115869819D01*
X31562476Y-115869819D02*
X30991048Y-115869819D01*
X31276762Y-115869819D02*
X31276762Y-114869819D01*
X31276762Y-114869819D02*
X31181524Y-115012676D01*
X31181524Y-115012676D02*
X31086286Y-115107914D01*
X31086286Y-115107914D02*
X30991048Y-115155533D01*
X31943429Y-114965057D02*
X31991048Y-114917438D01*
X31991048Y-114917438D02*
X32086286Y-114869819D01*
X32086286Y-114869819D02*
X32324381Y-114869819D01*
X32324381Y-114869819D02*
X32419619Y-114917438D01*
X32419619Y-114917438D02*
X32467238Y-114965057D01*
X32467238Y-114965057D02*
X32514857Y-115060295D01*
X32514857Y-115060295D02*
X32514857Y-115155533D01*
X32514857Y-115155533D02*
X32467238Y-115298390D01*
X32467238Y-115298390D02*
X31895810Y-115869819D01*
X31895810Y-115869819D02*
X32514857Y-115869819D01*
X128353666Y-102709819D02*
X128353666Y-103424104D01*
X128353666Y-103424104D02*
X128306047Y-103566961D01*
X128306047Y-103566961D02*
X128210809Y-103662200D01*
X128210809Y-103662200D02*
X128067952Y-103709819D01*
X128067952Y-103709819D02*
X127972714Y-103709819D01*
X129353666Y-103709819D02*
X128782238Y-103709819D01*
X129067952Y-103709819D02*
X129067952Y-102709819D01*
X129067952Y-102709819D02*
X128972714Y-102852676D01*
X128972714Y-102852676D02*
X128877476Y-102947914D01*
X128877476Y-102947914D02*
X128782238Y-102995533D01*
X64218666Y-145889819D02*
X64218666Y-146604104D01*
X64218666Y-146604104D02*
X64171047Y-146746961D01*
X64171047Y-146746961D02*
X64075809Y-146842200D01*
X64075809Y-146842200D02*
X63932952Y-146889819D01*
X63932952Y-146889819D02*
X63837714Y-146889819D01*
X64837714Y-146318390D02*
X64742476Y-146270771D01*
X64742476Y-146270771D02*
X64694857Y-146223152D01*
X64694857Y-146223152D02*
X64647238Y-146127914D01*
X64647238Y-146127914D02*
X64647238Y-146080295D01*
X64647238Y-146080295D02*
X64694857Y-145985057D01*
X64694857Y-145985057D02*
X64742476Y-145937438D01*
X64742476Y-145937438D02*
X64837714Y-145889819D01*
X64837714Y-145889819D02*
X65028190Y-145889819D01*
X65028190Y-145889819D02*
X65123428Y-145937438D01*
X65123428Y-145937438D02*
X65171047Y-145985057D01*
X65171047Y-145985057D02*
X65218666Y-146080295D01*
X65218666Y-146080295D02*
X65218666Y-146127914D01*
X65218666Y-146127914D02*
X65171047Y-146223152D01*
X65171047Y-146223152D02*
X65123428Y-146270771D01*
X65123428Y-146270771D02*
X65028190Y-146318390D01*
X65028190Y-146318390D02*
X64837714Y-146318390D01*
X64837714Y-146318390D02*
X64742476Y-146366009D01*
X64742476Y-146366009D02*
X64694857Y-146413628D01*
X64694857Y-146413628D02*
X64647238Y-146508866D01*
X64647238Y-146508866D02*
X64647238Y-146699342D01*
X64647238Y-146699342D02*
X64694857Y-146794580D01*
X64694857Y-146794580D02*
X64742476Y-146842200D01*
X64742476Y-146842200D02*
X64837714Y-146889819D01*
X64837714Y-146889819D02*
X65028190Y-146889819D01*
X65028190Y-146889819D02*
X65123428Y-146842200D01*
X65123428Y-146842200D02*
X65171047Y-146794580D01*
X65171047Y-146794580D02*
X65218666Y-146699342D01*
X65218666Y-146699342D02*
X65218666Y-146508866D01*
X65218666Y-146508866D02*
X65171047Y-146413628D01*
X65171047Y-146413628D02*
X65123428Y-146366009D01*
X65123428Y-146366009D02*
X65028190Y-146318390D01*
X35012476Y-150509819D02*
X35012476Y-151224104D01*
X35012476Y-151224104D02*
X34964857Y-151366961D01*
X34964857Y-151366961D02*
X34869619Y-151462200D01*
X34869619Y-151462200D02*
X34726762Y-151509819D01*
X34726762Y-151509819D02*
X34631524Y-151509819D01*
X36012476Y-151509819D02*
X35441048Y-151509819D01*
X35726762Y-151509819D02*
X35726762Y-150509819D01*
X35726762Y-150509819D02*
X35631524Y-150652676D01*
X35631524Y-150652676D02*
X35536286Y-150747914D01*
X35536286Y-150747914D02*
X35441048Y-150795533D01*
X36631524Y-150509819D02*
X36726762Y-150509819D01*
X36726762Y-150509819D02*
X36822000Y-150557438D01*
X36822000Y-150557438D02*
X36869619Y-150605057D01*
X36869619Y-150605057D02*
X36917238Y-150700295D01*
X36917238Y-150700295D02*
X36964857Y-150890771D01*
X36964857Y-150890771D02*
X36964857Y-151128866D01*
X36964857Y-151128866D02*
X36917238Y-151319342D01*
X36917238Y-151319342D02*
X36869619Y-151414580D01*
X36869619Y-151414580D02*
X36822000Y-151462200D01*
X36822000Y-151462200D02*
X36726762Y-151509819D01*
X36726762Y-151509819D02*
X36631524Y-151509819D01*
X36631524Y-151509819D02*
X36536286Y-151462200D01*
X36536286Y-151462200D02*
X36488667Y-151414580D01*
X36488667Y-151414580D02*
X36441048Y-151319342D01*
X36441048Y-151319342D02*
X36393429Y-151128866D01*
X36393429Y-151128866D02*
X36393429Y-150890771D01*
X36393429Y-150890771D02*
X36441048Y-150700295D01*
X36441048Y-150700295D02*
X36488667Y-150605057D01*
X36488667Y-150605057D02*
X36536286Y-150557438D01*
X36536286Y-150557438D02*
X36631524Y-150509819D01*
X64218666Y-105249819D02*
X64218666Y-105964104D01*
X64218666Y-105964104D02*
X64171047Y-106106961D01*
X64171047Y-106106961D02*
X64075809Y-106202200D01*
X64075809Y-106202200D02*
X63932952Y-106249819D01*
X63932952Y-106249819D02*
X63837714Y-106249819D01*
X64599619Y-105249819D02*
X65266285Y-105249819D01*
X65266285Y-105249819D02*
X64837714Y-106249819D01*
X128353666Y-105249819D02*
X128353666Y-105964104D01*
X128353666Y-105964104D02*
X128306047Y-106106961D01*
X128306047Y-106106961D02*
X128210809Y-106202200D01*
X128210809Y-106202200D02*
X128067952Y-106249819D01*
X128067952Y-106249819D02*
X127972714Y-106249819D01*
X128734619Y-105249819D02*
X129353666Y-105249819D01*
X129353666Y-105249819D02*
X129020333Y-105630771D01*
X129020333Y-105630771D02*
X129163190Y-105630771D01*
X129163190Y-105630771D02*
X129258428Y-105678390D01*
X129258428Y-105678390D02*
X129306047Y-105726009D01*
X129306047Y-105726009D02*
X129353666Y-105821247D01*
X129353666Y-105821247D02*
X129353666Y-106059342D01*
X129353666Y-106059342D02*
X129306047Y-106154580D01*
X129306047Y-106154580D02*
X129258428Y-106202200D01*
X129258428Y-106202200D02*
X129163190Y-106249819D01*
X129163190Y-106249819D02*
X128877476Y-106249819D01*
X128877476Y-106249819D02*
X128782238Y-106202200D01*
X128782238Y-106202200D02*
X128734619Y-106154580D01*
X64218666Y-148429819D02*
X64218666Y-149144104D01*
X64218666Y-149144104D02*
X64171047Y-149286961D01*
X64171047Y-149286961D02*
X64075809Y-149382200D01*
X64075809Y-149382200D02*
X63932952Y-149429819D01*
X63932952Y-149429819D02*
X63837714Y-149429819D01*
X65123428Y-148429819D02*
X64932952Y-148429819D01*
X64932952Y-148429819D02*
X64837714Y-148477438D01*
X64837714Y-148477438D02*
X64790095Y-148525057D01*
X64790095Y-148525057D02*
X64694857Y-148667914D01*
X64694857Y-148667914D02*
X64647238Y-148858390D01*
X64647238Y-148858390D02*
X64647238Y-149239342D01*
X64647238Y-149239342D02*
X64694857Y-149334580D01*
X64694857Y-149334580D02*
X64742476Y-149382200D01*
X64742476Y-149382200D02*
X64837714Y-149429819D01*
X64837714Y-149429819D02*
X65028190Y-149429819D01*
X65028190Y-149429819D02*
X65123428Y-149382200D01*
X65123428Y-149382200D02*
X65171047Y-149334580D01*
X65171047Y-149334580D02*
X65218666Y-149239342D01*
X65218666Y-149239342D02*
X65218666Y-149001247D01*
X65218666Y-149001247D02*
X65171047Y-148906009D01*
X65171047Y-148906009D02*
X65123428Y-148858390D01*
X65123428Y-148858390D02*
X65028190Y-148810771D01*
X65028190Y-148810771D02*
X64837714Y-148810771D01*
X64837714Y-148810771D02*
X64742476Y-148858390D01*
X64742476Y-148858390D02*
X64694857Y-148906009D01*
X64694857Y-148906009D02*
X64647238Y-149001247D01*
X30612476Y-145509819D02*
X30612476Y-146224104D01*
X30612476Y-146224104D02*
X30564857Y-146366961D01*
X30564857Y-146366961D02*
X30469619Y-146462200D01*
X30469619Y-146462200D02*
X30326762Y-146509819D01*
X30326762Y-146509819D02*
X30231524Y-146509819D01*
X31612476Y-146509819D02*
X31041048Y-146509819D01*
X31326762Y-146509819D02*
X31326762Y-145509819D01*
X31326762Y-145509819D02*
X31231524Y-145652676D01*
X31231524Y-145652676D02*
X31136286Y-145747914D01*
X31136286Y-145747914D02*
X31041048Y-145795533D01*
X32469619Y-145843152D02*
X32469619Y-146509819D01*
X32231524Y-145462200D02*
X31993429Y-146176485D01*
X31993429Y-146176485D02*
X32612476Y-146176485D01*
X128353666Y-148429819D02*
X128353666Y-149144104D01*
X128353666Y-149144104D02*
X128306047Y-149286961D01*
X128306047Y-149286961D02*
X128210809Y-149382200D01*
X128210809Y-149382200D02*
X128067952Y-149429819D01*
X128067952Y-149429819D02*
X127972714Y-149429819D01*
X128782238Y-148525057D02*
X128829857Y-148477438D01*
X128829857Y-148477438D02*
X128925095Y-148429819D01*
X128925095Y-148429819D02*
X129163190Y-148429819D01*
X129163190Y-148429819D02*
X129258428Y-148477438D01*
X129258428Y-148477438D02*
X129306047Y-148525057D01*
X129306047Y-148525057D02*
X129353666Y-148620295D01*
X129353666Y-148620295D02*
X129353666Y-148715533D01*
X129353666Y-148715533D02*
X129306047Y-148858390D01*
X129306047Y-148858390D02*
X128734619Y-149429819D01*
X128734619Y-149429819D02*
X129353666Y-149429819D01*
X64218666Y-102709819D02*
X64218666Y-103424104D01*
X64218666Y-103424104D02*
X64171047Y-103566961D01*
X64171047Y-103566961D02*
X64075809Y-103662200D01*
X64075809Y-103662200D02*
X63932952Y-103709819D01*
X63932952Y-103709819D02*
X63837714Y-103709819D01*
X65171047Y-102709819D02*
X64694857Y-102709819D01*
X64694857Y-102709819D02*
X64647238Y-103186009D01*
X64647238Y-103186009D02*
X64694857Y-103138390D01*
X64694857Y-103138390D02*
X64790095Y-103090771D01*
X64790095Y-103090771D02*
X65028190Y-103090771D01*
X65028190Y-103090771D02*
X65123428Y-103138390D01*
X65123428Y-103138390D02*
X65171047Y-103186009D01*
X65171047Y-103186009D02*
X65218666Y-103281247D01*
X65218666Y-103281247D02*
X65218666Y-103519342D01*
X65218666Y-103519342D02*
X65171047Y-103614580D01*
X65171047Y-103614580D02*
X65123428Y-103662200D01*
X65123428Y-103662200D02*
X65028190Y-103709819D01*
X65028190Y-103709819D02*
X64790095Y-103709819D01*
X64790095Y-103709819D02*
X64694857Y-103662200D01*
X64694857Y-103662200D02*
X64647238Y-103614580D01*
X147833333Y-82204819D02*
X147500000Y-81728628D01*
X147261905Y-82204819D02*
X147261905Y-81204819D01*
X147261905Y-81204819D02*
X147642857Y-81204819D01*
X147642857Y-81204819D02*
X147738095Y-81252438D01*
X147738095Y-81252438D02*
X147785714Y-81300057D01*
X147785714Y-81300057D02*
X147833333Y-81395295D01*
X147833333Y-81395295D02*
X147833333Y-81538152D01*
X147833333Y-81538152D02*
X147785714Y-81633390D01*
X147785714Y-81633390D02*
X147738095Y-81681009D01*
X147738095Y-81681009D02*
X147642857Y-81728628D01*
X147642857Y-81728628D02*
X147261905Y-81728628D01*
X148166667Y-81204819D02*
X148785714Y-81204819D01*
X148785714Y-81204819D02*
X148452381Y-81585771D01*
X148452381Y-81585771D02*
X148595238Y-81585771D01*
X148595238Y-81585771D02*
X148690476Y-81633390D01*
X148690476Y-81633390D02*
X148738095Y-81681009D01*
X148738095Y-81681009D02*
X148785714Y-81776247D01*
X148785714Y-81776247D02*
X148785714Y-82014342D01*
X148785714Y-82014342D02*
X148738095Y-82109580D01*
X148738095Y-82109580D02*
X148690476Y-82157200D01*
X148690476Y-82157200D02*
X148595238Y-82204819D01*
X148595238Y-82204819D02*
X148309524Y-82204819D01*
X148309524Y-82204819D02*
X148214286Y-82157200D01*
X148214286Y-82157200D02*
X148166667Y-82109580D01*
X50833333Y-73937080D02*
X50785714Y-73984700D01*
X50785714Y-73984700D02*
X50642857Y-74032319D01*
X50642857Y-74032319D02*
X50547619Y-74032319D01*
X50547619Y-74032319D02*
X50404762Y-73984700D01*
X50404762Y-73984700D02*
X50309524Y-73889461D01*
X50309524Y-73889461D02*
X50261905Y-73794223D01*
X50261905Y-73794223D02*
X50214286Y-73603747D01*
X50214286Y-73603747D02*
X50214286Y-73460890D01*
X50214286Y-73460890D02*
X50261905Y-73270414D01*
X50261905Y-73270414D02*
X50309524Y-73175176D01*
X50309524Y-73175176D02*
X50404762Y-73079938D01*
X50404762Y-73079938D02*
X50547619Y-73032319D01*
X50547619Y-73032319D02*
X50642857Y-73032319D01*
X50642857Y-73032319D02*
X50785714Y-73079938D01*
X50785714Y-73079938D02*
X50833333Y-73127557D01*
X51404762Y-73460890D02*
X51309524Y-73413271D01*
X51309524Y-73413271D02*
X51261905Y-73365652D01*
X51261905Y-73365652D02*
X51214286Y-73270414D01*
X51214286Y-73270414D02*
X51214286Y-73222795D01*
X51214286Y-73222795D02*
X51261905Y-73127557D01*
X51261905Y-73127557D02*
X51309524Y-73079938D01*
X51309524Y-73079938D02*
X51404762Y-73032319D01*
X51404762Y-73032319D02*
X51595238Y-73032319D01*
X51595238Y-73032319D02*
X51690476Y-73079938D01*
X51690476Y-73079938D02*
X51738095Y-73127557D01*
X51738095Y-73127557D02*
X51785714Y-73222795D01*
X51785714Y-73222795D02*
X51785714Y-73270414D01*
X51785714Y-73270414D02*
X51738095Y-73365652D01*
X51738095Y-73365652D02*
X51690476Y-73413271D01*
X51690476Y-73413271D02*
X51595238Y-73460890D01*
X51595238Y-73460890D02*
X51404762Y-73460890D01*
X51404762Y-73460890D02*
X51309524Y-73508509D01*
X51309524Y-73508509D02*
X51261905Y-73556128D01*
X51261905Y-73556128D02*
X51214286Y-73651366D01*
X51214286Y-73651366D02*
X51214286Y-73841842D01*
X51214286Y-73841842D02*
X51261905Y-73937080D01*
X51261905Y-73937080D02*
X51309524Y-73984700D01*
X51309524Y-73984700D02*
X51404762Y-74032319D01*
X51404762Y-74032319D02*
X51595238Y-74032319D01*
X51595238Y-74032319D02*
X51690476Y-73984700D01*
X51690476Y-73984700D02*
X51738095Y-73937080D01*
X51738095Y-73937080D02*
X51785714Y-73841842D01*
X51785714Y-73841842D02*
X51785714Y-73651366D01*
X51785714Y-73651366D02*
X51738095Y-73556128D01*
X51738095Y-73556128D02*
X51690476Y-73508509D01*
X51690476Y-73508509D02*
X51595238Y-73460890D01*
X120783333Y-59234819D02*
X120307143Y-59234819D01*
X120307143Y-59234819D02*
X120307143Y-58234819D01*
X121640476Y-59234819D02*
X121069048Y-59234819D01*
X121354762Y-59234819D02*
X121354762Y-58234819D01*
X121354762Y-58234819D02*
X121259524Y-58377676D01*
X121259524Y-58377676D02*
X121164286Y-58472914D01*
X121164286Y-58472914D02*
X121069048Y-58520533D01*
X77895833Y-92204819D02*
X77562500Y-91728628D01*
X77324405Y-92204819D02*
X77324405Y-91204819D01*
X77324405Y-91204819D02*
X77705357Y-91204819D01*
X77705357Y-91204819D02*
X77800595Y-91252438D01*
X77800595Y-91252438D02*
X77848214Y-91300057D01*
X77848214Y-91300057D02*
X77895833Y-91395295D01*
X77895833Y-91395295D02*
X77895833Y-91538152D01*
X77895833Y-91538152D02*
X77848214Y-91633390D01*
X77848214Y-91633390D02*
X77800595Y-91681009D01*
X77800595Y-91681009D02*
X77705357Y-91728628D01*
X77705357Y-91728628D02*
X77324405Y-91728628D01*
X78752976Y-91204819D02*
X78562500Y-91204819D01*
X78562500Y-91204819D02*
X78467262Y-91252438D01*
X78467262Y-91252438D02*
X78419643Y-91300057D01*
X78419643Y-91300057D02*
X78324405Y-91442914D01*
X78324405Y-91442914D02*
X78276786Y-91633390D01*
X78276786Y-91633390D02*
X78276786Y-92014342D01*
X78276786Y-92014342D02*
X78324405Y-92109580D01*
X78324405Y-92109580D02*
X78372024Y-92157200D01*
X78372024Y-92157200D02*
X78467262Y-92204819D01*
X78467262Y-92204819D02*
X78657738Y-92204819D01*
X78657738Y-92204819D02*
X78752976Y-92157200D01*
X78752976Y-92157200D02*
X78800595Y-92109580D01*
X78800595Y-92109580D02*
X78848214Y-92014342D01*
X78848214Y-92014342D02*
X78848214Y-91776247D01*
X78848214Y-91776247D02*
X78800595Y-91681009D01*
X78800595Y-91681009D02*
X78752976Y-91633390D01*
X78752976Y-91633390D02*
X78657738Y-91585771D01*
X78657738Y-91585771D02*
X78467262Y-91585771D01*
X78467262Y-91585771D02*
X78372024Y-91633390D01*
X78372024Y-91633390D02*
X78324405Y-91681009D01*
X78324405Y-91681009D02*
X78276786Y-91776247D01*
X59238095Y-73704819D02*
X59238095Y-74514342D01*
X59238095Y-74514342D02*
X59285714Y-74609580D01*
X59285714Y-74609580D02*
X59333333Y-74657200D01*
X59333333Y-74657200D02*
X59428571Y-74704819D01*
X59428571Y-74704819D02*
X59619047Y-74704819D01*
X59619047Y-74704819D02*
X59714285Y-74657200D01*
X59714285Y-74657200D02*
X59761904Y-74609580D01*
X59761904Y-74609580D02*
X59809523Y-74514342D01*
X59809523Y-74514342D02*
X59809523Y-73704819D01*
X60190476Y-73704819D02*
X60809523Y-73704819D01*
X60809523Y-73704819D02*
X60476190Y-74085771D01*
X60476190Y-74085771D02*
X60619047Y-74085771D01*
X60619047Y-74085771D02*
X60714285Y-74133390D01*
X60714285Y-74133390D02*
X60761904Y-74181009D01*
X60761904Y-74181009D02*
X60809523Y-74276247D01*
X60809523Y-74276247D02*
X60809523Y-74514342D01*
X60809523Y-74514342D02*
X60761904Y-74609580D01*
X60761904Y-74609580D02*
X60714285Y-74657200D01*
X60714285Y-74657200D02*
X60619047Y-74704819D01*
X60619047Y-74704819D02*
X60333333Y-74704819D01*
X60333333Y-74704819D02*
X60238095Y-74657200D01*
X60238095Y-74657200D02*
X60190476Y-74609580D01*
X54361200Y-70098019D02*
X54361200Y-70336114D01*
X54123105Y-70240876D02*
X54361200Y-70336114D01*
X54361200Y-70336114D02*
X54599295Y-70240876D01*
X54218343Y-70526590D02*
X54361200Y-70336114D01*
X54361200Y-70336114D02*
X54504057Y-70526590D01*
X54361200Y-70098019D02*
X54361200Y-70336114D01*
X54123105Y-70240876D02*
X54361200Y-70336114D01*
X54361200Y-70336114D02*
X54599295Y-70240876D01*
X54218343Y-70526590D02*
X54361200Y-70336114D01*
X54361200Y-70336114D02*
X54504057Y-70526590D01*
X154238095Y-31954819D02*
X154238095Y-30954819D01*
X154238095Y-31431009D02*
X154809523Y-31431009D01*
X154809523Y-31954819D02*
X154809523Y-30954819D01*
X155714285Y-31288152D02*
X155714285Y-31954819D01*
X155476190Y-30907200D02*
X155238095Y-31621485D01*
X155238095Y-31621485D02*
X155857142Y-31621485D01*
X146404405Y-95569819D02*
X146404405Y-94569819D01*
X146404405Y-94569819D02*
X146642500Y-94569819D01*
X146642500Y-94569819D02*
X146785357Y-94617438D01*
X146785357Y-94617438D02*
X146880595Y-94712676D01*
X146880595Y-94712676D02*
X146928214Y-94807914D01*
X146928214Y-94807914D02*
X146975833Y-94998390D01*
X146975833Y-94998390D02*
X146975833Y-95141247D01*
X146975833Y-95141247D02*
X146928214Y-95331723D01*
X146928214Y-95331723D02*
X146880595Y-95426961D01*
X146880595Y-95426961D02*
X146785357Y-95522200D01*
X146785357Y-95522200D02*
X146642500Y-95569819D01*
X146642500Y-95569819D02*
X146404405Y-95569819D01*
X147832976Y-94903152D02*
X147832976Y-95569819D01*
X147594881Y-94522200D02*
X147356786Y-95236485D01*
X147356786Y-95236485D02*
X147975833Y-95236485D01*
X68857142Y-63704819D02*
X68523809Y-63228628D01*
X68285714Y-63704819D02*
X68285714Y-62704819D01*
X68285714Y-62704819D02*
X68666666Y-62704819D01*
X68666666Y-62704819D02*
X68761904Y-62752438D01*
X68761904Y-62752438D02*
X68809523Y-62800057D01*
X68809523Y-62800057D02*
X68857142Y-62895295D01*
X68857142Y-62895295D02*
X68857142Y-63038152D01*
X68857142Y-63038152D02*
X68809523Y-63133390D01*
X68809523Y-63133390D02*
X68761904Y-63181009D01*
X68761904Y-63181009D02*
X68666666Y-63228628D01*
X68666666Y-63228628D02*
X68285714Y-63228628D01*
X69809523Y-63704819D02*
X69238095Y-63704819D01*
X69523809Y-63704819D02*
X69523809Y-62704819D01*
X69523809Y-62704819D02*
X69428571Y-62847676D01*
X69428571Y-62847676D02*
X69333333Y-62942914D01*
X69333333Y-62942914D02*
X69238095Y-62990533D01*
X70142857Y-62704819D02*
X70761904Y-62704819D01*
X70761904Y-62704819D02*
X70428571Y-63085771D01*
X70428571Y-63085771D02*
X70571428Y-63085771D01*
X70571428Y-63085771D02*
X70666666Y-63133390D01*
X70666666Y-63133390D02*
X70714285Y-63181009D01*
X70714285Y-63181009D02*
X70761904Y-63276247D01*
X70761904Y-63276247D02*
X70761904Y-63514342D01*
X70761904Y-63514342D02*
X70714285Y-63609580D01*
X70714285Y-63609580D02*
X70666666Y-63657200D01*
X70666666Y-63657200D02*
X70571428Y-63704819D01*
X70571428Y-63704819D02*
X70285714Y-63704819D01*
X70285714Y-63704819D02*
X70190476Y-63657200D01*
X70190476Y-63657200D02*
X70142857Y-63609580D01*
X147833333Y-89704819D02*
X147500000Y-89228628D01*
X147261905Y-89704819D02*
X147261905Y-88704819D01*
X147261905Y-88704819D02*
X147642857Y-88704819D01*
X147642857Y-88704819D02*
X147738095Y-88752438D01*
X147738095Y-88752438D02*
X147785714Y-88800057D01*
X147785714Y-88800057D02*
X147833333Y-88895295D01*
X147833333Y-88895295D02*
X147833333Y-89038152D01*
X147833333Y-89038152D02*
X147785714Y-89133390D01*
X147785714Y-89133390D02*
X147738095Y-89181009D01*
X147738095Y-89181009D02*
X147642857Y-89228628D01*
X147642857Y-89228628D02*
X147261905Y-89228628D01*
X148214286Y-88800057D02*
X148261905Y-88752438D01*
X148261905Y-88752438D02*
X148357143Y-88704819D01*
X148357143Y-88704819D02*
X148595238Y-88704819D01*
X148595238Y-88704819D02*
X148690476Y-88752438D01*
X148690476Y-88752438D02*
X148738095Y-88800057D01*
X148738095Y-88800057D02*
X148785714Y-88895295D01*
X148785714Y-88895295D02*
X148785714Y-88990533D01*
X148785714Y-88990533D02*
X148738095Y-89133390D01*
X148738095Y-89133390D02*
X148166667Y-89704819D01*
X148166667Y-89704819D02*
X148785714Y-89704819D01*
X146475833Y-93569819D02*
X146142500Y-93093628D01*
X145904405Y-93569819D02*
X145904405Y-92569819D01*
X145904405Y-92569819D02*
X146285357Y-92569819D01*
X146285357Y-92569819D02*
X146380595Y-92617438D01*
X146380595Y-92617438D02*
X146428214Y-92665057D01*
X146428214Y-92665057D02*
X146475833Y-92760295D01*
X146475833Y-92760295D02*
X146475833Y-92903152D01*
X146475833Y-92903152D02*
X146428214Y-92998390D01*
X146428214Y-92998390D02*
X146380595Y-93046009D01*
X146380595Y-93046009D02*
X146285357Y-93093628D01*
X146285357Y-93093628D02*
X145904405Y-93093628D01*
X146809167Y-92569819D02*
X147475833Y-92569819D01*
X147475833Y-92569819D02*
X147047262Y-93569819D01*
X65922342Y-80244580D02*
X65874723Y-80292200D01*
X65874723Y-80292200D02*
X65731866Y-80339819D01*
X65731866Y-80339819D02*
X65636628Y-80339819D01*
X65636628Y-80339819D02*
X65493771Y-80292200D01*
X65493771Y-80292200D02*
X65398533Y-80196961D01*
X65398533Y-80196961D02*
X65350914Y-80101723D01*
X65350914Y-80101723D02*
X65303295Y-79911247D01*
X65303295Y-79911247D02*
X65303295Y-79768390D01*
X65303295Y-79768390D02*
X65350914Y-79577914D01*
X65350914Y-79577914D02*
X65398533Y-79482676D01*
X65398533Y-79482676D02*
X65493771Y-79387438D01*
X65493771Y-79387438D02*
X65636628Y-79339819D01*
X65636628Y-79339819D02*
X65731866Y-79339819D01*
X65731866Y-79339819D02*
X65874723Y-79387438D01*
X65874723Y-79387438D02*
X65922342Y-79435057D01*
X66874723Y-80339819D02*
X66303295Y-80339819D01*
X66589009Y-80339819D02*
X66589009Y-79339819D01*
X66589009Y-79339819D02*
X66493771Y-79482676D01*
X66493771Y-79482676D02*
X66398533Y-79577914D01*
X66398533Y-79577914D02*
X66303295Y-79625533D01*
X67493771Y-79339819D02*
X67589009Y-79339819D01*
X67589009Y-79339819D02*
X67684247Y-79387438D01*
X67684247Y-79387438D02*
X67731866Y-79435057D01*
X67731866Y-79435057D02*
X67779485Y-79530295D01*
X67779485Y-79530295D02*
X67827104Y-79720771D01*
X67827104Y-79720771D02*
X67827104Y-79958866D01*
X67827104Y-79958866D02*
X67779485Y-80149342D01*
X67779485Y-80149342D02*
X67731866Y-80244580D01*
X67731866Y-80244580D02*
X67684247Y-80292200D01*
X67684247Y-80292200D02*
X67589009Y-80339819D01*
X67589009Y-80339819D02*
X67493771Y-80339819D01*
X67493771Y-80339819D02*
X67398533Y-80292200D01*
X67398533Y-80292200D02*
X67350914Y-80244580D01*
X67350914Y-80244580D02*
X67303295Y-80149342D01*
X67303295Y-80149342D02*
X67255676Y-79958866D01*
X67255676Y-79958866D02*
X67255676Y-79720771D01*
X67255676Y-79720771D02*
X67303295Y-79530295D01*
X67303295Y-79530295D02*
X67350914Y-79435057D01*
X67350914Y-79435057D02*
X67398533Y-79387438D01*
X67398533Y-79387438D02*
X67493771Y-79339819D01*
X98261905Y-73204819D02*
X98261905Y-72204819D01*
X98261905Y-72204819D02*
X98500000Y-72204819D01*
X98500000Y-72204819D02*
X98642857Y-72252438D01*
X98642857Y-72252438D02*
X98738095Y-72347676D01*
X98738095Y-72347676D02*
X98785714Y-72442914D01*
X98785714Y-72442914D02*
X98833333Y-72633390D01*
X98833333Y-72633390D02*
X98833333Y-72776247D01*
X98833333Y-72776247D02*
X98785714Y-72966723D01*
X98785714Y-72966723D02*
X98738095Y-73061961D01*
X98738095Y-73061961D02*
X98642857Y-73157200D01*
X98642857Y-73157200D02*
X98500000Y-73204819D01*
X98500000Y-73204819D02*
X98261905Y-73204819D01*
X99785714Y-73204819D02*
X99214286Y-73204819D01*
X99500000Y-73204819D02*
X99500000Y-72204819D01*
X99500000Y-72204819D02*
X99404762Y-72347676D01*
X99404762Y-72347676D02*
X99309524Y-72442914D01*
X99309524Y-72442914D02*
X99214286Y-72490533D01*
X143166666Y-45954819D02*
X143166666Y-46669104D01*
X143166666Y-46669104D02*
X143119047Y-46811961D01*
X143119047Y-46811961D02*
X143023809Y-46907200D01*
X143023809Y-46907200D02*
X142880952Y-46954819D01*
X142880952Y-46954819D02*
X142785714Y-46954819D01*
X143595238Y-46050057D02*
X143642857Y-46002438D01*
X143642857Y-46002438D02*
X143738095Y-45954819D01*
X143738095Y-45954819D02*
X143976190Y-45954819D01*
X143976190Y-45954819D02*
X144071428Y-46002438D01*
X144071428Y-46002438D02*
X144119047Y-46050057D01*
X144119047Y-46050057D02*
X144166666Y-46145295D01*
X144166666Y-46145295D02*
X144166666Y-46240533D01*
X144166666Y-46240533D02*
X144119047Y-46383390D01*
X144119047Y-46383390D02*
X143547619Y-46954819D01*
X143547619Y-46954819D02*
X144166666Y-46954819D01*
X144209580Y-67916666D02*
X144257200Y-67964285D01*
X144257200Y-67964285D02*
X144304819Y-68107142D01*
X144304819Y-68107142D02*
X144304819Y-68202380D01*
X144304819Y-68202380D02*
X144257200Y-68345237D01*
X144257200Y-68345237D02*
X144161961Y-68440475D01*
X144161961Y-68440475D02*
X144066723Y-68488094D01*
X144066723Y-68488094D02*
X143876247Y-68535713D01*
X143876247Y-68535713D02*
X143733390Y-68535713D01*
X143733390Y-68535713D02*
X143542914Y-68488094D01*
X143542914Y-68488094D02*
X143447676Y-68440475D01*
X143447676Y-68440475D02*
X143352438Y-68345237D01*
X143352438Y-68345237D02*
X143304819Y-68202380D01*
X143304819Y-68202380D02*
X143304819Y-68107142D01*
X143304819Y-68107142D02*
X143352438Y-67964285D01*
X143352438Y-67964285D02*
X143400057Y-67916666D01*
X143304819Y-67011904D02*
X143304819Y-67488094D01*
X143304819Y-67488094D02*
X143781009Y-67535713D01*
X143781009Y-67535713D02*
X143733390Y-67488094D01*
X143733390Y-67488094D02*
X143685771Y-67392856D01*
X143685771Y-67392856D02*
X143685771Y-67154761D01*
X143685771Y-67154761D02*
X143733390Y-67059523D01*
X143733390Y-67059523D02*
X143781009Y-67011904D01*
X143781009Y-67011904D02*
X143876247Y-66964285D01*
X143876247Y-66964285D02*
X144114342Y-66964285D01*
X144114342Y-66964285D02*
X144209580Y-67011904D01*
X144209580Y-67011904D02*
X144257200Y-67059523D01*
X144257200Y-67059523D02*
X144304819Y-67154761D01*
X144304819Y-67154761D02*
X144304819Y-67392856D01*
X144304819Y-67392856D02*
X144257200Y-67488094D01*
X144257200Y-67488094D02*
X144209580Y-67535713D01*
X65922342Y-86244580D02*
X65874723Y-86292200D01*
X65874723Y-86292200D02*
X65731866Y-86339819D01*
X65731866Y-86339819D02*
X65636628Y-86339819D01*
X65636628Y-86339819D02*
X65493771Y-86292200D01*
X65493771Y-86292200D02*
X65398533Y-86196961D01*
X65398533Y-86196961D02*
X65350914Y-86101723D01*
X65350914Y-86101723D02*
X65303295Y-85911247D01*
X65303295Y-85911247D02*
X65303295Y-85768390D01*
X65303295Y-85768390D02*
X65350914Y-85577914D01*
X65350914Y-85577914D02*
X65398533Y-85482676D01*
X65398533Y-85482676D02*
X65493771Y-85387438D01*
X65493771Y-85387438D02*
X65636628Y-85339819D01*
X65636628Y-85339819D02*
X65731866Y-85339819D01*
X65731866Y-85339819D02*
X65874723Y-85387438D01*
X65874723Y-85387438D02*
X65922342Y-85435057D01*
X66874723Y-86339819D02*
X66303295Y-86339819D01*
X66589009Y-86339819D02*
X66589009Y-85339819D01*
X66589009Y-85339819D02*
X66493771Y-85482676D01*
X66493771Y-85482676D02*
X66398533Y-85577914D01*
X66398533Y-85577914D02*
X66303295Y-85625533D01*
X67255676Y-85435057D02*
X67303295Y-85387438D01*
X67303295Y-85387438D02*
X67398533Y-85339819D01*
X67398533Y-85339819D02*
X67636628Y-85339819D01*
X67636628Y-85339819D02*
X67731866Y-85387438D01*
X67731866Y-85387438D02*
X67779485Y-85435057D01*
X67779485Y-85435057D02*
X67827104Y-85530295D01*
X67827104Y-85530295D02*
X67827104Y-85625533D01*
X67827104Y-85625533D02*
X67779485Y-85768390D01*
X67779485Y-85768390D02*
X67208057Y-86339819D01*
X67208057Y-86339819D02*
X67827104Y-86339819D01*
X43833333Y-73882319D02*
X43500000Y-73406128D01*
X43261905Y-73882319D02*
X43261905Y-72882319D01*
X43261905Y-72882319D02*
X43642857Y-72882319D01*
X43642857Y-72882319D02*
X43738095Y-72929938D01*
X43738095Y-72929938D02*
X43785714Y-72977557D01*
X43785714Y-72977557D02*
X43833333Y-73072795D01*
X43833333Y-73072795D02*
X43833333Y-73215652D01*
X43833333Y-73215652D02*
X43785714Y-73310890D01*
X43785714Y-73310890D02*
X43738095Y-73358509D01*
X43738095Y-73358509D02*
X43642857Y-73406128D01*
X43642857Y-73406128D02*
X43261905Y-73406128D01*
X44309524Y-73882319D02*
X44500000Y-73882319D01*
X44500000Y-73882319D02*
X44595238Y-73834700D01*
X44595238Y-73834700D02*
X44642857Y-73787080D01*
X44642857Y-73787080D02*
X44738095Y-73644223D01*
X44738095Y-73644223D02*
X44785714Y-73453747D01*
X44785714Y-73453747D02*
X44785714Y-73072795D01*
X44785714Y-73072795D02*
X44738095Y-72977557D01*
X44738095Y-72977557D02*
X44690476Y-72929938D01*
X44690476Y-72929938D02*
X44595238Y-72882319D01*
X44595238Y-72882319D02*
X44404762Y-72882319D01*
X44404762Y-72882319D02*
X44309524Y-72929938D01*
X44309524Y-72929938D02*
X44261905Y-72977557D01*
X44261905Y-72977557D02*
X44214286Y-73072795D01*
X44214286Y-73072795D02*
X44214286Y-73310890D01*
X44214286Y-73310890D02*
X44261905Y-73406128D01*
X44261905Y-73406128D02*
X44309524Y-73453747D01*
X44309524Y-73453747D02*
X44404762Y-73501366D01*
X44404762Y-73501366D02*
X44595238Y-73501366D01*
X44595238Y-73501366D02*
X44690476Y-73453747D01*
X44690476Y-73453747D02*
X44738095Y-73406128D01*
X44738095Y-73406128D02*
X44785714Y-73310890D01*
X48333333Y-73937080D02*
X48285714Y-73984700D01*
X48285714Y-73984700D02*
X48142857Y-74032319D01*
X48142857Y-74032319D02*
X48047619Y-74032319D01*
X48047619Y-74032319D02*
X47904762Y-73984700D01*
X47904762Y-73984700D02*
X47809524Y-73889461D01*
X47809524Y-73889461D02*
X47761905Y-73794223D01*
X47761905Y-73794223D02*
X47714286Y-73603747D01*
X47714286Y-73603747D02*
X47714286Y-73460890D01*
X47714286Y-73460890D02*
X47761905Y-73270414D01*
X47761905Y-73270414D02*
X47809524Y-73175176D01*
X47809524Y-73175176D02*
X47904762Y-73079938D01*
X47904762Y-73079938D02*
X48047619Y-73032319D01*
X48047619Y-73032319D02*
X48142857Y-73032319D01*
X48142857Y-73032319D02*
X48285714Y-73079938D01*
X48285714Y-73079938D02*
X48333333Y-73127557D01*
X48809524Y-74032319D02*
X49000000Y-74032319D01*
X49000000Y-74032319D02*
X49095238Y-73984700D01*
X49095238Y-73984700D02*
X49142857Y-73937080D01*
X49142857Y-73937080D02*
X49238095Y-73794223D01*
X49238095Y-73794223D02*
X49285714Y-73603747D01*
X49285714Y-73603747D02*
X49285714Y-73222795D01*
X49285714Y-73222795D02*
X49238095Y-73127557D01*
X49238095Y-73127557D02*
X49190476Y-73079938D01*
X49190476Y-73079938D02*
X49095238Y-73032319D01*
X49095238Y-73032319D02*
X48904762Y-73032319D01*
X48904762Y-73032319D02*
X48809524Y-73079938D01*
X48809524Y-73079938D02*
X48761905Y-73127557D01*
X48761905Y-73127557D02*
X48714286Y-73222795D01*
X48714286Y-73222795D02*
X48714286Y-73460890D01*
X48714286Y-73460890D02*
X48761905Y-73556128D01*
X48761905Y-73556128D02*
X48809524Y-73603747D01*
X48809524Y-73603747D02*
X48904762Y-73651366D01*
X48904762Y-73651366D02*
X49095238Y-73651366D01*
X49095238Y-73651366D02*
X49190476Y-73603747D01*
X49190476Y-73603747D02*
X49238095Y-73556128D01*
X49238095Y-73556128D02*
X49285714Y-73460890D01*
X130666666Y-25954819D02*
X130666666Y-26669104D01*
X130666666Y-26669104D02*
X130619047Y-26811961D01*
X130619047Y-26811961D02*
X130523809Y-26907200D01*
X130523809Y-26907200D02*
X130380952Y-26954819D01*
X130380952Y-26954819D02*
X130285714Y-26954819D01*
X131047619Y-25954819D02*
X131666666Y-25954819D01*
X131666666Y-25954819D02*
X131333333Y-26335771D01*
X131333333Y-26335771D02*
X131476190Y-26335771D01*
X131476190Y-26335771D02*
X131571428Y-26383390D01*
X131571428Y-26383390D02*
X131619047Y-26431009D01*
X131619047Y-26431009D02*
X131666666Y-26526247D01*
X131666666Y-26526247D02*
X131666666Y-26764342D01*
X131666666Y-26764342D02*
X131619047Y-26859580D01*
X131619047Y-26859580D02*
X131571428Y-26907200D01*
X131571428Y-26907200D02*
X131476190Y-26954819D01*
X131476190Y-26954819D02*
X131190476Y-26954819D01*
X131190476Y-26954819D02*
X131095238Y-26907200D01*
X131095238Y-26907200D02*
X131047619Y-26859580D01*
X88233333Y-71109580D02*
X88185714Y-71157200D01*
X88185714Y-71157200D02*
X88042857Y-71204819D01*
X88042857Y-71204819D02*
X87947619Y-71204819D01*
X87947619Y-71204819D02*
X87804762Y-71157200D01*
X87804762Y-71157200D02*
X87709524Y-71061961D01*
X87709524Y-71061961D02*
X87661905Y-70966723D01*
X87661905Y-70966723D02*
X87614286Y-70776247D01*
X87614286Y-70776247D02*
X87614286Y-70633390D01*
X87614286Y-70633390D02*
X87661905Y-70442914D01*
X87661905Y-70442914D02*
X87709524Y-70347676D01*
X87709524Y-70347676D02*
X87804762Y-70252438D01*
X87804762Y-70252438D02*
X87947619Y-70204819D01*
X87947619Y-70204819D02*
X88042857Y-70204819D01*
X88042857Y-70204819D02*
X88185714Y-70252438D01*
X88185714Y-70252438D02*
X88233333Y-70300057D01*
X89090476Y-70538152D02*
X89090476Y-71204819D01*
X88852381Y-70157200D02*
X88614286Y-70871485D01*
X88614286Y-70871485D02*
X89233333Y-70871485D01*
D12*
%TO.C,C2*%
X137688748Y-91515000D02*
X138211252Y-91515000D01*
X137688748Y-92985000D02*
X138211252Y-92985000D01*
%TO.C,R4*%
X139227064Y-82515000D02*
X138772936Y-82515000D01*
X139227064Y-83985000D02*
X138772936Y-83985000D01*
%TO.C,D5*%
X40815000Y-80290000D02*
X40815000Y-82210000D01*
X40815000Y-82210000D02*
X43500000Y-82210000D01*
X43500000Y-80290000D02*
X40815000Y-80290000D01*
%TO.C,J5*%
X99500000Y-33000000D02*
G75*
G02*
X88500000Y-33000000I-5500000J0D01*
G01*
X88500000Y-33000000D02*
G75*
G02*
X99500000Y-33000000I5500000J0D01*
G01*
%TO.C,U1*%
X119340000Y-78850000D02*
X119340000Y-89130000D01*
X119340000Y-89130000D02*
X120990000Y-89130000D01*
X122990000Y-89130000D02*
X124640000Y-89130000D01*
X124640000Y-78850000D02*
X119340000Y-78850000D01*
X124640000Y-89130000D02*
X124640000Y-78850000D01*
X120990000Y-89130000D02*
G75*
G02*
X122990000Y-89130000I1000000J0D01*
G01*
%TO.C,C6*%
X47853948Y-84515000D02*
X48376452Y-84515000D01*
X47853948Y-85985000D02*
X48376452Y-85985000D01*
%TO.C,R10*%
X74265000Y-72522936D02*
X74265000Y-72977064D01*
X75735000Y-72522936D02*
X75735000Y-72977064D01*
%TO.C,J4*%
X55500000Y-53000000D02*
G75*
G02*
X44500000Y-53000000I-5500000J0D01*
G01*
X44500000Y-53000000D02*
G75*
G02*
X55500000Y-53000000I5500000J0D01*
G01*
%TO.C,R1*%
X145227064Y-86015000D02*
X144772936Y-86015000D01*
X145227064Y-87485000D02*
X144772936Y-87485000D01*
%TO.C,R8*%
X42272936Y-78015000D02*
X42727064Y-78015000D01*
X42272936Y-79485000D02*
X42727064Y-79485000D01*
%TO.C,R11*%
X68265000Y-72977064D02*
X68265000Y-72522936D01*
X69735000Y-72977064D02*
X69735000Y-72522936D01*
D13*
%TO.C,U4*%
X44734600Y-88376500D02*
X44734600Y-96123500D01*
X44734600Y-96123500D02*
X64495800Y-96123500D01*
X64495800Y-88376500D02*
X44734600Y-88376500D01*
X64495800Y-96123500D02*
X64495800Y-88376500D01*
D12*
%TO.C,R12*%
X78090000Y-72522936D02*
X78090000Y-73977064D01*
X79910000Y-72522936D02*
X79910000Y-73977064D01*
%TO.C,C1*%
X144738748Y-83515000D02*
X145261252Y-83515000D01*
X144738748Y-84985000D02*
X145261252Y-84985000D01*
%TO.C,D2*%
X56437500Y-87210000D02*
X59122500Y-87210000D01*
X59122500Y-85290000D02*
X56437500Y-85290000D01*
X59122500Y-87210000D02*
X59122500Y-85290000D01*
%TO.C,J1*%
X55500000Y-33000000D02*
G75*
G02*
X44500000Y-33000000I-5500000J0D01*
G01*
X44500000Y-33000000D02*
G75*
G02*
X55500000Y-33000000I5500000J0D01*
G01*
%TO.C,C3*%
X83990560Y-76635000D02*
X85790560Y-76635000D01*
X84890560Y-75735000D02*
X84890560Y-77535000D01*
X93750000Y-72669000D02*
X93750000Y-90831000D01*
X93790000Y-72670000D02*
X93790000Y-90830000D01*
X93830000Y-72670000D02*
X93830000Y-90830000D01*
X93870000Y-72670000D02*
X93870000Y-90830000D01*
X93910000Y-72671000D02*
X93910000Y-90829000D01*
X93950000Y-72672000D02*
X93950000Y-90828000D01*
X93990000Y-72673000D02*
X93990000Y-90827000D01*
X94030000Y-72674000D02*
X94030000Y-90826000D01*
X94070000Y-72675000D02*
X94070000Y-90825000D01*
X94110000Y-72677000D02*
X94110000Y-90823000D01*
X94150000Y-72678000D02*
X94150000Y-90822000D01*
X94190000Y-72680000D02*
X94190000Y-90820000D01*
X94230000Y-72682000D02*
X94230000Y-90818000D01*
X94270000Y-72684000D02*
X94270000Y-90816000D01*
X94310000Y-72687000D02*
X94310000Y-90813000D01*
X94350000Y-72689000D02*
X94350000Y-90811000D01*
X94390000Y-72692000D02*
X94390000Y-90808000D01*
X94430000Y-72695000D02*
X94430000Y-90805000D01*
X94471000Y-72698000D02*
X94471000Y-90802000D01*
X94511000Y-72701000D02*
X94511000Y-90799000D01*
X94551000Y-72705000D02*
X94551000Y-90795000D01*
X94591000Y-72708000D02*
X94591000Y-90792000D01*
X94631000Y-72712000D02*
X94631000Y-90788000D01*
X94671000Y-72716000D02*
X94671000Y-90784000D01*
X94711000Y-72720000D02*
X94711000Y-90780000D01*
X94751000Y-72724000D02*
X94751000Y-90776000D01*
X94791000Y-72729000D02*
X94791000Y-90771000D01*
X94831000Y-72734000D02*
X94831000Y-90766000D01*
X94871000Y-72739000D02*
X94871000Y-90761000D01*
X94911000Y-72744000D02*
X94911000Y-90756000D01*
X94951000Y-72749000D02*
X94951000Y-90751000D01*
X94991000Y-72754000D02*
X94991000Y-90746000D01*
X95031000Y-72760000D02*
X95031000Y-90740000D01*
X95071000Y-72766000D02*
X95071000Y-90734000D01*
X95111000Y-72771000D02*
X95111000Y-90729000D01*
X95151000Y-72778000D02*
X95151000Y-90722000D01*
X95191000Y-72784000D02*
X95191000Y-90716000D01*
X95231000Y-72790000D02*
X95231000Y-90710000D01*
X95271000Y-72797000D02*
X95271000Y-90703000D01*
X95311000Y-72804000D02*
X95311000Y-90696000D01*
X95351000Y-72811000D02*
X95351000Y-90689000D01*
X95391000Y-72818000D02*
X95391000Y-90682000D01*
X95431000Y-72826000D02*
X95431000Y-90674000D01*
X95471000Y-72833000D02*
X95471000Y-90667000D01*
X95511000Y-72841000D02*
X95511000Y-90659000D01*
X95551000Y-72849000D02*
X95551000Y-90651000D01*
X95591000Y-72857000D02*
X95591000Y-90643000D01*
X95631000Y-72865000D02*
X95631000Y-90635000D01*
X95671000Y-72874000D02*
X95671000Y-90626000D01*
X95711000Y-72883000D02*
X95711000Y-90617000D01*
X95751000Y-72892000D02*
X95751000Y-90608000D01*
X95791000Y-72901000D02*
X95791000Y-90599000D01*
X95831000Y-72910000D02*
X95831000Y-90590000D01*
X95871000Y-72919000D02*
X95871000Y-90581000D01*
X95911000Y-72929000D02*
X95911000Y-90571000D01*
X95951000Y-72939000D02*
X95951000Y-90561000D01*
X95991000Y-72949000D02*
X95991000Y-90551000D01*
X96031000Y-72959000D02*
X96031000Y-90541000D01*
X96071000Y-72970000D02*
X96071000Y-80310000D01*
X96071000Y-83190000D02*
X96071000Y-90530000D01*
X96111000Y-72980000D02*
X96111000Y-80310000D01*
X96111000Y-83190000D02*
X96111000Y-90520000D01*
X96151000Y-72991000D02*
X96151000Y-80310000D01*
X96151000Y-83190000D02*
X96151000Y-90509000D01*
X96191000Y-73002000D02*
X96191000Y-80310000D01*
X96191000Y-83190000D02*
X96191000Y-90498000D01*
X96231000Y-73013000D02*
X96231000Y-80310000D01*
X96231000Y-83190000D02*
X96231000Y-90487000D01*
X96271000Y-73025000D02*
X96271000Y-80310000D01*
X96271000Y-83190000D02*
X96271000Y-90475000D01*
X96311000Y-73036000D02*
X96311000Y-80310000D01*
X96311000Y-83190000D02*
X96311000Y-90464000D01*
X96351000Y-73048000D02*
X96351000Y-80310000D01*
X96351000Y-83190000D02*
X96351000Y-90452000D01*
X96391000Y-73060000D02*
X96391000Y-80310000D01*
X96391000Y-83190000D02*
X96391000Y-90440000D01*
X96431000Y-73072000D02*
X96431000Y-80310000D01*
X96431000Y-83190000D02*
X96431000Y-90428000D01*
X96471000Y-73085000D02*
X96471000Y-80310000D01*
X96471000Y-83190000D02*
X96471000Y-90415000D01*
X96511000Y-73097000D02*
X96511000Y-80310000D01*
X96511000Y-83190000D02*
X96511000Y-90403000D01*
X96551000Y-73110000D02*
X96551000Y-80310000D01*
X96551000Y-83190000D02*
X96551000Y-90390000D01*
X96591000Y-73123000D02*
X96591000Y-80310000D01*
X96591000Y-83190000D02*
X96591000Y-90377000D01*
X96631000Y-73136000D02*
X96631000Y-80310000D01*
X96631000Y-83190000D02*
X96631000Y-90364000D01*
X96671000Y-73150000D02*
X96671000Y-80310000D01*
X96671000Y-83190000D02*
X96671000Y-90350000D01*
X96711000Y-73163000D02*
X96711000Y-80310000D01*
X96711000Y-83190000D02*
X96711000Y-90337000D01*
X96751000Y-73177000D02*
X96751000Y-80310000D01*
X96751000Y-83190000D02*
X96751000Y-90323000D01*
X96791000Y-73191000D02*
X96791000Y-80310000D01*
X96791000Y-83190000D02*
X96791000Y-90309000D01*
X96831000Y-73205000D02*
X96831000Y-80310000D01*
X96831000Y-83190000D02*
X96831000Y-90295000D01*
X96871000Y-73220000D02*
X96871000Y-80310000D01*
X96871000Y-83190000D02*
X96871000Y-90280000D01*
X96911000Y-73234000D02*
X96911000Y-80310000D01*
X96911000Y-83190000D02*
X96911000Y-90266000D01*
X96951000Y-73249000D02*
X96951000Y-80310000D01*
X96951000Y-83190000D02*
X96951000Y-90251000D01*
X96991000Y-73264000D02*
X96991000Y-80310000D01*
X96991000Y-83190000D02*
X96991000Y-90236000D01*
X97031000Y-73280000D02*
X97031000Y-80310000D01*
X97031000Y-83190000D02*
X97031000Y-90220000D01*
X97071000Y-73295000D02*
X97071000Y-80310000D01*
X97071000Y-83190000D02*
X97071000Y-90205000D01*
X97111000Y-73311000D02*
X97111000Y-80310000D01*
X97111000Y-83190000D02*
X97111000Y-90189000D01*
X97151000Y-73327000D02*
X97151000Y-80310000D01*
X97151000Y-83190000D02*
X97151000Y-90173000D01*
X97191000Y-73343000D02*
X97191000Y-80310000D01*
X97191000Y-83190000D02*
X97191000Y-90157000D01*
X97231000Y-73360000D02*
X97231000Y-80310000D01*
X97231000Y-83190000D02*
X97231000Y-90140000D01*
X97271000Y-73376000D02*
X97271000Y-80310000D01*
X97271000Y-83190000D02*
X97271000Y-90124000D01*
X97311000Y-73393000D02*
X97311000Y-80310000D01*
X97311000Y-83190000D02*
X97311000Y-90107000D01*
X97351000Y-73410000D02*
X97351000Y-80310000D01*
X97351000Y-83190000D02*
X97351000Y-90090000D01*
X97391000Y-73427000D02*
X97391000Y-80310000D01*
X97391000Y-83190000D02*
X97391000Y-90073000D01*
X97431000Y-73445000D02*
X97431000Y-80310000D01*
X97431000Y-83190000D02*
X97431000Y-90055000D01*
X97471000Y-73463000D02*
X97471000Y-80310000D01*
X97471000Y-83190000D02*
X97471000Y-90037000D01*
X97511000Y-73481000D02*
X97511000Y-80310000D01*
X97511000Y-83190000D02*
X97511000Y-90019000D01*
X97551000Y-73499000D02*
X97551000Y-80310000D01*
X97551000Y-83190000D02*
X97551000Y-90001000D01*
X97591000Y-73517000D02*
X97591000Y-80310000D01*
X97591000Y-83190000D02*
X97591000Y-89983000D01*
X97631000Y-73536000D02*
X97631000Y-80310000D01*
X97631000Y-83190000D02*
X97631000Y-89964000D01*
X97671000Y-73555000D02*
X97671000Y-80310000D01*
X97671000Y-83190000D02*
X97671000Y-89945000D01*
X97711000Y-73574000D02*
X97711000Y-80310000D01*
X97711000Y-83190000D02*
X97711000Y-89926000D01*
X97751000Y-73594000D02*
X97751000Y-80310000D01*
X97751000Y-83190000D02*
X97751000Y-89906000D01*
X97791000Y-73613000D02*
X97791000Y-80310000D01*
X97791000Y-83190000D02*
X97791000Y-89887000D01*
X97831000Y-73633000D02*
X97831000Y-80310000D01*
X97831000Y-83190000D02*
X97831000Y-89867000D01*
X97871000Y-73653000D02*
X97871000Y-80310000D01*
X97871000Y-83190000D02*
X97871000Y-89847000D01*
X97911000Y-73674000D02*
X97911000Y-80310000D01*
X97911000Y-83190000D02*
X97911000Y-89826000D01*
X97951000Y-73694000D02*
X97951000Y-80310000D01*
X97951000Y-83190000D02*
X97951000Y-89806000D01*
X97991000Y-73715000D02*
X97991000Y-80310000D01*
X97991000Y-83190000D02*
X97991000Y-89785000D01*
X98031000Y-73736000D02*
X98031000Y-80310000D01*
X98031000Y-83190000D02*
X98031000Y-89764000D01*
X98071000Y-73758000D02*
X98071000Y-80310000D01*
X98071000Y-83190000D02*
X98071000Y-89742000D01*
X98111000Y-73779000D02*
X98111000Y-80310000D01*
X98111000Y-83190000D02*
X98111000Y-89721000D01*
X98151000Y-73801000D02*
X98151000Y-80310000D01*
X98151000Y-83190000D02*
X98151000Y-89699000D01*
X98191000Y-73823000D02*
X98191000Y-80310000D01*
X98191000Y-83190000D02*
X98191000Y-89677000D01*
X98231000Y-73846000D02*
X98231000Y-80310000D01*
X98231000Y-83190000D02*
X98231000Y-89654000D01*
X98271000Y-73868000D02*
X98271000Y-80310000D01*
X98271000Y-83190000D02*
X98271000Y-89632000D01*
X98311000Y-73891000D02*
X98311000Y-80310000D01*
X98311000Y-83190000D02*
X98311000Y-89609000D01*
X98351000Y-73915000D02*
X98351000Y-80310000D01*
X98351000Y-83190000D02*
X98351000Y-89585000D01*
X98391000Y-73938000D02*
X98391000Y-80310000D01*
X98391000Y-83190000D02*
X98391000Y-89562000D01*
X98431000Y-73962000D02*
X98431000Y-80310000D01*
X98431000Y-83190000D02*
X98431000Y-89538000D01*
X98471000Y-73986000D02*
X98471000Y-80310000D01*
X98471000Y-83190000D02*
X98471000Y-89514000D01*
X98511000Y-74010000D02*
X98511000Y-80310000D01*
X98511000Y-83190000D02*
X98511000Y-89490000D01*
X98551000Y-74035000D02*
X98551000Y-80310000D01*
X98551000Y-83190000D02*
X98551000Y-89465000D01*
X98591000Y-74060000D02*
X98591000Y-80310000D01*
X98591000Y-83190000D02*
X98591000Y-89440000D01*
X98631000Y-74085000D02*
X98631000Y-80310000D01*
X98631000Y-83190000D02*
X98631000Y-89415000D01*
X98671000Y-74110000D02*
X98671000Y-80310000D01*
X98671000Y-83190000D02*
X98671000Y-89390000D01*
X98711000Y-74136000D02*
X98711000Y-80310000D01*
X98711000Y-83190000D02*
X98711000Y-89364000D01*
X98751000Y-74162000D02*
X98751000Y-80310000D01*
X98751000Y-83190000D02*
X98751000Y-89338000D01*
X98791000Y-74189000D02*
X98791000Y-80310000D01*
X98791000Y-83190000D02*
X98791000Y-89311000D01*
X98831000Y-74215000D02*
X98831000Y-80310000D01*
X98831000Y-83190000D02*
X98831000Y-89285000D01*
X98871000Y-74242000D02*
X98871000Y-80310000D01*
X98871000Y-83190000D02*
X98871000Y-89258000D01*
X98911000Y-74270000D02*
X98911000Y-80310000D01*
X98911000Y-83190000D02*
X98911000Y-89230000D01*
X98951000Y-74297000D02*
X98951000Y-89203000D01*
X98991000Y-74325000D02*
X98991000Y-89175000D01*
X99031000Y-74353000D02*
X99031000Y-89147000D01*
X99071000Y-74382000D02*
X99071000Y-89118000D01*
X99111000Y-74411000D02*
X99111000Y-89089000D01*
X99151000Y-74440000D02*
X99151000Y-89060000D01*
X99191000Y-74470000D02*
X99191000Y-89030000D01*
X99231000Y-74500000D02*
X99231000Y-89000000D01*
X99271000Y-74530000D02*
X99271000Y-88970000D01*
X99311000Y-74560000D02*
X99311000Y-88940000D01*
X99351000Y-74591000D02*
X99351000Y-88909000D01*
X99391000Y-74623000D02*
X99391000Y-88877000D01*
X99431000Y-74654000D02*
X99431000Y-88846000D01*
X99471000Y-74686000D02*
X99471000Y-88814000D01*
X99511000Y-74719000D02*
X99511000Y-88781000D01*
X99551000Y-74751000D02*
X99551000Y-88749000D01*
X99591000Y-74785000D02*
X99591000Y-88715000D01*
X99631000Y-74818000D02*
X99631000Y-88682000D01*
X99671000Y-74852000D02*
X99671000Y-88648000D01*
X99711000Y-74886000D02*
X99711000Y-88614000D01*
X99751000Y-74921000D02*
X99751000Y-88579000D01*
X99791000Y-74956000D02*
X99791000Y-88544000D01*
X99831000Y-74992000D02*
X99831000Y-88508000D01*
X99871000Y-75028000D02*
X99871000Y-88472000D01*
X99911000Y-75064000D02*
X99911000Y-88436000D01*
X99951000Y-75101000D02*
X99951000Y-88399000D01*
X99991000Y-75138000D02*
X99991000Y-88362000D01*
X100031000Y-75176000D02*
X100031000Y-88324000D01*
X100071000Y-75214000D02*
X100071000Y-88286000D01*
X100111000Y-75253000D02*
X100111000Y-88247000D01*
X100151000Y-75292000D02*
X100151000Y-88208000D01*
X100191000Y-75332000D02*
X100191000Y-88168000D01*
X100231000Y-75372000D02*
X100231000Y-88128000D01*
X100271000Y-75413000D02*
X100271000Y-88087000D01*
X100311000Y-75454000D02*
X100311000Y-88046000D01*
X100351000Y-75496000D02*
X100351000Y-88004000D01*
X100391000Y-75538000D02*
X100391000Y-87962000D01*
X100431000Y-75580000D02*
X100431000Y-87920000D01*
X100471000Y-75624000D02*
X100471000Y-87876000D01*
X100511000Y-75668000D02*
X100511000Y-87832000D01*
X100551000Y-75712000D02*
X100551000Y-87788000D01*
X100591000Y-75757000D02*
X100591000Y-87743000D01*
X100631000Y-75803000D02*
X100631000Y-87697000D01*
X100671000Y-75849000D02*
X100671000Y-87651000D01*
X100711000Y-75896000D02*
X100711000Y-87604000D01*
X100751000Y-75944000D02*
X100751000Y-87556000D01*
X100791000Y-75992000D02*
X100791000Y-87508000D01*
X100831000Y-76041000D02*
X100831000Y-87459000D01*
X100871000Y-76090000D02*
X100871000Y-87410000D01*
X100911000Y-76141000D02*
X100911000Y-87359000D01*
X100951000Y-76192000D02*
X100951000Y-87308000D01*
X100991000Y-76244000D02*
X100991000Y-87256000D01*
X101031000Y-76296000D02*
X101031000Y-87204000D01*
X101071000Y-76350000D02*
X101071000Y-87150000D01*
X101111000Y-76404000D02*
X101111000Y-87096000D01*
X101151000Y-76459000D02*
X101151000Y-87041000D01*
X101191000Y-76515000D02*
X101191000Y-86985000D01*
X101231000Y-76572000D02*
X101231000Y-86928000D01*
X101271000Y-76630000D02*
X101271000Y-86870000D01*
X101311000Y-76688000D02*
X101311000Y-86812000D01*
X101351000Y-76748000D02*
X101351000Y-86752000D01*
X101391000Y-76809000D02*
X101391000Y-86691000D01*
X101431000Y-76871000D02*
X101431000Y-86629000D01*
X101471000Y-76934000D02*
X101471000Y-86566000D01*
X101511000Y-76998000D02*
X101511000Y-86502000D01*
X101551000Y-77064000D02*
X101551000Y-86436000D01*
X101591000Y-77130000D02*
X101591000Y-86370000D01*
X101631000Y-77198000D02*
X101631000Y-86302000D01*
X101671000Y-77268000D02*
X101671000Y-86232000D01*
X101711000Y-77338000D02*
X101711000Y-86162000D01*
X101751000Y-77411000D02*
X101751000Y-86089000D01*
X101791000Y-77485000D02*
X101791000Y-86015000D01*
X101831000Y-77560000D02*
X101831000Y-85940000D01*
X101871000Y-77637000D02*
X101871000Y-85863000D01*
X101911000Y-77717000D02*
X101911000Y-85783000D01*
X101950000Y-77798000D02*
X101950000Y-85702000D01*
X101990000Y-77881000D02*
X101990000Y-85619000D01*
X102030000Y-77966000D02*
X102030000Y-85534000D01*
X102070000Y-78054000D02*
X102070000Y-85446000D01*
X102110000Y-78145000D02*
X102110000Y-85355000D01*
X102150000Y-78238000D02*
X102150000Y-85262000D01*
X102190000Y-78334000D02*
X102190000Y-85166000D01*
X102230000Y-78433000D02*
X102230000Y-85067000D01*
X102270000Y-78536000D02*
X102270000Y-84964000D01*
X102310000Y-78643000D02*
X102310000Y-84857000D01*
X102350000Y-78754000D02*
X102350000Y-84746000D01*
X102390000Y-78870000D02*
X102390000Y-84630000D01*
X102430000Y-78991000D02*
X102430000Y-84509000D01*
X102470000Y-79118000D02*
X102470000Y-84382000D01*
X102510000Y-79252000D02*
X102510000Y-84248000D01*
X102550000Y-79395000D02*
X102550000Y-84105000D01*
X102590000Y-79547000D02*
X102590000Y-83953000D01*
X102630000Y-79711000D02*
X102630000Y-83789000D01*
X102670000Y-79890000D02*
X102670000Y-83610000D01*
X102710000Y-80089000D02*
X102710000Y-83411000D01*
X102750000Y-80315000D02*
X102750000Y-83185000D01*
X102790000Y-80584000D02*
X102790000Y-82916000D01*
X102830000Y-80936000D02*
X102830000Y-82564000D01*
X102870000Y-81710000D02*
X102870000Y-81790000D01*
X102870000Y-81750000D02*
G75*
G02*
X84630000Y-81750000I-9120000J0D01*
G01*
X84630000Y-81750000D02*
G75*
G02*
X102870000Y-81750000I9120000J0D01*
G01*
%TO.C,R5*%
X57727064Y-83015000D02*
X57272936Y-83015000D01*
X57727064Y-84485000D02*
X57272936Y-84485000D01*
%TO.C,C7*%
X58811252Y-79015000D02*
X58288748Y-79015000D01*
X58811252Y-80485000D02*
X58288748Y-80485000D01*
%TO.C,C11*%
X62803948Y-82150000D02*
X63326452Y-82150000D01*
X62803948Y-83620000D02*
X63326452Y-83620000D01*
%TO.C,D6*%
X80010000Y-66600000D02*
X74500000Y-66600000D01*
X80010000Y-69900000D02*
X74500000Y-69900000D01*
X80010000Y-69900000D02*
X80010000Y-66600000D01*
%TO.C,D3*%
X73377500Y-93290000D02*
X73377500Y-95210000D01*
X73377500Y-95210000D02*
X76062500Y-95210000D01*
X76062500Y-93290000D02*
X73377500Y-93290000D01*
%TO.C,Q1*%
X84880000Y-62925000D02*
X84880000Y-67566000D01*
X84880000Y-62925000D02*
X95120000Y-62925000D01*
X84880000Y-64435000D02*
X95120000Y-64435000D01*
X84880000Y-67566000D02*
X95120000Y-67566000D01*
X88150000Y-62925000D02*
X88150000Y-64435000D01*
X91851000Y-62925000D02*
X91851000Y-64435000D01*
X95120000Y-62925000D02*
X95120000Y-67566000D01*
%TO.C,R14*%
X71265000Y-72977064D02*
X71265000Y-72522936D01*
X72735000Y-72977064D02*
X72735000Y-72522936D01*
%TO.C,D7*%
X75377500Y-62340000D02*
X75377500Y-64260000D01*
X75377500Y-64260000D02*
X78062500Y-64260000D01*
X78062500Y-62340000D02*
X75377500Y-62340000D01*
D14*
%TO.C,U2*%
X28103000Y-97540000D02*
X157897000Y-97540000D01*
X28103000Y-155960000D02*
X28103000Y-97540000D01*
X157897000Y-97540000D02*
X157897000Y-155960000D01*
X157897000Y-155960000D02*
X28103000Y-155960000D01*
D12*
%TO.C,R3*%
X144772936Y-81015000D02*
X145227064Y-81015000D01*
X144772936Y-82485000D02*
X145227064Y-82485000D01*
%TO.C,C8*%
X50265000Y-75816248D02*
X50265000Y-76338752D01*
X51735000Y-75816248D02*
X51735000Y-76338752D01*
%TO.C,L1*%
X106390000Y-66250000D02*
X109145000Y-66250000D01*
X109145000Y-59780000D02*
X109145000Y-72720000D01*
X109145000Y-72720000D02*
X132755000Y-72720000D01*
X132755000Y-59780000D02*
X109145000Y-59780000D01*
X132755000Y-72720000D02*
X132755000Y-59780000D01*
X135510000Y-66250000D02*
X132755000Y-66250000D01*
%TO.C,R6*%
X74835436Y-91015000D02*
X75289564Y-91015000D01*
X74835436Y-92485000D02*
X75289564Y-92485000D01*
D13*
%TO.C,U3*%
X56075700Y-71151200D02*
X56075700Y-77348800D01*
X56075700Y-77348800D02*
X63924300Y-77348800D01*
X63924300Y-71151200D02*
X56075700Y-71151200D01*
X63924300Y-77348800D02*
X63924300Y-71151200D01*
D12*
%TO.C,D4*%
X149142500Y-96075000D02*
X151827500Y-96075000D01*
X151827500Y-94155000D02*
X149142500Y-94155000D01*
X151827500Y-96075000D02*
X151827500Y-94155000D01*
%TO.C,R13*%
X73227064Y-62515000D02*
X72772936Y-62515000D01*
X73227064Y-63985000D02*
X72772936Y-63985000D01*
%TO.C,R2*%
X144772936Y-88515000D02*
X145227064Y-88515000D01*
X144772936Y-89985000D02*
X145227064Y-89985000D01*
%TO.C,R7*%
X150227064Y-92015000D02*
X149772936Y-92015000D01*
X150227064Y-93485000D02*
X149772936Y-93485000D01*
%TO.C,C10*%
X62803948Y-79140000D02*
X63326452Y-79140000D01*
X62803948Y-80610000D02*
X63326452Y-80610000D01*
%TO.C,D1*%
X97850000Y-64740000D02*
X97850000Y-70250000D01*
X101150000Y-64740000D02*
X97850000Y-64740000D01*
X101150000Y-64740000D02*
X101150000Y-70250000D01*
%TO.C,J2*%
X149000000Y-53000000D02*
G75*
G02*
X138000000Y-53000000I-5500000J0D01*
G01*
X138000000Y-53000000D02*
G75*
G02*
X149000000Y-53000000I5500000J0D01*
G01*
%TO.C,C5*%
X141090000Y-67038748D02*
X141090000Y-68461252D01*
X142910000Y-67038748D02*
X142910000Y-68461252D01*
%TO.C,C12*%
X62803948Y-85160000D02*
X63326452Y-85160000D01*
X62803948Y-86630000D02*
X63326452Y-86630000D01*
%TO.C,R9*%
X43772936Y-74342500D02*
X44227064Y-74342500D01*
X43772936Y-75812500D02*
X44227064Y-75812500D01*
%TO.C,C9*%
X47765000Y-75853748D02*
X47765000Y-76376252D01*
X49235000Y-75853748D02*
X49235000Y-76376252D01*
%TO.C,J3*%
X136500000Y-33000000D02*
G75*
G02*
X125500000Y-33000000I-5500000J0D01*
G01*
X125500000Y-33000000D02*
G75*
G02*
X136500000Y-33000000I5500000J0D01*
G01*
%TO.C,C4*%
X90688748Y-70015000D02*
X91211252Y-70015000D01*
X90688748Y-71485000D02*
X91211252Y-71485000D01*
%TD*%
M02*
