%TF.GenerationSoftware,KiCad,Pcbnew,8.0.8*%
%TF.CreationDate,2025-03-01T18:28:42-05:00*%
%TF.ProjectId,NEW1,4e455731-2e6b-4696-9361-645f70636258,rev?*%
%TF.SameCoordinates,Original*%
%TF.FileFunction,Soldermask,Bot*%
%TF.FilePolarity,Negative*%
%FSLAX46Y46*%
G04 Gerber Fmt 4.6, Leading zero omitted, Abs format (unit mm)*
G04 Created by KiCad (PCBNEW 8.0.8) date 2025-03-01 18:28:42*
%MOMM*%
%LPD*%
G01*
G04 APERTURE LIST*
G04 Aperture macros list*
%AMRoundRect*
0 Rectangle with rounded corners*
0 $1 Rounding radius*
0 $2 $3 $4 $5 $6 $7 $8 $9 X,Y pos of 4 corners*
0 Add a 4 corners polygon primitive as box body*
4,1,4,$2,$3,$4,$5,$6,$7,$8,$9,$2,$3,0*
0 Add four circle primitives for the rounded corners*
1,1,$1+$1,$2,$3*
1,1,$1+$1,$4,$5*
1,1,$1+$1,$6,$7*
1,1,$1+$1,$8,$9*
0 Add four rect primitives between the rounded corners*
20,1,$1+$1,$2,$3,$4,$5,0*
20,1,$1+$1,$4,$5,$6,$7,0*
20,1,$1+$1,$6,$7,$8,$9,0*
20,1,$1+$1,$8,$9,$2,$3,0*%
G04 Aperture macros list end*
%ADD10C,10.160000*%
%ADD11R,1.600000X1.600000*%
%ADD12O,1.600000X1.600000*%
%ADD13R,1.270000X1.270000*%
%ADD14C,1.270000*%
%ADD15C,4.000000*%
%ADD16R,2.400000X2.400000*%
%ADD17C,2.400000*%
%ADD18R,1.905000X2.000000*%
%ADD19O,1.905000X2.000000*%
%ADD20C,3.175000*%
%ADD21RoundRect,0.102000X0.939800X0.939800X-0.939800X0.939800X-0.939800X-0.939800X0.939800X-0.939800X0*%
%ADD22C,2.083600*%
%ADD23RoundRect,0.102000X0.762000X0.762000X-0.762000X0.762000X-0.762000X-0.762000X0.762000X-0.762000X0*%
%ADD24C,1.728000*%
%ADD25RoundRect,0.102000X0.750000X0.750000X-0.750000X0.750000X-0.750000X-0.750000X0.750000X-0.750000X0*%
%ADD26C,1.704000*%
%ADD27O,2.400000X2.400000*%
G04 APERTURE END LIST*
D10*
%TO.C,J5*%
X94000000Y-33000000D03*
%TD*%
D11*
%TO.C,U1*%
X125800000Y-87800000D03*
D12*
X125800000Y-85260000D03*
X125800000Y-82720000D03*
X125800000Y-80180000D03*
X118180000Y-80180000D03*
X118180000Y-82720000D03*
X118180000Y-85260000D03*
X118180000Y-87800000D03*
%TD*%
D10*
%TO.C,J4*%
X50000000Y-53000000D03*
%TD*%
D13*
%TO.C,U4*%
X46965200Y-90175000D03*
D14*
X49505200Y-90175000D03*
X57125200Y-90175000D03*
X62205200Y-90175000D03*
%TD*%
D15*
%TO.C,H3*%
X155000000Y-163000000D03*
%TD*%
D10*
%TO.C,J1*%
X50000000Y-33000000D03*
%TD*%
D16*
%TO.C,C3*%
X90000000Y-81750000D03*
D17*
X97500000Y-81750000D03*
%TD*%
D15*
%TO.C,H2*%
X32500000Y-163000000D03*
%TD*%
%TO.C,H1*%
X32500000Y-36500000D03*
%TD*%
D18*
%TO.C,Q1*%
X87460000Y-66195000D03*
D19*
X90000000Y-66195000D03*
X92540000Y-66195000D03*
%TD*%
D20*
%TO.C,U2*%
X155357000Y-153420000D03*
X155357000Y-100080000D03*
X30897000Y-153420000D03*
X30897000Y-100080000D03*
D21*
X126147000Y-103890000D03*
D22*
X123607000Y-103890000D03*
X121067000Y-103890000D03*
X118527000Y-103890000D03*
X115987000Y-103890000D03*
X113447000Y-103890000D03*
X110907000Y-103890000D03*
X108367000Y-103890000D03*
X105827000Y-103890000D03*
X103287000Y-103890000D03*
D21*
X103287000Y-149610000D03*
D22*
X105827000Y-149610000D03*
X108367000Y-149610000D03*
X110907000Y-149610000D03*
X113447000Y-149610000D03*
X115987000Y-149610000D03*
X118527000Y-149610000D03*
X121067000Y-149610000D03*
X123607000Y-149610000D03*
X126147000Y-149610000D03*
D21*
X126147000Y-106430000D03*
D22*
X123607000Y-106430000D03*
X121067000Y-106430000D03*
X118527000Y-106430000D03*
X115987000Y-106430000D03*
X113447000Y-106430000D03*
X110907000Y-106430000D03*
X108367000Y-106430000D03*
X105827000Y-106430000D03*
X103287000Y-106430000D03*
D21*
X103287000Y-147070000D03*
D22*
X105827000Y-147070000D03*
X108367000Y-147070000D03*
X110907000Y-147070000D03*
X113447000Y-147070000D03*
X115987000Y-147070000D03*
X118527000Y-147070000D03*
X121067000Y-147070000D03*
X123607000Y-147070000D03*
X126147000Y-147070000D03*
D21*
X62647000Y-103890000D03*
D22*
X60107000Y-103890000D03*
X57567000Y-103890000D03*
X55027000Y-103890000D03*
X52487000Y-103890000D03*
X49947000Y-103890000D03*
X47407000Y-103890000D03*
X44867000Y-103890000D03*
X42327000Y-103890000D03*
X39787000Y-103890000D03*
D21*
X39787000Y-149610000D03*
D22*
X42327000Y-149610000D03*
X44867000Y-149610000D03*
X47407000Y-149610000D03*
X49947000Y-149610000D03*
X52487000Y-149610000D03*
X55027000Y-149610000D03*
X57567000Y-149610000D03*
X60107000Y-149610000D03*
X62647000Y-149610000D03*
D21*
X62647000Y-106430000D03*
D22*
X60107000Y-106430000D03*
X57567000Y-106430000D03*
X55027000Y-106430000D03*
X52487000Y-106430000D03*
X49947000Y-106430000D03*
X47407000Y-106430000D03*
X44867000Y-106430000D03*
X42327000Y-106430000D03*
X39787000Y-106430000D03*
D21*
X39787000Y-147070000D03*
D22*
X42327000Y-147070000D03*
X44867000Y-147070000D03*
X47407000Y-147070000D03*
X49947000Y-147070000D03*
X52487000Y-147070000D03*
X55027000Y-147070000D03*
X57567000Y-147070000D03*
X60107000Y-147070000D03*
X62647000Y-147070000D03*
D23*
X29627000Y-149610000D03*
D24*
X32167000Y-149610000D03*
X34707000Y-149610000D03*
D23*
X29627000Y-114050000D03*
D24*
X29627000Y-111510000D03*
X29627000Y-108970000D03*
D23*
X29627000Y-144530000D03*
D24*
X29627000Y-141990000D03*
X29627000Y-139450000D03*
X29627000Y-136910000D03*
X29627000Y-134370000D03*
D23*
X29627000Y-129290000D03*
D24*
X29627000Y-126750000D03*
X29627000Y-124210000D03*
X29627000Y-121670000D03*
X29627000Y-119130000D03*
D23*
X29627000Y-103890000D03*
D24*
X32167000Y-103890000D03*
X34707000Y-103890000D03*
D25*
X99803000Y-106664000D03*
D26*
X99803000Y-104124000D03*
X97263000Y-106664000D03*
X97263000Y-104124000D03*
X94723000Y-106664000D03*
X94723000Y-104124000D03*
X92183000Y-106664000D03*
X92183000Y-104124000D03*
%TD*%
D17*
%TO.C,L1*%
X104950000Y-66250000D03*
D27*
X136950000Y-66250000D03*
%TD*%
D15*
%TO.C,H4*%
X155000000Y-36500000D03*
%TD*%
D10*
%TO.C,J2*%
X143500000Y-53000000D03*
%TD*%
%TO.C,J3*%
X131000000Y-33000000D03*
%TD*%
M02*
